<svg version="1.1" id="Layer_1" xmlns="http://www.w3.org/2000/svg" xmlns:xlink="http://www.w3.org/1999/xlink" x="0px" y="0px"
	 width="100%" viewBox="0 0 1024 223" enable-background="new 0 0 1024 223" xml:space="preserve">
<path fill="#010101" opacity="1.000000" stroke="none" 
	d="
M613.000000,224.000000 
	C611.611084,224.000000 610.222229,224.000000 608.452576,223.999496 
	C608.071838,223.998993 608.171082,223.915344 608.197144,223.881088 
	C608.223145,223.846832 608.278748,223.781143 608.450684,223.317963 
	C605.796936,218.551544 602.971252,214.248291 600.122986,209.616440 
	C599.277100,207.792160 598.453796,206.296478 597.513672,204.439117 
	C596.400513,202.308212 595.404175,200.538971 594.400940,198.801117 
	C594.394043,198.832520 594.424377,198.765594 594.345947,198.410950 
	C591.552002,193.022461 588.836487,187.988617 586.115845,182.656570 
	C585.778198,181.893967 585.445679,181.429565 585.082153,180.606110 
	C583.358826,177.167618 581.666504,174.088181 579.959106,170.678009 
	C579.482788,169.603348 579.021545,168.859406 578.435303,167.705063 
	C577.211365,166.293945 576.112366,165.293228 574.993164,164.312988 
	C574.972900,164.333450 574.924255,164.300720 575.309326,164.169495 
	C575.550964,163.339752 575.407593,162.641235 575.222656,161.609467 
	C574.725342,160.516937 574.269592,159.757675 573.769653,158.651398 
	C572.181335,155.556519 570.637146,152.808655 569.169922,149.955475 
	C568.834473,149.232468 568.422180,148.614792 567.979858,147.643646 
	C564.334595,140.513901 560.719299,133.737640 557.096313,126.661140 
	C556.747559,125.898621 556.406494,125.436340 556.036743,124.647987 
	C555.349487,123.214279 554.691101,122.106644 553.985107,120.657806 
	C553.484741,120.525917 553.031860,120.735229 552.323181,121.167114 
	C550.365417,124.896477 548.663452,128.403259 546.690552,132.105316 
	C545.902405,133.517120 545.385315,134.733627 544.599854,136.141846 
	C543.512573,138.127625 542.693787,139.921707 541.592407,141.920273 
	C540.235107,144.417343 539.160400,146.709915 537.829834,149.230408 
	C536.707458,151.303024 535.840881,153.147751 534.695374,155.187683 
	C533.561707,157.253159 532.706848,159.123444 531.570312,161.189774 
	C529.417786,165.217682 527.546997,169.049545 525.423950,173.051941 
	C524.804382,174.149063 524.437073,175.075638 523.851074,176.189484 
	C523.356323,177.075653 523.080139,177.774551 522.530884,178.666901 
	C521.607605,180.243927 520.957336,181.627487 520.062195,183.286835 
	C517.837036,187.612671 515.856873,191.662720 513.601929,195.886902 
	C512.913940,197.041504 512.500671,198.022003 511.853394,199.233368 
	C511.257568,200.254745 510.895752,201.045242 510.309814,202.037582 
	C509.724884,203.159988 509.364075,204.080551 508.727356,205.208069 
	C506.193512,209.799622 503.775146,214.111404 501.739014,218.596725 
	C500.552063,221.211426 499.037964,222.317047 496.108643,222.101318 
	C492.500885,221.835648 488.855560,221.975143 485.234558,222.129440 
	C484.797272,222.148087 484.410309,223.347717 484.000000,224.000000 
	C453.979095,224.000000 423.958221,224.000000 393.866974,223.715729 
	C389.445770,221.551315 388.181610,217.258072 386.217163,213.571106 
	C380.351807,202.562729 374.602142,191.492722 368.780945,180.460709 
	C368.228699,179.414078 367.491333,178.465134 366.185852,176.472549 
	C366.185852,192.350922 366.185852,206.934555 366.185852,221.798248 
	C364.485931,221.880539 363.032562,222.010803 361.579102,222.012100 
	C344.081207,222.027695 326.581635,221.898132 309.086792,222.129471 
	C305.482208,222.177170 303.890289,220.834137 302.356720,217.839493 
	C290.605377,194.892227 278.691711,172.028061 266.811127,149.147049 
	C261.727936,139.357178 256.603485,129.588715 251.202423,119.244919 
	C250.146149,121.135780 249.401657,122.389549 248.730560,123.681442 
	C232.401535,155.115387 216.055756,186.540695 199.800934,218.012970 
	C198.385849,220.752808 196.956100,222.144394 193.476410,222.136200 
	C129.317856,221.984894 65.158882,222.011215 1.000000,222.000000 
	C1.000000,148.979111 1.000000,75.958206 1.468657,2.468990 
	C67.259796,2.035824 132.582275,2.070982 198.063416,2.414435 
	C215.728821,36.458885 233.235565,70.195038 251.127960,104.674332 
	C269.123993,69.982849 286.692047,36.116375 304.709534,2.195292 
	C341.425537,2.110518 377.692108,2.080353 414.156799,2.336587 
	C421.976379,17.161726 429.597809,31.700462 437.219238,46.239201 
	C437.542633,46.130211 437.866028,46.021221 438.189423,45.912231 
	C438.189423,31.337553 438.189423,16.762877 438.644653,2.148937 
	C459.384308,2.091440 479.668701,2.073204 500.131042,2.353922 
	C517.874695,36.432304 535.440430,70.211731 553.318604,104.591980 
	C571.854370,69.476662 589.927185,35.238327 608.000000,0.999996 
	C613.022095,1.000000 618.044189,1.000000 623.770813,1.356128 
	C646.646973,1.810529 668.818604,1.908803 691.207642,2.277785 
	C699.313171,17.743328 707.161987,32.958694 715.099243,48.127796 
	C725.028992,67.104790 735.031372,86.043785 745.023560,105.348724 
	C745.978271,107.299423 746.911926,108.900551 747.884460,110.838684 
	C753.543030,121.811592 759.162720,132.447510 764.800293,143.385712 
	C765.162170,144.145966 765.506348,144.603958 765.894775,145.421997 
	C767.960083,149.521133 769.981079,153.260193 772.030884,157.352234 
	C773.328369,159.927063 774.597046,162.148941 775.902954,164.710709 
	C777.184692,167.319260 778.429260,169.587921 779.711243,172.125961 
	C780.144104,172.976608 780.539551,173.557877 780.968628,174.489777 
	C783.011047,178.557114 785.019836,182.273804 787.028625,186.300171 
	C787.588013,187.448318 788.147339,188.286758 788.773376,189.480301 
	C791.887390,195.559036 794.934631,201.282684 798.007324,207.359955 
	C799.301392,209.933533 800.570007,212.153458 801.877930,214.713242 
	C802.934509,217.364700 803.951721,219.676315 804.514404,221.997559 
	C803.294067,222.589600 800.176086,220.740738 802.000000,224.000000 
	C798.638733,224.000000 795.277405,224.000000 791.865906,223.627106 
	C790.420959,222.848267 789.028687,222.099747 787.631165,222.089813 
	C774.827820,221.998962 762.023682,222.036194 749.219727,222.036377 
	C742.734619,222.036484 736.248352,221.985596 729.766174,222.123062 
	C729.164429,222.135818 728.588074,223.345871 728.000000,224.000000 
	C717.979126,224.000000 707.958191,224.000000 697.870483,223.690826 
	C695.978088,222.804352 694.152527,222.227051 692.210388,221.783722 
	C692.093750,221.917694 692.359131,221.681503 692.300598,221.346130 
	C691.543762,219.866196 690.845459,218.721634 690.143250,217.322083 
	C689.851379,216.676071 689.563477,216.285019 689.248230,215.599274 
	C688.882507,214.847244 688.544128,214.389954 688.158813,213.577713 
	C685.116150,207.723846 682.120483,202.224915 679.118408,196.419662 
	C678.505127,195.080048 677.898315,194.046738 677.208130,192.659836 
	C675.764893,189.865433 674.404907,187.424622 673.007629,184.623779 
	C671.641357,181.973267 670.312439,179.682770 668.983459,177.392273 
	C668.753052,177.486893 668.522644,177.581528 668.292236,177.676147 
	C668.468750,179.781723 668.645264,181.887283 668.677612,184.388153 
	C668.510498,195.568893 668.513000,206.354492 668.444275,217.139633 
	C668.429688,219.427277 668.154907,221.713257 668.000000,224.000000 
	C665.958313,224.000000 663.916687,224.000000 661.845337,223.627106 
	C659.923523,222.848251 658.033875,222.104462 656.138794,222.090424 
	C642.513184,221.989532 628.886047,222.004593 615.260803,222.130585 
	C614.569580,222.136963 611.191589,220.396484 613.000000,224.000000 
z"/>
<path fill="#FEFEFE" opacity="1.000000" stroke="none" 
	d="
M797.981934,207.006317 
	C794.934631,201.282684 791.887390,195.559036 789.073792,189.290298 
	C790.696655,186.049332 788.772339,186.094559 787.028564,185.990479 
	C785.019836,182.273804 783.011047,178.557114 781.115234,174.154297 
	C781.231995,172.500504 781.235840,171.532867 781.239685,170.565216 
	C780.717712,170.995667 780.195801,171.426132 779.673828,171.856583 
	C778.429260,169.587921 777.184692,167.319260 775.939697,164.306412 
	C775.119873,161.078812 777.455078,156.702942 772.002075,156.999268 
	C769.981079,153.260193 767.960083,149.521133 766.148193,145.248810 
	C765.832397,144.171494 765.307434,143.627457 764.782471,143.083420 
	C759.162720,132.447510 753.543030,121.811592 747.925537,110.423965 
	C746.952576,108.114555 745.977478,106.556847 745.002441,104.999153 
	C735.031372,86.043785 725.028992,67.104790 715.099243,48.127796 
	C707.161987,32.958694 699.313171,17.743328 691.229370,2.026203 
	C691.022461,1.335941 691.011230,1.167971 691.000000,1.000000 
	C802.241211,1.000000 913.482422,1.000000 1025.000000,1.000000 
	C1025.000000,65.687302 1025.000000,130.374985 1024.659668,195.371078 
	C1022.325195,185.871994 1017.861755,181.706360 1009.652893,181.991714 
	C1002.088074,182.254654 997.277405,187.112289 996.226196,196.548615 
	C995.044861,207.153137 995.375549,217.479691 1006.000000,224.000000 
	C975.979126,224.000000 945.958191,224.000000 915.584473,223.648315 
	C921.767029,221.619522 924.501221,219.264435 924.781555,212.961258 
	C925.222412,203.049057 924.898682,193.102875 924.898682,183.180939 
	C922.466736,183.180939 920.290161,183.180939 917.854004,183.180939 
	C917.854004,192.549347 917.903076,201.513901 917.831604,210.477478 
	C917.799744,214.474564 916.302246,217.303757 911.635620,217.044846 
	C906.690674,216.770493 906.407959,213.014679 906.343201,209.509354 
	C906.181396,200.747650 906.289856,191.980957 906.289856,183.116943 
	C903.688049,183.116943 901.487793,183.116943 899.013245,183.116943 
	C899.013245,190.410645 899.203491,197.374084 898.962646,204.322571 
	C898.690735,212.168686 899.363098,219.460770 907.000000,224.000000 
	C887.312439,224.000000 867.624878,224.000000 847.644897,223.651978 
	C855.865356,222.484909 860.270203,218.437424 860.482239,211.239639 
	C860.686096,204.317886 857.174622,200.679291 848.750427,199.085373 
	C847.771606,198.900162 846.780273,198.768326 845.813599,198.533707 
	C842.792603,197.800430 840.490356,196.381989 841.061890,192.753845 
	C841.662170,188.943115 844.564758,187.838440 847.694275,188.417618 
	C850.639648,188.962692 853.392273,190.549683 856.479919,191.777817 
	C857.531006,190.491989 858.729370,189.026093 859.884766,187.612625 
	C855.642273,183.075729 850.906433,181.403320 844.783203,182.058136 
	C837.836914,182.800980 833.906799,186.702759 833.606079,193.154419 
	C833.288513,199.967300 836.336121,203.709641 843.478699,205.230286 
	C845.102112,205.575928 847.111511,205.347183 848.293823,206.241486 
	C850.158142,207.651550 852.460327,209.627655 852.790833,211.655258 
	C853.300354,214.781677 850.794434,217.274857 847.589783,216.838699 
	C843.707764,216.310364 839.973816,214.693939 835.335693,213.294968 
	C834.871582,213.822266 833.516113,215.362289 831.615662,217.521469 
	C835.497864,219.943481 838.748962,221.971741 842.000000,224.000000 
	C830.312439,224.000000 818.624878,224.000000 806.447632,223.697906 
	C805.628296,222.926544 805.298584,222.457245 804.968872,221.987946 
	C803.951721,219.676315 802.934509,217.364700 802.022339,214.384613 
	C802.693542,212.763199 803.259583,211.810272 803.795349,210.908401 
	C801.681824,209.489792 799.831909,208.248062 797.981934,207.006317 
M954.866699,218.324493 
	C960.874329,208.930771 960.588989,199.018600 956.129150,189.400024 
	C954.826843,186.591354 950.957764,183.913574 947.828125,183.255997 
	C942.953003,182.231628 937.704285,182.985016 932.720398,182.985016 
	C932.720398,196.443573 932.720398,209.498901 932.720398,222.995178 
	C940.319458,222.191040 948.104492,224.957794 954.866699,218.324493 
M871.276367,163.930130 
	C871.810669,162.600769 872.780334,161.280136 872.807190,159.940643 
	C872.957153,152.445740 872.879272,144.946259 872.879272,137.448349 
	C873.203491,137.416214 873.527710,137.384094 873.851990,137.351959 
	C876.977356,146.189178 880.102783,155.026413 883.156982,163.662354 
	C886.342102,163.662354 889.093872,163.662354 891.783325,163.662354 
	C891.783325,150.272400 891.783325,137.213455 891.783325,123.928940 
	C889.663269,124.029938 887.912415,124.113342 885.780273,124.214912 
	C885.780273,133.218506 885.780273,141.882568 885.780273,150.546646 
	C885.501038,150.596893 885.221802,150.647141 884.942627,150.697388 
	C881.814758,141.866608 878.686951,133.035843 875.584290,124.276070 
	C872.563416,124.276070 869.810059,124.276070 866.724365,124.276070 
	C866.724365,136.864395 866.652710,149.164078 866.880249,161.458206 
	C866.895935,162.307907 869.140991,163.116364 871.276367,163.930130 
M860.332581,137.358826 
	C857.807190,123.898430 850.410767,122.463966 834.298584,124.760635 
	C834.298584,137.669968 834.298584,150.567459 834.298584,163.880615 
	C839.315430,163.880615 844.126160,164.277222 848.840149,163.771851 
	C853.801147,163.239990 857.874573,160.348862 858.879639,155.349991 
	C860.004700,149.754410 860.005493,143.932785 860.332581,137.358826 
M899.314331,152.692520 
	C898.402771,156.305557 897.491150,159.918594 896.519470,163.769638 
	C899.314087,163.769638 901.425842,163.769638 903.662354,163.769638 
	C904.611572,160.472076 905.515747,157.331085 906.431091,154.151138 
	C910.273926,154.151138 913.873169,154.151138 917.383240,154.151138 
	C920.503113,164.407333 920.503113,164.407333 927.841309,163.551926 
	C924.300476,150.398849 920.772278,137.292526 917.263855,124.259781 
	C913.618164,124.259781 910.369934,124.259781 906.973389,124.259781 
	C904.463318,133.630234 902.013733,142.775040 899.314331,152.692520 
M981.215027,209.371582 
	C981.215027,202.576904 981.215027,195.782227 981.215027,188.747696 
	C984.200928,188.553223 986.799561,188.383957 989.615662,188.200531 
	C989.615662,186.421921 989.615662,184.853561 989.615662,183.046585 
	C981.584106,183.046585 973.696472,183.046585 965.693970,183.046585 
	C965.693970,184.894974 965.693970,186.458679 965.693970,188.297729 
	C968.508850,188.424728 971.073547,188.540436 973.570679,188.653107 
	C973.570679,198.348785 973.570679,207.565918 973.570679,217.090912 
	C970.756775,217.090912 968.313660,217.090912 965.753479,217.090912 
	C965.753479,219.131470 965.753479,220.849045 965.753479,222.603790 
	C973.859802,222.603790 981.612793,222.603790 989.538818,222.603790 
	C989.538818,220.641174 989.538818,218.938736 989.538818,217.104065 
	C986.646179,216.958221 984.075989,216.828629 981.214722,216.684357 
	C981.214722,214.274445 981.214722,212.303467 981.215027,209.371582 
M882.962830,211.474014 
	C882.962830,204.048096 882.962830,196.622177 882.962830,188.728119 
	C887.233643,188.728119 890.799133,188.728119 894.658081,188.728119 
	C894.546021,186.483612 894.459229,184.745499 894.377075,183.100174 
	C884.091125,183.100174 874.333679,183.100174 864.467285,183.100174 
	C864.467285,185.162369 864.467285,186.898438 864.467285,189.156219 
	C868.303345,189.156219 871.872131,189.156219 875.866943,189.156219 
	C875.866943,200.592834 875.866943,211.509369 875.866943,222.593155 
	C878.396973,222.593155 880.465881,222.593155 882.962830,222.593155 
	C882.962830,219.052811 882.962830,215.758087 882.962830,211.474014 
z"/>
<path fill="#FAFAFA" opacity="1.000000" stroke="none" 
	d="
M1.000000,222.500000 
	C65.158882,222.011215 129.317856,221.984894 193.476410,222.136200 
	C196.956100,222.144394 198.385849,220.752808 199.800934,218.012970 
	C216.055756,186.540695 232.401535,155.115387 248.730560,123.681442 
	C249.401657,122.389549 250.146149,121.135780 251.202423,119.244919 
	C256.603485,129.588715 261.727936,139.357178 266.811127,149.147049 
	C278.691711,172.028061 290.605377,194.892227 302.356720,217.839493 
	C303.890289,220.834137 305.482208,222.177170 309.086792,222.129471 
	C326.581635,221.898132 344.081207,222.027695 361.579102,222.012100 
	C363.032562,222.010803 364.485931,221.880539 366.185852,221.798248 
	C366.185852,206.934555 366.185852,192.350922 366.185852,176.472549 
	C367.491333,178.465134 368.228699,179.414078 368.780945,180.460709 
	C374.602142,191.492722 380.351807,202.562729 386.217163,213.571106 
	C388.181610,217.258072 389.445770,221.551315 393.398315,223.715729 
	C263.830994,224.000000 134.661957,224.003372 5.492958,223.958542 
	C3.995195,223.958023 2.497648,223.333328 1.000000,222.500000 
z"/>
<path fill="#FDFDFD" opacity="1.000000" stroke="none" 
	d="
M607.531372,0.999996 
	C589.927185,35.238327 571.854370,69.476662 553.318604,104.591980 
	C535.440430,70.211731 517.874695,36.432304 500.148621,2.090440 
	C499.992157,1.352003 499.996063,1.176001 500.000000,1.000000 
	C535.687561,1.000000 571.375122,1.000000 607.531372,0.999996 
z"/>
<path fill="#FDFDFD" opacity="1.000000" stroke="none" 
	d="
M304.260101,2.249901 
	C286.692047,36.116375 269.123993,69.982849 251.127960,104.674332 
	C233.235565,70.195038 215.728821,36.458885 198.073181,2.136691 
	C197.949524,1.367101 197.974762,1.183550 198.000000,1.000000 
	C233.020889,1.000000 268.041779,1.000000 303.605408,1.310594 
	C304.185486,1.830760 304.222809,2.040330 304.260101,2.249901 
z"/>
<path fill="#FFFFFF" opacity="1.000000" stroke="none" 
	d="
M510.533966,201.835754 
	C510.895752,201.045242 511.257568,200.254745 512.198669,199.229370 
	C513.144226,197.900589 513.510498,196.806686 513.876709,195.712769 
	C515.856873,191.662720 517.837036,187.612671 520.415222,183.280655 
	C524.492249,182.630814 523.874939,180.641891 522.803955,178.473450 
	C523.080139,177.774551 523.356323,177.075653 524.165527,176.217957 
	C525.657166,175.906265 526.615784,175.753357 527.574341,175.600433 
	C526.941589,174.694092 526.308838,173.787750 525.676147,172.881409 
	C527.546997,169.049545 529.417786,165.217682 531.947754,161.185883 
	C536.094604,159.000656 536.892334,156.981110 534.974243,154.992477 
	C535.840881,153.147751 536.707458,151.303024 538.232544,149.232727 
	C540.457825,148.242859 542.888550,147.815582 543.354431,146.621658 
	C543.843018,145.369446 542.447205,143.381943 541.874939,141.715790 
	C542.693787,139.921707 543.512573,138.127625 544.923279,136.174271 
	C546.519165,135.903641 547.523254,135.792297 548.527283,135.680939 
	C548.005371,134.423965 547.483398,133.167007 546.961487,131.910034 
	C548.663452,128.403259 550.365417,124.896477 552.686829,121.190865 
	C553.548340,120.994362 553.790466,120.996681 554.032654,120.999008 
	C554.691101,122.106644 555.349487,123.214279 555.796631,124.820335 
	C556.091614,125.866302 556.597839,126.413841 557.104004,126.961380 
	C560.719299,133.737640 564.334595,140.513901 567.635864,147.697174 
	C567.232788,148.984848 567.143616,149.865509 567.054504,150.746155 
	C567.734009,150.517700 568.413513,150.289246 569.093018,150.060791 
	C570.637146,152.808655 572.181335,155.556519 573.435791,158.717072 
	C572.026917,160.311371 570.907715,161.492981 569.788513,162.674606 
	C570.146118,163.181824 570.503662,163.689041 570.861267,164.196259 
	C572.328918,163.445084 573.796570,162.693909 575.264221,161.942719 
	C575.407593,162.641235 575.550964,163.339752 575.428894,164.410172 
	C575.266907,164.862854 575.370361,164.943634 575.473816,165.024414 
	C575.320312,164.780441 575.166870,164.536484 575.013367,164.292511 
	C576.112366,165.293228 577.211365,166.293945 578.296082,168.083435 
	C578.845886,169.584396 579.409973,170.296570 579.974121,171.008728 
	C581.666504,174.088181 583.358826,177.167618 584.721924,180.620178 
	C583.785339,181.363815 583.178040,181.734329 582.570740,182.104874 
	C583.754150,182.388184 584.937500,182.671478 586.120911,182.954773 
	C588.836487,187.988617 591.552002,193.022461 594.003906,198.502106 
	C593.360168,199.201950 592.964600,199.438324 592.623535,199.736862 
	C592.588623,199.767365 592.879700,200.170258 593.019470,200.400360 
	C593.482239,199.856812 593.945068,199.313263 594.407837,198.769730 
	C595.404175,200.538971 596.400513,202.308212 597.161743,204.608429 
	C594.603088,209.016388 597.535156,209.372971 600.145569,209.945038 
	C602.971252,214.248291 605.796936,218.551544 608.064148,223.136124 
	C607.003784,223.611633 606.501892,223.805817 606.000000,224.000000 
	C565.645752,224.000000 525.291565,224.000000 484.468658,224.000000 
	C484.410309,223.347717 484.797272,222.148087 485.234558,222.129440 
	C488.855560,221.975143 492.500885,221.835648 496.108643,222.101318 
	C499.037964,222.317047 500.552063,221.211426 501.739014,218.596725 
	C503.775146,214.111404 506.193512,209.799622 509.101685,205.200562 
	C512.332092,204.511826 512.638794,203.473129 510.533966,201.835754 
M535.704102,165.567902 
	C535.990173,165.294891 536.276245,165.021866 536.562378,164.748840 
	C536.449219,164.630554 536.243896,164.403152 536.236145,164.409729 
	C535.934448,164.664490 535.650757,164.940659 535.704102,165.567902 
M549.517334,131.409760 
	C549.517334,131.409760 549.585022,131.522690 549.517334,131.409760 
z"/>
<path fill="#0D0D0D" opacity="1.000000" stroke="none" 
	d="
M1006.416626,224.000000 
	C995.375549,217.479691 995.044861,207.153137 996.226196,196.548615 
	C997.277405,187.112289 1002.088074,182.254654 1009.652893,181.991714 
	C1017.861755,181.706360 1022.325195,185.871994 1024.659668,195.839737 
	C1025.000000,200.689255 1025.000000,205.378510 1024.653564,210.631821 
	C1022.587646,218.286819 1018.096863,222.497665 1011.000000,224.000000 
	C1009.611084,224.000000 1008.222229,224.000000 1006.416626,224.000000 
M1003.778931,209.107956 
	C1004.289429,213.369293 1005.414856,217.162430 1010.797119,217.005051 
	C1014.653503,216.892273 1016.835144,213.824966 1016.968811,208.209915 
	C1017.071716,203.884033 1017.106506,199.533524 1016.761047,195.226898 
	C1016.458130,191.450653 1014.699707,188.309448 1010.355164,188.307281 
	C1006.017639,188.305130 1004.237122,191.349472 1003.978577,195.208298 
	C1003.689575,199.521927 1003.780518,203.860992 1003.778931,209.107956 
z"/>
<path fill="#0C0C0C" opacity="1.000000" stroke="none" 
	d="
M842.416626,224.000000 
	C838.748962,221.971741 835.497864,219.943481 831.615662,217.521469 
	C833.516113,215.362289 834.871582,213.822266 835.335693,213.294968 
	C839.973816,214.693939 843.707764,216.310364 847.589783,216.838699 
	C850.794434,217.274857 853.300354,214.781677 852.790833,211.655258 
	C852.460327,209.627655 850.158142,207.651550 848.293823,206.241486 
	C847.111511,205.347183 845.102112,205.575928 843.478699,205.230286 
	C836.336121,203.709641 833.288513,199.967300 833.606079,193.154419 
	C833.906799,186.702759 837.836914,182.800980 844.783203,182.058136 
	C850.906433,181.403320 855.642273,183.075729 859.884766,187.612625 
	C858.729370,189.026093 857.531006,190.491989 856.479919,191.777817 
	C853.392273,190.549683 850.639648,188.962692 847.694275,188.417618 
	C844.564758,187.838440 841.662170,188.943115 841.061890,192.753845 
	C840.490356,196.381989 842.792603,197.800430 845.813599,198.533707 
	C846.780273,198.768326 847.771606,198.900162 848.750427,199.085373 
	C857.174622,200.679291 860.686096,204.317886 860.482239,211.239639 
	C860.270203,218.437424 855.865356,222.484909 847.176270,223.651978 
	C845.611084,224.000000 844.222229,224.000000 842.416626,224.000000 
z"/>
<path fill="#070707" opacity="1.000000" stroke="none" 
	d="
M907.444153,224.000000 
	C899.363098,219.460770 898.690735,212.168686 898.962646,204.322571 
	C899.203491,197.374084 899.013245,190.410645 899.013245,183.116943 
	C901.487793,183.116943 903.688049,183.116943 906.289856,183.116943 
	C906.289856,191.980957 906.181396,200.747650 906.343201,209.509354 
	C906.407959,213.014679 906.690674,216.770493 911.635620,217.044846 
	C916.302246,217.303757 917.799744,214.474564 917.831604,210.477478 
	C917.903076,201.513901 917.854004,192.549347 917.854004,183.180939 
	C920.290161,183.180939 922.466736,183.180939 924.898682,183.180939 
	C924.898682,193.102875 925.222412,203.049057 924.781555,212.961258 
	C924.501221,219.264435 921.767029,221.619522 915.115784,223.648315 
	C912.629456,224.000000 910.258850,224.000000 907.444153,224.000000 
z"/>
<path fill="#F9F9F9" opacity="1.000000" stroke="none" 
	d="
M438.189423,2.188199 
	C438.189423,16.762877 438.189423,31.337553 438.189423,45.912231 
	C437.866028,46.021221 437.542633,46.130211 437.219238,46.239201 
	C429.597809,31.700462 421.976379,17.161726 414.171265,2.074203 
	C413.991730,1.350279 413.995850,1.175140 414.000000,1.000000 
	C421.687592,1.000000 429.375153,1.000000 437.549377,1.301732 
	C438.087128,1.798375 438.138275,1.993287 438.189423,2.188199 
z"/>
<path fill="#FFFFFF" opacity="1.000000" stroke="none" 
	d="
M689.275574,215.893982 
	C689.563477,216.285019 689.851379,216.676071 690.102539,217.745483 
	C690.830200,219.509720 691.594666,220.595596 692.359131,221.681488 
	C692.359131,221.681503 692.093750,221.917694 692.117126,222.169250 
	C692.093689,222.947205 692.046875,223.473602 692.000000,224.000000 
	C684.312439,224.000000 676.624817,224.000000 668.468628,224.000000 
	C668.154907,221.713257 668.429688,219.427277 668.444275,217.139633 
	C668.513000,206.354492 668.510498,195.568893 669.041565,184.416901 
	C670.714783,184.361511 671.879883,184.672653 673.044983,184.983795 
	C674.404907,187.424622 675.764893,189.865433 676.874084,192.682785 
	C676.200562,194.120621 675.777893,195.181915 675.355164,196.243225 
	C676.611694,196.404144 677.868225,196.565079 679.124756,196.725998 
	C682.120483,202.224915 685.116150,207.723846 687.819336,213.628479 
	C687.017029,214.688766 686.507324,215.343338 685.858643,216.052368 
	C685.813965,216.072144 685.908203,216.037476 686.411987,216.000687 
	C687.639526,215.963699 688.457520,215.928833 689.275574,215.893982 
z"/>
<path fill="#969696" opacity="1.000000" stroke="none" 
	d="
M197.531342,1.000000 
	C197.974762,1.183550 197.949524,1.367101 197.914520,1.828395 
	C132.582275,2.070982 67.259796,2.035824 1.468657,2.000333 
	C2.329643,1.666667 3.659069,1.042710 4.988960,1.041718 
	C69.013504,0.993963 133.038101,1.000000 197.531342,1.000000 
z"/>
<path fill="#FFFFFF" opacity="1.000000" stroke="none" 
	d="
M728.468628,224.000000 
	C728.588074,223.345871 729.164429,222.135818 729.766174,222.123062 
	C736.248352,221.985596 742.734619,222.036484 749.219727,222.036377 
	C762.023682,222.036194 774.827820,221.998962 787.631165,222.089813 
	C789.028687,222.099747 790.420959,222.848267 791.407837,223.627106 
	C770.312439,224.000000 749.624878,224.000000 728.468628,224.000000 
z"/>
<path fill="#969696" opacity="1.000000" stroke="none" 
	d="
M413.531342,1.000000 
	C413.995850,1.175140 413.991730,1.350279 413.973175,1.787804 
	C377.692108,2.080353 341.425537,2.110518 304.709534,2.195292 
	C304.222809,2.040330 304.185486,1.830760 304.074066,1.310594 
	C340.354218,1.000000 376.708466,1.000000 413.531342,1.000000 
z"/>
<path fill="#FFFFFF" opacity="1.000000" stroke="none" 
	d="
M613.468628,224.000000 
	C611.191589,220.396484 614.569580,222.136963 615.260803,222.130585 
	C628.886047,222.004593 642.513184,221.989532 656.138794,222.090424 
	C658.033875,222.104462 659.923523,222.848251 661.407837,223.627106 
	C645.312439,224.000000 629.624878,224.000000 613.468628,224.000000 
z"/>
<path fill="#646464" opacity="1.000000" stroke="none" 
	d="
M690.531372,1.000000 
	C691.011230,1.167971 691.022461,1.335941 691.011963,1.755494 
	C668.818604,1.908803 646.646973,1.810529 624.237671,1.356128 
	C646.020874,1.000000 668.041809,1.000000 690.531372,1.000000 
z"/>
<path fill="#969696" opacity="1.000000" stroke="none" 
	d="
M438.644653,2.148937 
	C438.138275,1.993287 438.087128,1.798375 438.018005,1.301732 
	C458.354218,1.000000 478.708466,1.000000 499.531342,1.000000 
	C499.996063,1.176001 499.992157,1.352003 499.970673,1.791486 
	C479.668701,2.073204 459.384308,2.091440 438.644653,2.148937 
z"/>
<path fill="#F0F0F0" opacity="1.000000" stroke="none" 
	d="
M1011.474121,224.000000 
	C1018.096863,222.497665 1022.587646,218.286819 1024.653564,211.097931 
	C1025.000000,215.260040 1025.000000,219.520065 1025.000000,224.000000 
	C1020.650940,224.000000 1016.299622,224.000000 1011.474121,224.000000 
z"/>
<path fill="#FAFAFA" opacity="1.000000" stroke="none" 
	d="
M692.416626,224.000000 
	C692.046875,223.473602 692.093689,222.947205 692.233765,222.035278 
	C694.152527,222.227051 695.978088,222.804352 697.401794,223.690826 
	C695.611084,224.000000 694.222229,224.000000 692.416626,224.000000 
z"/>
<path fill="#FAFAFA" opacity="1.000000" stroke="none" 
	d="
M804.514404,221.997559 
	C805.298584,222.457245 805.628296,222.926544 805.979004,223.697906 
	C804.933289,224.000000 803.866638,224.000000 802.399963,224.000000 
	C800.176086,220.740738 803.294067,222.589600 804.514404,221.997559 
z"/>
<path fill="#FAFAFA" opacity="1.000000" stroke="none" 
	d="
M606.250000,224.000000 
	C606.501892,223.805817 607.003784,223.611633 607.892212,223.599304 
	C608.278748,223.781143 608.223145,223.846832 607.890381,223.712326 
	C607.371643,223.718552 607.185791,223.859268 607.000000,224.000000 
	C607.000000,224.000000 606.500000,224.000000 606.250000,224.000000 
z"/>
<path fill="#FFFFFF" opacity="1.000000" stroke="none" 
	d="
M607.250000,224.000000 
	C607.185791,223.859268 607.371643,223.718552 607.864319,223.746582 
	C608.171082,223.915344 608.071838,223.998993 608.035889,223.999496 
	C608.000000,224.000000 607.500000,224.000000 607.250000,224.000000 
z"/>
<path fill="#FAFAFA" opacity="1.000000" stroke="none" 
	d="
M541.592407,141.920273 
	C542.447205,143.381943 543.843018,145.369446 543.354431,146.621658 
	C542.888550,147.815582 540.457825,148.242859 538.488281,149.004837 
	C539.160400,146.709915 540.235107,144.417343 541.592407,141.920273 
z"/>
<path fill="#FAFAFA" opacity="1.000000" stroke="none" 
	d="
M673.007629,184.623779 
	C671.879883,184.672653 670.714783,184.361511 669.185730,184.021606 
	C668.645264,181.887283 668.468750,179.781723 668.292236,177.676147 
	C668.522644,177.581528 668.753052,177.486893 668.983459,177.392273 
	C670.312439,179.682770 671.641357,181.973267 673.007629,184.623779 
z"/>
<path fill="#FAFAFA" opacity="1.000000" stroke="none" 
	d="
M798.007324,207.359955 
	C799.831909,208.248062 801.681824,209.489792 803.795349,210.908401 
	C803.259583,211.810272 802.693542,212.763199 801.983032,214.044769 
	C800.570007,212.153458 799.301392,209.933533 798.007324,207.359955 
z"/>
<path fill="#FAFAFA" opacity="1.000000" stroke="none" 
	d="
M575.222656,161.609467 
	C573.796570,162.693909 572.328918,163.445084 570.861267,164.196259 
	C570.503662,163.689041 570.146118,163.181824 569.788513,162.674606 
	C570.907715,161.492981 572.026917,160.311371 573.479980,159.064087 
	C574.269592,159.757675 574.725342,160.516937 575.222656,161.609467 
z"/>
<path fill="#FAFAFA" opacity="1.000000" stroke="none" 
	d="
M772.030884,157.352234 
	C777.455078,156.702942 775.119873,161.078812 775.902527,163.966522 
	C774.597046,162.148941 773.328369,159.927063 772.030884,157.352234 
z"/>
<path fill="#FAFAFA" opacity="1.000000" stroke="none" 
	d="
M534.695374,155.187683 
	C536.892334,156.981110 536.094604,159.000656 532.229431,160.989838 
	C532.706848,159.123444 533.561707,157.253159 534.695374,155.187683 
z"/>
<path fill="#FAFAFA" opacity="1.000000" stroke="none" 
	d="
M679.118408,196.419678 
	C677.868225,196.565079 676.611694,196.404144 675.355164,196.243225 
	C675.777893,195.181915 676.200562,194.120621 676.957397,193.036377 
	C677.898315,194.046738 678.505127,195.080048 679.118408,196.419678 
z"/>
<path fill="#FAFAFA" opacity="1.000000" stroke="none" 
	d="
M600.122986,209.616455 
	C597.535156,209.372971 594.603088,209.016388 597.278564,204.970108 
	C598.453796,206.296478 599.277100,207.792160 600.122986,209.616455 
z"/>
<path fill="#FAFAFA" opacity="1.000000" stroke="none" 
	d="
M546.690552,132.105316 
	C547.483398,133.167007 548.005371,134.423965 548.527283,135.680939 
	C547.523254,135.792297 546.519165,135.903641 545.191650,135.982574 
	C545.385315,134.733627 545.902405,133.517120 546.690552,132.105316 
z"/>
<path fill="#FAFAFA" opacity="1.000000" stroke="none" 
	d="
M525.423950,173.051941 
	C526.308838,173.787750 526.941589,174.694092 527.574341,175.600433 
	C526.615784,175.753357 525.657166,175.906265 524.384155,176.030701 
	C524.437073,175.075638 524.804382,174.149063 525.423950,173.051941 
z"/>
<path fill="#FAFAFA" opacity="1.000000" stroke="none" 
	d="
M745.023560,105.348709 
	C745.977478,106.556847 746.952576,108.114555 747.886597,110.086975 
	C746.911926,108.900551 745.978271,107.299423 745.023560,105.348709 
z"/>
<path fill="#FAFAFA" opacity="1.000000" stroke="none" 
	d="
M522.530884,178.666901 
	C523.874939,180.641891 524.492249,182.630814 520.660156,183.004883 
	C520.957336,181.627487 521.607605,180.243927 522.530884,178.666901 
z"/>
<path fill="#FAFAFA" opacity="1.000000" stroke="none" 
	d="
M569.169922,149.955475 
	C568.413513,150.289246 567.734009,150.517700 567.054504,150.746155 
	C567.143616,149.865509 567.232788,148.984848 567.665894,148.050659 
	C568.422180,148.614792 568.834473,149.232468 569.169922,149.955475 
z"/>
<path fill="#FAFAFA" opacity="1.000000" stroke="none" 
	d="
M510.309814,202.037582 
	C512.638794,203.473129 512.332092,204.511826 509.377563,204.993637 
	C509.364075,204.080551 509.724884,203.159988 510.309814,202.037582 
z"/>
<path fill="#FAFAFA" opacity="1.000000" stroke="none" 
	d="
M586.115845,182.656570 
	C584.937500,182.671478 583.754150,182.388184 582.570740,182.104874 
	C583.178040,181.734329 583.785339,181.363815 584.752930,180.979218 
	C585.445679,181.429565 585.778198,181.893967 586.115845,182.656570 
z"/>
<path fill="#FAFAFA" opacity="1.000000" stroke="none" 
	d="
M787.028625,186.300171 
	C788.772339,186.094559 790.696655,186.049332 789.007019,188.935211 
	C788.147339,188.286758 787.588013,187.448318 787.028625,186.300171 
z"/>
<path fill="#FAFAFA" opacity="1.000000" stroke="none" 
	d="
M513.601929,195.886902 
	C513.510498,196.806686 513.144226,197.900589 512.432739,198.998505 
	C512.500671,198.022003 512.913940,197.041504 513.601929,195.886902 
z"/>
<path fill="#FAFAFA" opacity="1.000000" stroke="none" 
	d="
M692.300598,221.346130 
	C691.594666,220.595596 690.830200,219.509720 690.106445,218.000458 
	C690.845459,218.721634 691.543762,219.866196 692.300598,221.346130 
z"/>
<path fill="#FAFAFA" opacity="1.000000" stroke="none" 
	d="
M779.711243,172.125961 
	C780.195801,171.426132 780.717712,170.995667 781.239685,170.565216 
	C781.235840,171.532867 781.231995,172.500504 781.081543,173.803650 
	C780.539551,173.557877 780.144104,172.976608 779.711243,172.125961 
z"/>
<path fill="#FAFAFA" opacity="1.000000" stroke="none" 
	d="
M685.997559,215.997910 
	C686.507324,215.343338 687.017029,214.688766 687.866272,213.983414 
	C688.544128,214.389954 688.882507,214.847244 689.248230,215.599258 
	C688.457520,215.928833 687.639526,215.963699 686.410767,215.999283 
	C686.000000,216.000000 685.997559,215.997910 685.997559,215.997910 
z"/>
<path fill="#FAFAFA" opacity="1.000000" stroke="none" 
	d="
M764.800293,143.385696 
	C765.307434,143.627457 765.832397,144.171494 766.103882,144.888733 
	C765.506348,144.603958 765.162170,144.145966 764.800293,143.385696 
z"/>
<path fill="#FAFAFA" opacity="1.000000" stroke="none" 
	d="
M579.959106,170.678009 
	C579.409973,170.296570 578.845886,169.584396 578.421021,168.493835 
	C579.021545,168.859406 579.482788,169.603348 579.959106,170.678009 
z"/>
<path fill="#FAFAFA" opacity="1.000000" stroke="none" 
	d="
M594.400940,198.801117 
	C593.945068,199.313263 593.482239,199.856812 593.019470,200.400360 
	C592.879700,200.170258 592.588623,199.767365 592.623535,199.736862 
	C592.964600,199.438324 593.360168,199.201950 594.082275,198.856735 
	C594.424377,198.765594 594.394043,198.832520 594.400940,198.801117 
z"/>
<path fill="#FAFAFA" opacity="1.000000" stroke="none" 
	d="
M557.096313,126.661133 
	C556.597839,126.413841 556.091614,125.866302 555.825439,125.146408 
	C556.406494,125.436340 556.747559,125.898621 557.096313,126.661133 
z"/>
<path fill="#FAFAFA" opacity="1.000000" stroke="none" 
	d="
M574.993164,164.312988 
	C575.166870,164.536484 575.320312,164.780441 575.473816,165.024414 
	C575.370361,164.943634 575.266907,164.862854 575.043823,164.541397 
	C574.924255,164.300720 574.972900,164.333450 574.993164,164.312988 
z"/>
<path fill="#FAFAFA" opacity="1.000000" stroke="none" 
	d="
M553.985107,120.657806 
	C553.790466,120.996681 553.548340,120.994362 552.942627,120.968292 
	C553.031860,120.735229 553.484741,120.525917 553.985107,120.657806 
z"/>
<path fill="#141414" opacity="1.000000" stroke="none" 
	d="
M954.611328,218.594772 
	C948.104492,224.957794 940.319458,222.191040 932.720398,222.995178 
	C932.720398,209.498901 932.720398,196.443573 932.720398,182.985016 
	C937.704285,182.985016 942.953003,182.231628 947.828125,183.255997 
	C950.957764,183.913574 954.826843,186.591354 956.129150,189.400024 
	C960.588989,199.018600 960.874329,208.930771 954.611328,218.594772 
M951.049500,209.910294 
	C951.133789,205.944336 951.392395,201.972778 951.264893,198.013641 
	C951.021179,190.444138 947.647705,187.997757 940.043701,189.608246 
	C940.043701,198.477203 940.043701,207.346161 940.043701,216.199493 
	C945.082275,216.805023 949.379700,216.497742 951.049500,209.910294 
z"/>
<path fill="#090909" opacity="1.000000" stroke="none" 
	d="
M870.812805,163.937057 
	C869.140991,163.116364 866.895935,162.307907 866.880249,161.458206 
	C866.652710,149.164078 866.724365,136.864395 866.724365,124.276070 
	C869.810059,124.276070 872.563416,124.276070 875.584290,124.276070 
	C878.686951,133.035843 881.814758,141.866608 884.942627,150.697388 
	C885.221802,150.647141 885.501038,150.596893 885.780273,150.546646 
	C885.780273,141.882568 885.780273,133.218506 885.780273,124.214912 
	C887.912415,124.113342 889.663269,124.029938 891.783325,123.928940 
	C891.783325,137.213455 891.783325,150.272400 891.783325,163.662354 
	C889.093872,163.662354 886.342102,163.662354 883.156982,163.662354 
	C880.102783,155.026413 876.977356,146.189178 873.851990,137.351959 
	C873.527710,137.384094 873.203491,137.416214 872.879272,137.448349 
	C872.879272,144.946259 872.957153,152.445740 872.807190,159.940643 
	C872.780334,161.280136 871.810669,162.600769 870.812805,163.937057 
z"/>
<path fill="#0C0C0C" opacity="1.000000" stroke="none" 
	d="
M860.414062,137.784180 
	C860.005493,143.932785 860.004700,149.754410 858.879639,155.349991 
	C857.874573,160.348862 853.801147,163.239990 848.840149,163.771851 
	C844.126160,164.277222 839.315430,163.880615 834.298584,163.880615 
	C834.298584,150.567459 834.298584,137.669968 834.298584,124.760635 
	C850.410767,122.463966 857.807190,123.898430 860.414062,137.784180 
M850.508667,156.063354 
	C854.714233,150.999756 852.992310,144.961288 853.016541,139.318054 
	C853.049744,131.591415 849.023682,128.883301 841.462891,130.894669 
	C841.462891,139.784454 841.462891,148.661697 841.462891,158.340332 
	C844.551880,157.691132 847.215393,157.131363 850.508667,156.063354 
z"/>
<path fill="#0C0C0C" opacity="1.000000" stroke="none" 
	d="
M899.439209,152.306183 
	C902.013733,142.775040 904.463318,133.630234 906.973389,124.259781 
	C910.369934,124.259781 913.618164,124.259781 917.263855,124.259781 
	C920.772278,137.292526 924.300476,150.398849 927.841309,163.551926 
	C920.503113,164.407333 920.503113,164.407333 917.383240,154.151138 
	C913.873169,154.151138 910.273926,154.151138 906.431091,154.151138 
	C905.515747,157.331085 904.611572,160.472076 903.662354,163.769638 
	C901.425842,163.769638 899.314087,163.769638 896.519470,163.769638 
	C897.491150,159.918594 898.402771,156.305557 899.439209,152.306183 
M912.915833,134.138596 
	C912.336670,133.905319 911.757507,133.672043 911.178345,133.438782 
	C910.050964,138.012695 908.923645,142.586609 907.777161,147.238266 
	C910.862427,147.238266 913.355774,147.238266 915.697327,147.238266 
	C915.869324,146.655609 915.985046,146.482651 915.950928,146.347580 
	C914.982544,142.517685 913.999084,138.691589 912.915833,134.138596 
z"/>
<path fill="#0A0A0A" opacity="1.000000" stroke="none" 
	d="
M981.214844,209.852036 
	C981.214722,212.303467 981.214722,214.274445 981.214722,216.684357 
	C984.075989,216.828629 986.646179,216.958221 989.538818,217.104065 
	C989.538818,218.938736 989.538818,220.641174 989.538818,222.603790 
	C981.612793,222.603790 973.859802,222.603790 965.753479,222.603790 
	C965.753479,220.849045 965.753479,219.131470 965.753479,217.090912 
	C968.313660,217.090912 970.756775,217.090912 973.570679,217.090912 
	C973.570679,207.565918 973.570679,198.348785 973.570679,188.653107 
	C971.073547,188.540436 968.508850,188.424728 965.693970,188.297729 
	C965.693970,186.458679 965.693970,184.894974 965.693970,183.046585 
	C973.696472,183.046585 981.584106,183.046585 989.615662,183.046585 
	C989.615662,184.853561 989.615662,186.421921 989.615662,188.200531 
	C986.799561,188.383957 984.200928,188.553223 981.215027,188.747696 
	C981.215027,195.782227 981.215027,202.576904 981.214844,209.852036 
z"/>
<path fill="#080808" opacity="1.000000" stroke="none" 
	d="
M882.962830,211.968689 
	C882.962830,215.758087 882.962830,219.052811 882.962830,222.593155 
	C880.465881,222.593155 878.396973,222.593155 875.866943,222.593155 
	C875.866943,211.509369 875.866943,200.592834 875.866943,189.156219 
	C871.872131,189.156219 868.303345,189.156219 864.467285,189.156219 
	C864.467285,186.898438 864.467285,185.162369 864.467285,183.100174 
	C874.333679,183.100174 884.091125,183.100174 894.377075,183.100174 
	C894.459229,184.745499 894.546021,186.483612 894.658081,188.728119 
	C890.799133,188.728119 887.233643,188.728119 882.962830,188.728119 
	C882.962830,196.622177 882.962830,204.048096 882.962830,211.968689 
z"/>
<path fill="#FAFAFA" opacity="1.000000" stroke="none" 
	d="
M535.534424,165.390945 
	C535.650757,164.940659 535.934448,164.664490 536.236145,164.409729 
	C536.243896,164.403152 536.449219,164.630554 536.562378,164.748840 
	C536.276245,165.021866 535.990173,165.294891 535.534424,165.390945 
z"/>
<path fill="#FAFAFA" opacity="1.000000" stroke="none" 
	d="
M549.551147,131.466217 
	C549.585022,131.522690 549.517334,131.409760 549.551147,131.466217 
z"/>
<path fill="#F7F7F7" opacity="1.000000" stroke="none" 
	d="
M1003.742493,208.648468 
	C1003.780518,203.860992 1003.689575,199.521927 1003.978577,195.208298 
	C1004.237122,191.349472 1006.017639,188.305130 1010.355164,188.307281 
	C1014.699707,188.309448 1016.458130,191.450653 1016.761047,195.226898 
	C1017.106506,199.533524 1017.071716,203.884033 1016.968811,208.209915 
	C1016.835144,213.824966 1014.653503,216.892273 1010.797119,217.005051 
	C1005.414856,217.162430 1004.289429,213.369293 1003.742493,208.648468 
z"/>
<path fill="#FAFAFA" opacity="1.000000" stroke="none" 
	d="
M686.001221,216.001404 
	C685.908203,216.037476 685.813965,216.072144 685.858643,216.052368 
	C685.997559,215.997910 686.000000,216.000000 686.001221,216.001404 
z"/>
<path fill="#FBFBFB" opacity="1.000000" stroke="none" 
	d="
M950.970886,210.342331 
	C949.379700,216.497742 945.082275,216.805023 940.043701,216.199493 
	C940.043701,207.346161 940.043701,198.477203 940.039917,189.606812 
	C947.647705,187.997757 951.021179,190.444138 951.264893,198.013641 
	C951.392395,201.972778 951.133789,205.944336 950.970886,210.342331 
z"/>
<path fill="#F2F2F2" opacity="1.000000" stroke="none" 
	d="
M850.193726,156.317474 
	C847.215393,157.131363 844.551880,157.691132 841.462891,158.340332 
	C841.462891,148.661697 841.462891,139.784454 841.462891,130.894669 
	C849.023682,128.883301 853.049744,131.591415 853.016541,139.318054 
	C852.992310,144.961288 854.714233,150.999756 850.193726,156.317474 
z"/>
<path fill="#E0E0E0" opacity="1.000000" stroke="none" 
	d="
M912.966919,134.501740 
	C913.999084,138.691589 914.982544,142.517685 915.950928,146.347580 
	C915.985046,146.482651 915.869324,146.655609 915.697327,147.238266 
	C913.355774,147.238266 910.862427,147.238266 907.777161,147.238266 
	C908.923645,142.586609 910.050964,138.012695 911.178345,133.438782 
	C911.757507,133.672043 912.336670,133.905319 912.966919,134.501740 
z"/>
</svg>