<svg version="1.1" id="Layer_1" xmlns="http://www.w3.org/2000/svg" xmlns:xlink="http://www.w3.org/1999/xlink" x="0px" y="0px"
	 width="100%" viewBox="0 0 1280 720" enable-background="new 0 0 1280 720" xml:space="preserve">
<path fill="#010000" opacity="1.000000" stroke="none" 
	d="
M868.000000,721.000000 
	C578.702759,721.000000 289.905457,721.000000 1.054101,721.000000 
	C1.054101,481.066040 1.054101,241.132080 1.054101,1.099055 
	C427.547333,1.099055 854.094727,1.099055 1280.821045,1.099055 
	C1280.821045,240.999893 1280.821045,480.999939 1280.821045,721.000000 
	C1143.465210,721.000000 1005.982605,721.000000 868.000000,721.000000 
M511.258789,492.207520 
	C509.521942,494.968384 508.416138,497.565308 513.864807,498.897430 
	C518.945740,498.694519 524.026733,498.491577 529.712830,497.971924 
	C529.746277,497.538635 529.779785,497.105377 529.949646,496.086731 
	C529.885437,495.494171 529.821228,494.901642 529.915771,493.618622 
	C528.312256,492.791962 526.708740,491.965302 524.165588,490.654205 
	C524.165588,481.008118 524.165588,470.461792 524.165588,459.751099 
	C519.046875,459.751099 514.673523,459.751099 510.454041,459.751099 
	C508.859192,464.855042 510.694122,467.075806 516.299438,466.776337 
	C516.299438,474.743805 516.299438,482.367340 516.012939,490.919434 
	C515.942505,491.235565 515.872070,491.551727 515.869751,491.839233 
	C515.869751,491.839233 515.907288,491.755188 514.943481,491.933258 
	C513.971436,492.049011 512.999390,492.164795 511.258789,492.207520 
M705.874390,413.893921 
	C711.587585,413.803162 717.300842,413.712372 723.663940,413.805084 
	C724.103760,413.737671 724.543579,413.670258 725.657959,413.784363 
	C726.468262,412.484070 727.899536,411.219818 727.977539,409.877014 
	C728.260132,405.007385 728.088867,400.111420 728.088867,395.225372 
	C730.154175,396.093231 731.123230,397.313965 732.043457,398.570435 
	C742.377625,412.680298 761.642456,420.498047 778.869873,414.614929 
	C786.698669,411.941376 793.653992,406.710175 801.221008,402.944519 
	C801.221008,402.944519 801.594849,402.945709 801.561951,403.856445 
	C801.561951,407.269989 801.561951,410.683502 801.561951,414.249268 
	C820.309937,414.249268 838.487549,414.249268 857.182739,414.249268 
	C857.182739,408.263428 857.182739,402.734222 857.182739,395.722229 
	C868.790527,408.524353 882.274719,414.848022 898.687256,416.834930 
	C899.450562,416.829254 900.213928,416.823608 901.765991,417.066956 
	C903.092346,417.157349 904.417297,417.286743 905.745178,417.332336 
	C926.377930,418.040222 945.016113,413.267517 959.509338,397.454407 
	C961.776123,394.981171 963.557312,392.062805 966.065613,388.670624 
	C960.116394,386.763428 955.092651,385.593506 950.443542,383.565125 
	C942.303894,380.013885 935.738586,379.671692 928.258118,386.530731 
	C919.765198,394.318207 908.722656,395.440552 897.927795,390.211945 
	C887.499207,385.160706 882.935913,376.143890 882.670776,364.948242 
	C883.127563,364.881836 883.584412,364.815430 884.919250,364.981171 
	C910.084106,364.974548 935.248962,364.998169 960.413696,364.938507 
	C966.162292,364.924835 967.228638,363.946625 966.890747,358.168640 
	C966.610352,353.374542 965.936157,348.545807 964.840393,343.872162 
	C963.571228,338.458740 961.650330,333.198090 959.851196,327.346863 
	C967.954346,327.346863 975.592041,327.389954 983.228821,327.326569 
	C986.489746,327.299500 986.425659,329.436951 986.423706,331.713348 
	C986.409302,348.710510 986.335388,365.708405 986.483337,382.704285 
	C986.515137,386.359314 985.420715,387.801819 981.646484,387.596466 
	C976.746338,387.329865 971.820679,387.531342 966.534424,387.531342 
	C966.534424,396.351685 966.534424,404.460724 966.534424,412.971863 
	C992.854126,412.971863 1019.072693,412.971863 1045.426880,412.971863 
	C1045.426880,404.348175 1045.426880,396.127045 1045.426880,387.503235 
	C1039.070923,387.503235 1033.105835,387.419281 1027.144897,387.538757 
	C1024.176636,387.598236 1022.851562,386.514740 1023.076660,383.451477 
	C1023.613525,376.146454 1023.570251,368.766418 1024.604126,361.537170 
	C1026.640381,347.298553 1034.723145,338.966095 1048.831055,335.828583 
	C1054.149658,334.645782 1059.538818,333.781311 1064.767578,332.795929 
	C1064.767578,321.368896 1064.767578,310.296265 1064.767578,299.023956 
	C1055.475098,298.248688 1047.107666,299.699768 1039.306396,304.094055 
	C1031.486328,308.498840 1025.947266,315.110077 1021.928040,323.199799 
	C1021.494507,323.014618 1021.060974,322.829437 1020.627441,322.644257 
	C1020.627441,315.448212 1020.627441,308.252167 1020.627441,301.033112 
	C1019.325378,300.789948 1018.691895,300.570190 1018.057678,300.568024 
	C999.225952,300.503326 980.393738,300.508911 961.562683,300.364258 
	C958.534851,300.341003 957.963196,301.660400 958.022766,304.303497 
	C958.162415,310.496887 958.067383,316.695587 958.067383,323.937469 
	C937.028625,293.038025 902.074951,292.343750 880.721680,302.297638 
	C868.076416,308.192291 858.296936,317.277527 852.060181,329.785126 
	C842.667419,348.622040 842.785645,367.836853 851.753479,388.443787 
	C846.579773,387.865143 842.660889,387.426849 838.773193,386.278076 
	C838.672913,385.819427 838.572632,385.360779 838.677002,383.999878 
	C838.652588,364.349792 838.715332,344.699127 838.577881,325.049835 
	C838.453186,307.243896 838.110352,289.439484 838.016663,270.627716 
	C837.990173,264.662018 838.111572,258.688721 837.803894,252.737534 
	C837.747131,251.637894 835.956848,250.627838 834.063599,249.322952 
	C824.571899,249.284302 815.079285,249.306351 805.588989,249.169250 
	C802.821106,249.129288 801.195068,249.677261 801.241638,252.944565 
	C801.412231,264.923035 801.417297,276.903839 801.283447,289.715759 
	C801.301697,291.137817 801.320007,292.559906 801.103516,294.847321 
	C801.155151,297.244385 801.206787,299.641479 801.108826,302.747375 
	C801.153687,303.467133 801.198608,304.186859 801.042175,305.606354 
	C801.104309,306.083282 801.166443,306.560242 801.093140,307.957764 
	C801.080627,308.577972 801.068115,309.198181 800.289612,309.768616 
	C798.849854,308.656281 797.386108,307.573486 795.973938,306.427155 
	C774.129517,288.695496 740.217224,295.847229 727.885498,320.893951 
	C727.885498,320.893951 727.798157,320.776520 727.212402,321.142517 
	C715.809814,342.564545 716.029541,364.651703 724.612244,387.539551 
	C722.138916,387.539551 720.838562,387.574615 719.540588,387.533936 
	C710.350952,387.245789 711.048035,389.258057 710.867432,379.062012 
	C710.584412,363.087585 710.689819,347.095642 709.934692,331.144073 
	C709.459961,321.115326 706.251343,311.862732 697.507935,305.472839 
	C697.507935,305.472839 697.421021,305.452057 697.047668,304.911102 
	C684.380554,296.772461 671.263184,297.116699 657.995850,302.998962 
	C657.995850,302.998962 657.863342,302.831268 657.128845,302.836792 
	C652.904053,305.016876 648.679260,307.196930 644.039917,309.590942 
	C643.671387,306.512482 643.349915,303.826721 642.936401,300.372009 
	C635.738342,300.372009 628.778564,300.208405 621.839539,300.514984 
	C620.509766,300.573761 618.755737,302.222992 618.058838,303.580566 
	C613.810547,311.857300 609.806580,320.259491 605.730286,328.624329 
	C602.645752,334.953918 599.574951,341.290161 595.994812,348.659393 
	C603.795837,347.205200 610.427856,345.968933 617.875854,344.898987 
	C618.152527,344.921051 618.429260,344.943085 618.597290,345.721954 
	C607.633484,368.223358 596.669617,390.724762 585.498108,413.652344 
	C611.140503,413.652344 635.891724,413.652344 661.012878,413.652344 
	C661.012878,404.891846 661.012878,396.494659 661.012878,387.295288 
	C655.208130,387.295288 649.485657,387.295288 643.324097,387.295288 
	C643.324097,370.704681 643.272400,354.907104 643.429016,339.111603 
	C643.440613,337.934814 644.704773,336.110413 645.796143,335.713867 
	C651.806274,333.530396 657.830078,331.066467 664.073181,329.942413 
	C669.139404,329.030243 672.182800,331.862518 673.176880,337.099579 
	C673.884277,340.826294 673.975647,344.706116 674.001709,348.519897 
	C674.139465,368.668091 674.169373,388.816956 674.055603,409.633423 
	C674.112610,410.086792 674.169617,410.540131 674.093140,411.740143 
	C675.612610,412.384430 677.132080,413.028717 678.900879,413.869537 
	C678.900879,413.869537 679.204895,413.762665 679.204895,413.762665 
	C679.204895,413.762665 679.238159,413.441956 679.708252,413.876587 
	C680.124329,413.837708 680.540405,413.798828 681.840027,413.937073 
	C684.237122,413.876831 686.634277,413.816589 689.944275,413.944122 
	C694.944702,413.870148 699.945129,413.796173 705.874390,413.893921 
M448.434601,496.613129 
	C448.434601,496.613129 448.572601,496.613342 449.036041,497.088562 
	C459.080078,502.754883 470.732483,500.805054 476.633514,492.198669 
	C477.432312,491.033722 477.513184,488.252533 476.688568,487.346313 
	C475.239716,485.754272 473.180450,484.670288 470.845978,487.324463 
	C468.738861,489.720093 465.696716,491.293274 462.240753,493.121582 
	C461.131958,493.153809 460.023163,493.186066 458.304840,492.877991 
	C450.153778,489.784607 446.397095,481.789612 449.231293,473.567413 
	C451.647003,466.559204 457.712280,464.111145 466.250427,467.270172 
	C466.436920,467.329346 466.623444,467.388489 467.140869,468.038635 
	C467.937836,469.078613 469.118774,470.007202 469.458893,471.179688 
	C470.434174,474.541870 473.123779,474.631378 475.362640,473.828735 
	C476.512268,473.416595 477.251862,470.955200 477.548676,469.306763 
	C477.893860,467.389832 477.432587,465.343140 477.531891,463.363281 
	C477.741516,459.183929 475.467804,458.854584 472.120544,459.406189 
	C470.207764,459.721436 468.172882,459.430634 466.207062,459.254852 
	C463.776581,459.037567 461.360718,458.656464 458.327179,458.201904 
	C457.918182,458.268707 457.509216,458.335541 456.331299,458.254456 
	C447.212341,459.928223 441.898041,465.772766 440.267609,474.467041 
	C438.643860,483.125854 440.695709,490.987579 448.434601,496.613129 
M275.868103,459.326721 
	C273.720612,455.667297 271.325348,458.120087 268.178253,459.258759 
	C266.786835,459.174957 265.395386,459.091156 263.776001,458.795471 
	C263.447662,458.676971 263.186493,458.770172 262.746399,459.285370 
	C262.746399,459.285370 262.444031,459.169769 261.669556,458.954681 
	C260.276459,456.342010 258.883392,453.729370 257.074677,450.625885 
	C254.324936,444.777405 249.134552,442.727783 243.258255,442.293915 
	C237.289001,441.853149 231.279739,441.932648 225.287140,441.837708 
	C221.715393,441.781128 218.142014,441.827362 214.959305,441.827362 
	C212.465881,448.920288 217.326782,448.524323 221.102341,449.154724 
	C221.102341,462.399139 221.110001,475.365814 221.086761,488.332458 
	C221.085037,489.297852 220.861832,490.262817 220.718964,491.409515 
	C219.610275,491.503296 218.646042,491.585632 217.681686,491.666168 
	C216.751160,491.743866 215.820511,491.819733 214.966614,491.890045 
	C213.879837,498.685669 214.031372,498.895294 220.178070,498.919861 
	C224.174805,498.935822 228.172134,498.924927 232.168564,498.874756 
	C238.216797,498.798798 238.575424,498.250854 236.647491,491.698792 
	C234.695648,491.698792 232.622726,491.698792 230.302307,491.698792 
	C230.302307,486.731476 230.302307,482.170868 230.302307,477.105225 
	C233.940262,477.105225 237.257385,477.252289 240.557480,477.077576 
	C250.439362,476.554382 255.314514,472.900665 258.881775,463.683716 
	C259.824005,463.462006 260.766205,463.240295 261.908447,463.766205 
	C264.380646,465.005554 266.852844,466.244873 269.616089,467.630127 
	C269.616089,475.216919 269.616089,483.422180 269.616089,491.859070 
	C266.918732,492.040131 264.541351,492.199707 260.832916,492.448639 
	C262.141998,495.148285 262.934784,498.497833 263.928436,498.558502 
	C271.278198,499.007477 278.667969,498.801636 286.973572,498.801636 
	C286.125580,495.814880 285.567535,493.849274 284.749207,491.255310 
	C282.461761,489.493317 280.174286,487.731293 277.671295,485.335083 
	C277.743805,484.900482 277.816315,484.465912 278.391449,483.461273 
	C278.922668,481.574646 279.729523,479.717194 279.932983,477.795837 
	C280.523315,472.221710 282.955658,469.579559 288.586151,469.080994 
	C290.720215,468.892029 292.882690,469.024689 294.969635,469.756714 
	C294.719482,470.372864 294.456726,470.984253 294.221130,471.605927 
	C289.880096,483.060272 295.835541,495.476410 307.489075,499.273071 
	C318.044159,502.711884 330.716217,496.314209 333.646729,486.066986 
	C337.212250,473.599274 330.840973,461.280029 318.662781,458.925598 
	C313.729065,457.971741 308.296021,459.600708 302.346283,460.071106 
	C300.178131,460.112457 297.296967,461.061768 295.975891,460.024384 
	C292.054657,456.945251 286.437531,455.904358 281.931305,458.165863 
	C280.105103,459.082306 277.988373,459.419830 275.975586,460.011597 
	C275.975586,460.011597 275.982666,459.982758 275.868103,459.326721 
M611.122070,477.921631 
	C611.211670,484.282440 611.301208,490.643280 611.414856,497.787872 
	C614.412170,498.149200 617.405090,498.767303 620.407654,498.818207 
	C626.619751,498.923553 626.815002,498.554626 625.562683,492.124542 
	C623.818665,492.035553 622.032166,491.944366 619.799500,491.830444 
	C619.679260,489.933258 619.518188,488.151947 619.462219,486.367401 
	C619.284973,480.719604 619.390015,475.050995 618.937561,469.426514 
	C618.240051,460.755524 614.189209,457.604767 605.612366,459.155060 
	C602.299927,459.753815 599.171082,461.368805 596.528625,462.316376 
	C595.020508,461.138062 593.863525,459.505310 592.514282,459.326965 
	C589.411011,458.916809 586.164978,458.903473 583.081970,459.391968 
	C581.992310,459.564606 580.455444,461.689331 580.496216,462.875610 
	C580.536865,464.058319 582.125793,465.458313 583.366394,466.235687 
	C584.215271,466.767609 585.630493,466.395721 586.989807,467.420410 
	C586.989807,475.514191 586.989807,483.607941 586.989807,491.818604 
	C584.451050,492.006714 582.548401,492.147675 580.723572,492.282867 
	C579.884888,498.820312 579.937195,498.894928 585.981628,498.916168 
	C589.471619,498.928436 592.962280,498.922180 596.451721,498.869629 
	C602.172546,498.783508 602.678894,497.997345 600.686096,492.319519 
	C599.098633,492.176300 597.469971,492.029327 595.000671,491.806519 
	C595.000671,487.127136 595.456665,482.474670 594.888672,477.950775 
	C594.127563,471.888885 596.692627,468.763733 602.111267,466.797760 
	C607.781738,464.740326 609.322449,465.257294 611.042908,471.692444 
	C611.111023,472.137268 611.179138,472.582092 611.124329,473.760223 
	C611.178406,474.498138 611.232544,475.236023 611.131409,476.485199 
	C611.182434,476.655792 611.233459,476.826416 611.122070,477.921631 
M349.131958,387.527222 
	C343.364441,387.527222 337.596924,387.527222 331.147827,387.527222 
	C331.147827,395.500519 331.290863,402.765045 331.088379,410.019897 
	C330.984924,413.726227 332.329437,414.888580 336.012848,414.844666 
	C351.793762,414.656494 367.577759,414.725677 383.360657,414.706635 
	C389.783936,414.698883 396.207184,414.705322 402.795380,414.705322 
	C402.795380,409.532562 402.795380,405.257568 402.941864,400.357025 
	C402.894073,399.934174 402.846283,399.511353 403.005219,398.174774 
	C403.005219,394.881165 403.005219,391.587555 403.005219,387.674438 
	C398.579163,387.674438 394.614990,387.583954 390.657196,387.703918 
	C387.642090,387.795258 386.601562,386.511871 386.619873,383.533722 
	C386.713776,368.238556 386.614044,352.942108 386.736938,337.647369 
	C386.748627,336.188293 387.476288,333.822388 388.476379,333.433716 
	C394.424927,331.121887 400.426453,328.400238 406.653259,327.503113 
	C412.967194,326.593414 416.440979,330.636993 416.840790,337.040405 
	C417.006073,339.687286 417.091187,342.339203 417.091187,345.920441 
	C417.151642,361.271393 417.212067,376.622314 417.113983,392.486633 
	C417.170837,392.656464 417.227661,392.826324 417.139313,393.915924 
	C417.203552,398.272003 417.267792,402.628113 417.129700,407.833435 
	C417.106079,414.709808 417.106140,414.720886 423.692139,414.692871 
	C437.945190,414.632294 452.198273,414.575348 466.451019,414.470123 
	C468.174530,414.457397 469.895935,414.156372 471.977020,413.954071 
	C471.615814,411.563080 471.348663,409.794617 471.234711,407.332306 
	C471.150421,406.869812 471.066132,406.407288 471.181366,405.171265 
	C471.190247,403.504883 471.188934,401.838379 471.209595,400.172150 
	C471.359589,388.070984 471.362457,387.949738 459.585175,387.803436 
	C456.008362,387.759003 454.629395,386.821472 454.700806,382.988861 
	C454.936676,370.327911 455.045013,357.654480 454.735931,344.997253 
	C454.553711,337.536987 454.071014,329.988220 452.687286,322.675354 
	C450.558929,311.427094 444.425812,302.774933 433.212494,298.817871 
	C419.103088,293.838745 406.011597,297.349792 393.476807,304.314362 
	C391.520874,305.401154 389.597687,306.546875 386.511353,308.327789 
	C386.511353,287.898041 386.511353,268.699738 386.511353,249.224991 
	C375.348206,249.224991 365.027679,249.380646 354.716156,249.144104 
	C350.891418,249.056381 349.960541,250.363190 349.970490,254.034256 
	C350.090759,298.360657 350.056061,342.687469 349.953430,387.073792 
	C349.953430,387.073792 350.012115,387.182556 349.131958,387.527222 
M404.888092,464.257355 
	C404.787537,462.708832 404.686981,461.160309 404.564941,459.281006 
	C401.720795,459.281006 399.444244,459.288177 397.167725,459.279633 
	C390.962799,459.256378 390.501373,459.936981 392.583527,466.106842 
	C394.027618,466.291504 395.483490,466.477661 397.018738,467.640564 
	C397.067169,474.296570 396.891724,480.963531 397.215912,487.606079 
	C397.715363,497.840363 404.301666,502.084625 414.010437,498.627563 
	C416.182617,497.854126 418.220917,496.704895 420.129395,495.817688 
	C424.734100,501.465210 430.441467,497.895447 435.767029,498.747284 
	C435.767029,496.227783 435.767029,494.336151 435.767029,492.313843 
	C433.343445,492.109131 431.282867,491.935089 428.807007,491.725952 
	C428.807007,480.947540 428.807007,470.530670 428.807007,459.810791 
	C423.671600,459.810791 418.996552,459.810791 414.365265,459.810791 
	C413.936462,465.544525 413.936462,465.544525 421.103363,466.711884 
	C421.103363,472.210876 421.135162,477.813080 421.093903,483.414734 
	C421.056732,488.463928 416.430450,492.622284 410.622253,492.893768 
	C404.734985,493.169006 405.400543,488.561188 404.912689,484.336731 
	C404.846649,483.914490 404.780640,483.492249 404.877991,482.138214 
	C404.813324,476.458282 404.748657,470.778320 404.888092,464.257355 
M306.395813,398.525757 
	C306.395813,394.415283 306.395813,390.304779 306.395813,385.667267 
	C299.660553,385.667267 293.509949,385.432190 287.387634,385.747223 
	C283.066650,385.969513 281.685822,384.631653 281.713043,380.159515 
	C281.910858,347.672668 281.836273,315.184204 281.863068,282.696228 
	C281.864380,281.078033 282.006592,279.459961 282.104340,277.395325 
	C289.548340,277.395325 296.520569,277.442535 303.491638,277.373474 
	C306.527435,277.343414 306.900543,278.960266 306.846497,281.539276 
	C306.675476,289.699707 306.735992,297.865051 306.712830,306.028473 
	C306.704102,309.114532 306.711426,312.200623 306.711426,315.173401 
	C316.653625,315.173401 325.703400,315.173401 334.721893,315.173401 
	C334.721893,293.090454 334.721893,271.499298 334.721893,249.698196 
	C333.643005,249.537445 332.850586,249.316452 332.058075,249.316025 
	C284.575897,249.290741 237.093613,249.326035 189.611801,249.193954 
	C185.826660,249.183426 185.244629,250.711441 185.265564,253.923752 
	C185.364319,269.083649 185.214203,284.245148 185.315308,299.404999 
	C185.350433,304.671570 185.853317,309.934998 186.146881,315.278595 
	C195.684891,315.278595 204.748947,315.278595 214.284027,315.278595 
	C214.284027,313.107483 214.294342,311.315521 214.282303,309.523651 
	C214.219635,300.194550 214.054260,290.863983 214.191528,281.537872 
	C214.211670,280.170929 215.611252,277.686432 216.458572,277.648682 
	C223.537888,277.333099 230.637329,277.469391 237.822250,277.469391 
	C237.992767,278.692017 238.158676,279.330353 238.159836,279.969025 
	C238.220581,313.789276 238.231125,347.609711 238.373795,381.429596 
	C238.387512,384.681915 237.401581,385.837860 234.105392,385.739380 
	C227.348709,385.537506 220.581757,385.678772 213.839066,385.678772 
	C213.839066,395.542908 213.839066,404.634064 213.839066,413.799896 
	C244.794708,413.799896 275.355408,413.799896 306.398376,413.799896 
	C306.398376,408.771973 306.398376,404.142487 306.395813,398.525757 
M509.725739,350.500122 
	C509.724609,335.339966 509.659729,320.179321 509.776154,305.020081 
	C509.799438,301.987732 509.253296,300.476196 505.733673,300.504425 
	C490.407715,300.627441 475.079834,300.499908 459.752655,300.498657 
	C458.821777,300.498566 457.890900,300.803619 457.045410,300.951721 
	C457.045410,309.697113 457.045410,318.101135 457.045410,327.026550 
	C462.712799,327.026550 467.953705,327.026550 473.723816,327.026550 
	C473.723816,329.320221 473.723755,331.107056 473.723846,332.893890 
	C473.724731,348.888000 473.568970,364.884033 473.764740,380.875763 
	C474.031616,402.678558 486.252869,414.800415 508.022980,415.166809 
	C517.588257,415.327789 526.424866,412.664276 534.777222,408.137543 
	C536.585327,407.157623 538.515137,406.402313 540.593933,405.449524 
	C541.375183,413.268097 541.375183,413.269012 548.827942,413.267181 
	C555.492188,413.265564 562.156555,413.283386 568.820679,413.253693 
	C578.942017,413.208618 579.061523,413.215088 580.788757,403.278564 
	C583.171143,389.573425 585.351135,375.833099 587.774719,361.157440 
	C580.973999,362.697998 574.781250,364.100800 567.873901,365.665497 
	C569.627563,343.723877 571.319031,322.560455 573.049377,300.910522 
	C556.598022,300.910522 540.420898,300.910522 524.211304,300.910522 
	C524.211304,309.682159 524.211304,318.092743 524.211304,327.186523 
	C529.960022,327.186523 535.343018,327.186523 540.952087,327.186523 
	C540.952087,341.192841 540.945068,354.508148 540.954346,367.823486 
	C540.961487,378.123322 539.945190,379.645813 530.195312,383.404236 
	C528.496338,384.059174 526.722656,384.637268 524.931396,384.916412 
	C514.696411,386.511353 510.605377,383.320099 510.084259,372.984558 
	C509.723816,365.835236 509.828522,358.662445 509.725739,350.500122 
M366.737701,498.439667 
	C368.855042,497.266663 370.972382,496.093658 373.089722,494.920654 
	C373.024506,495.480957 372.959320,496.041290 372.894104,496.601593 
	C374.687592,497.358093 376.423553,498.364655 378.292145,498.794403 
	C379.872345,499.157806 381.606262,498.861023 383.271973,498.842865 
	C389.217163,498.778046 389.510315,498.351685 387.514740,492.065918 
	C381.140228,493.741302 381.204620,489.766510 381.309967,485.050049 
	C381.533112,475.060608 381.325226,465.061646 381.301514,455.066589 
	C381.291382,450.793243 381.299835,446.519836 381.299835,442.226624 
	C375.963562,442.226624 371.206421,442.226624 366.577118,442.226624 
	C363.596252,450.039886 369.991211,448.284485 373.266968,449.170135 
	C373.266968,453.879242 373.266968,458.244781 373.266968,463.243622 
	C371.425507,462.172607 370.188110,461.418915 368.920013,460.720856 
	C359.370758,455.463837 348.458740,458.530914 343.060425,468.032196 
	C338.515076,476.032257 338.685272,484.148102 343.813232,491.623932 
	C349.190613,499.463348 357.140015,500.920105 366.737701,498.439667 
M572.649048,467.904327 
	C567.096130,459.741821 558.431030,456.372925 549.288208,458.821960 
	C541.023010,461.035889 534.966431,468.197662 534.160950,476.709564 
	C533.262146,486.207916 538.123169,494.715698 546.666626,498.597046 
	C554.484375,502.148743 563.999573,500.201965 570.039246,493.815155 
	C576.936462,486.521484 577.886963,478.403442 572.649048,467.904327 
M1069.524780,414.533844 
	C1075.283813,414.533844 1081.042847,414.533844 1087.068237,414.533844 
	C1087.068237,405.095306 1087.068237,396.552643 1087.068237,387.780945 
	C1076.892944,387.780945 1067.030396,387.780945 1057.170898,387.780945 
	C1057.170898,396.866943 1057.170898,405.559326 1057.170898,414.538147 
	C1061.246460,414.538147 1064.893921,414.538147 1069.524780,414.533844 
M487.961151,489.643951 
	C488.301392,491.601624 488.361572,493.663452 489.042328,495.494537 
	C490.314911,498.917480 496.196259,501.116699 500.222198,499.074768 
	C501.989899,498.178223 502.666290,495.130127 503.838226,493.058960 
	C503.546417,492.691040 503.254608,492.323120 502.962830,491.955200 
	C496.602631,493.250977 495.416840,490.012909 495.665283,484.969299 
	C495.910339,479.995331 495.722687,474.993683 495.568451,470.009003 
	C495.485779,467.336090 496.348267,466.225769 499.208405,465.970276 
	C500.549988,465.850464 502.384216,464.108551 502.840088,462.721985 
	C503.740234,459.984100 501.475861,459.837219 499.386932,459.295166 
	C497.916443,458.913574 496.182098,457.494965 495.619354,456.110962 
	C494.558289,453.501251 494.255249,450.582886 493.656860,447.788574 
	C493.645477,447.735382 493.878510,447.629791 493.997528,447.548706 
	C494.055206,447.651764 494.112885,447.754791 494.282623,448.058044 
	C489.769897,450.221741 486.957764,453.572784 487.778198,458.998322 
	C485.901550,459.225311 484.472046,459.398224 482.889862,459.589630 
	C482.261200,463.631927 482.375580,466.845062 487.919128,466.571869 
	C487.919128,474.172668 487.919128,481.470581 487.961151,489.643951 
M523.820435,447.565674 
	C524.187683,442.562836 522.176941,439.718170 518.896423,441.007568 
	C517.344360,441.617645 515.626282,443.481537 515.310730,445.045258 
	C515.045410,446.360260 516.471130,449.118835 517.559998,449.357147 
	C519.379089,449.755341 521.526733,448.652527 523.820435,447.565674 
z"/>
<path fill="#FCAF04" opacity="1.000000" stroke="none" 
	d="
M801.055603,309.818390 
	C801.068115,309.198181 801.080627,308.577972 801.319702,307.313965 
	C801.445312,306.082336 801.344421,305.494476 801.243530,304.906616 
	C801.198608,304.186859 801.153687,303.467133 801.370667,302.085144 
	C801.534424,298.942596 801.436340,296.462280 801.338257,293.981964 
	C801.320007,292.559906 801.301697,291.137817 801.691772,289.121643 
	C802.379639,286.774872 802.882324,285.024567 802.900696,283.269196 
	C802.985291,275.163330 802.920410,267.056030 802.937683,258.949280 
	C802.952271,252.106842 804.140991,250.975113 811.117188,250.947144 
	C818.726013,250.916626 826.334778,250.858734 834.253906,251.068604 
	C835.037476,252.858719 835.865662,254.379028 835.926697,255.929520 
	C836.344727,266.551941 836.894592,277.181854 836.853455,287.807220 
	C836.749939,314.569458 836.307251,341.330231 836.119385,368.092407 
	C836.079834,373.724762 836.549500,379.360718 836.570190,385.077484 
	C836.522766,385.766754 836.689758,386.373535 836.893433,387.022705 
	C836.930115,387.065094 837.006226,387.147430 837.117432,387.503845 
	C840.610718,388.556793 843.973083,389.694794 847.379333,389.845825 
	C852.417480,390.069153 854.926880,386.152130 852.023987,381.989716 
	C847.087219,374.911072 847.869019,366.753510 847.206665,359.118805 
	C846.114136,346.526978 850.725464,335.110352 857.699463,324.612244 
	C865.379456,313.051361 876.331726,306.249786 889.007385,301.270447 
	C903.567993,295.550659 917.486389,298.075012 931.093323,303.637909 
	C944.260254,309.020935 953.274170,319.270569 958.440735,332.208923 
	C961.659058,340.268219 962.958252,349.124054 964.790771,357.692566 
	C965.579956,361.382324 962.786560,362.698975 959.677185,362.962830 
	C954.381531,363.412231 949.069153,363.930786 943.762817,363.941223 
	C925.279968,363.977570 906.796570,363.785370 888.313354,363.763000 
	C886.889709,363.761261 885.465271,364.405212 884.041199,364.749023 
	C883.584412,364.815430 883.127563,364.881836 882.057983,364.894318 
	C880.986267,365.802368 880.053528,366.809265 880.139893,367.719543 
	C881.367371,380.665710 892.090393,393.805756 905.755188,394.949371 
	C916.006836,395.807404 925.089050,393.210297 932.898560,386.281799 
	C934.559387,384.808319 937.148315,382.838959 938.838684,383.215027 
	C945.230896,384.637054 951.504395,386.736237 957.621155,389.102051 
	C958.565430,389.467285 959.409790,393.451599 958.676025,394.229095 
	C954.946777,398.180267 950.944214,401.986542 946.553772,405.178253 
	C935.804138,412.992950 922.858826,413.961609 910.308044,415.986664 
	C907.233154,416.482788 904.089355,416.552246 900.977234,416.817932 
	C900.213928,416.823608 899.450562,416.829254 898.255127,416.423950 
	C896.744019,415.244720 895.741882,413.961395 894.574280,413.787201 
	C881.736328,411.871643 870.329041,407.320343 861.719727,397.062805 
	C860.768921,395.929993 858.915405,395.554779 857.480591,394.828186 
	C856.710876,396.368744 855.498901,397.843658 855.258789,399.462769 
	C854.661865,403.487427 854.507996,407.577820 854.153076,411.925385 
	C852.227722,412.308899 850.463989,412.954376 848.696289,412.965485 
	C835.537048,413.048248 822.376587,412.950256 809.217468,413.044312 
	C806.297729,413.065155 805.203613,411.879395 804.609192,409.093567 
	C804.147095,406.928467 802.638367,404.986725 801.594849,402.945709 
	C801.594849,402.945709 801.221008,402.944519 800.964111,402.502136 
	C799.063904,402.375336 796.919128,402.134766 795.855957,403.093597 
	C786.404907,411.616730 775.035095,414.475403 762.849609,413.661438 
	C749.897278,412.796356 740.197144,405.630524 732.300415,395.668274 
	C731.366028,394.489563 728.992310,393.216339 727.982056,393.641479 
	C726.678894,394.189911 725.498718,396.327362 725.282776,397.918549 
	C724.644714,402.619995 724.507446,407.389343 723.891968,412.153046 
	C723.426636,412.216064 723.243530,412.258179 722.591125,412.244812 
	C711.023926,412.139557 699.925964,412.092316 688.828003,412.039062 
	C678.900818,411.991394 678.900818,411.988464 675.971558,402.729126 
	C675.942932,385.424438 676.092651,368.598846 675.843201,351.779236 
	C675.760132,346.177216 675.017212,340.512207 673.838501,335.034668 
	C673.361023,332.815613 671.319275,330.122162 669.285217,329.203217 
	C663.512024,326.595123 657.520935,327.903687 651.882446,330.202881 
	C646.035522,332.587128 641.389465,335.284302 641.807312,343.449554 
	C642.511963,357.219177 641.667480,371.064301 641.741760,384.876221 
	C641.748596,386.152039 643.501282,388.260529 644.747864,388.520172 
	C647.754700,389.146515 650.946289,388.839203 654.055725,389.030731 
	C658.940979,389.331665 659.991821,390.845642 659.450806,395.647247 
	C659.137207,398.430664 659.083008,401.314301 659.432861,404.087158 
	C660.233887,410.436493 659.171875,412.035980 652.889282,412.059082 
	C633.067993,412.131989 613.246094,412.100006 593.424622,412.052643 
	C592.055847,412.049377 590.688049,411.586151 588.556091,411.197693 
	C591.467712,405.483917 594.063843,400.529053 596.535461,395.512848 
	C604.222961,379.910797 611.898193,364.302338 619.430908,348.625549 
	C619.861816,347.728577 618.977905,346.199860 618.705933,344.965149 
	C618.429260,344.943085 618.152527,344.921051 617.321167,344.509583 
	C611.392883,344.120148 606.019226,344.120148 600.234863,344.120148 
	C604.949890,334.403656 609.818726,325.170654 613.968628,315.625092 
	C619.781189,302.254852 619.932983,302.028748 634.534058,301.867584 
	C639.410095,301.813782 642.766724,302.446472 642.110596,308.529327 
	C641.793518,311.468689 643.792786,312.716644 646.246521,311.184357 
	C650.283325,308.663483 654.007446,305.641815 657.863342,302.831268 
	C657.863342,302.831268 657.995850,302.998962 658.357788,302.983185 
	C660.848267,302.674042 663.066833,302.667450 665.088135,302.032715 
	C670.771667,300.248016 676.427368,299.542725 682.257263,301.229492 
	C687.297119,302.687744 692.365356,304.048309 697.421021,305.452057 
	C697.421021,305.452057 697.507935,305.472839 697.452515,305.871521 
	C697.786865,307.157349 697.947693,308.295441 698.602051,308.892700 
	C704.930847,314.668976 707.382812,322.594208 707.842224,330.366791 
	C708.890381,348.101898 708.688660,365.915649 708.791077,383.698639 
	C708.817444,388.277100 710.353882,390.015045 714.909302,389.507141 
	C717.031616,389.270508 719.259338,388.992401 721.318359,389.378174 
	C725.765564,390.211426 726.408875,387.900085 725.512024,384.564301 
	C724.614136,381.224884 722.930786,378.086639 722.135803,374.731262 
	C718.308289,358.576416 719.432617,342.783783 725.953918,327.421417 
	C726.844482,325.323517 727.196716,322.997131 727.798218,320.776520 
	C727.798157,320.776520 727.885498,320.893951 728.164612,320.816772 
	C733.018433,316.242981 737.233643,311.289612 742.243896,307.346375 
	C752.172974,299.531860 763.332703,295.904907 776.167664,299.076111 
	C783.911194,300.989380 790.714417,304.317230 796.545349,309.800903 
	C797.598938,310.791748 799.573120,313.469452 801.055603,309.818390 
M801.222900,352.297638 
	C801.208923,351.200714 801.194885,350.103760 801.556580,348.349365 
	C800.761475,344.915070 800.690918,341.080139 799.050354,338.113373 
	C790.301208,322.291687 777.330566,319.767151 764.105591,330.575287 
	C754.371033,338.530823 754.391785,350.005249 754.686157,361.220245 
	C754.797546,365.463013 754.690857,370.400970 756.755310,373.741760 
	C759.865845,378.775238 763.347839,383.972687 769.440796,386.611786 
	C781.127625,391.673737 793.967041,388.721893 799.491150,377.554718 
	C802.581360,371.307709 802.656982,363.531921 803.785950,356.396698 
	C803.938049,355.435303 802.301208,354.190887 801.222900,352.297638 
M899.699951,322.036194 
	C888.807617,325.840149 882.285828,334.481262 883.569946,343.724792 
	C898.611938,343.724792 913.690430,343.724792 928.740906,343.724792 
	C929.738831,331.915131 914.053772,318.174255 899.699951,322.036194 
z"/>
<path fill="#F9AD06" opacity="1.000000" stroke="none" 
	d="
M306.397095,399.019379 
	C306.398376,404.142487 306.398376,408.771973 306.398376,413.799896 
	C275.355408,413.799896 244.794708,413.799896 213.839066,413.799896 
	C213.839066,404.634064 213.839066,395.542908 213.839066,385.678772 
	C220.581757,385.678772 227.348709,385.537506 234.105392,385.739380 
	C237.401581,385.837860 238.387512,384.681915 238.373795,381.429596 
	C238.231125,347.609711 238.220581,313.789276 238.159836,279.969025 
	C238.158676,279.330353 237.992767,278.692017 237.822250,277.469391 
	C230.637329,277.469391 223.537888,277.333099 216.458572,277.648682 
	C215.611252,277.686432 214.211670,280.170929 214.191528,281.537872 
	C214.054260,290.863983 214.219635,300.194550 214.282303,309.523651 
	C214.294342,311.315521 214.284027,313.107483 214.284027,315.278595 
	C204.748947,315.278595 195.684891,315.278595 186.146881,315.278595 
	C185.853317,309.934998 185.350433,304.671570 185.315308,299.404999 
	C185.214203,284.245148 185.364319,269.083649 185.265564,253.923752 
	C185.244629,250.711441 185.826660,249.183426 189.611801,249.193954 
	C237.093613,249.326035 284.575897,249.290741 332.058075,249.316025 
	C332.850586,249.316452 333.643005,249.537445 334.721893,249.698196 
	C334.721893,271.499298 334.721893,293.090454 334.721893,315.173401 
	C325.703400,315.173401 316.653625,315.173401 306.711426,315.173401 
	C306.711426,312.200623 306.704102,309.114532 306.712830,306.028473 
	C306.735992,297.865051 306.675476,289.699707 306.846497,281.539276 
	C306.900543,278.960266 306.527435,277.343414 303.491638,277.373474 
	C296.520569,277.442535 289.548340,277.395325 282.104340,277.395325 
	C282.006592,279.459961 281.864380,281.078033 281.863068,282.696228 
	C281.836273,315.184204 281.910858,347.672668 281.713043,380.159515 
	C281.685822,384.631653 283.066650,385.969513 287.387634,385.747223 
	C293.509949,385.432190 299.660553,385.667267 306.395813,385.667267 
	C306.395813,390.304779 306.395813,394.415283 306.397095,399.019379 
z"/>
<path fill="#F9AD05" opacity="1.000000" stroke="none" 
	d="
M417.332031,406.984192 
	C417.267792,402.628113 417.203552,398.272003 417.318726,393.346619 
	C417.620331,392.457123 417.545135,392.189087 417.272522,391.973267 
	C417.212067,376.622314 417.151642,361.271393 417.343262,345.096619 
	C417.715790,341.620850 417.988312,338.965454 417.927948,336.317627 
	C417.752899,328.639923 411.558258,323.812286 404.039459,325.596130 
	C400.158905,326.516785 396.255890,327.571381 392.590149,329.107391 
	C388.593353,330.782135 384.866913,332.794861 384.943146,338.351471 
	C385.148926,353.346771 385.141876,368.348297 384.943451,383.343689 
	C384.888733,387.477692 386.990448,389.066833 390.411102,389.721069 
	C392.024689,390.029663 393.733948,389.969482 395.391174,389.891541 
	C399.097321,389.717163 402.177368,389.916718 401.227020,395.133118 
	C401.011353,396.316864 402.236511,397.763092 402.798492,399.088501 
	C402.846283,399.511353 402.894073,399.934174 402.673218,401.025269 
	C402.267700,403.007446 402.036743,404.319427 402.009552,405.635681 
	C401.856384,413.053741 401.871521,412.966248 394.404877,413.099945 
	C385.115265,413.266296 375.829346,413.764465 366.540344,413.809479 
	C356.585938,413.857758 346.628815,413.588074 336.674957,413.365997 
	C333.648590,413.298523 332.396301,411.933044 332.813110,408.551666 
	C333.297546,404.621460 333.034058,400.586853 332.945221,396.600922 
	C332.802094,390.177673 333.780701,389.077026 340.304535,389.066193 
	C341.780029,389.063721 343.349304,389.854401 344.709381,389.546539 
	C346.560486,389.127533 348.252106,388.003967 350.012115,387.182556 
	C350.012115,387.182556 349.953430,387.073792 350.332092,387.026398 
	C351.145233,386.079895 351.948914,385.183868 351.956390,384.281158 
	C352.022491,376.326599 352.008301,368.370056 351.900787,360.415680 
	C351.666901,343.110443 351.202667,325.806793 351.134491,308.501282 
	C351.065033,290.871979 351.381317,273.241425 351.470551,255.611115 
	C351.487518,252.258331 352.892731,250.833557 356.319702,250.897629 
	C364.146393,251.043991 371.979309,251.074341 379.805603,250.929047 
	C383.735199,250.856094 385.132141,252.574661 385.069305,256.338379 
	C384.946991,263.665649 385.062286,270.996704 385.056854,278.326172 
	C385.050201,287.321320 384.940704,296.317291 385.036743,305.311218 
	C385.081146,309.470215 387.800598,311.272186 390.702667,309.005981 
	C396.263947,304.663208 402.454163,302.041473 409.117096,299.726105 
	C427.453827,293.354126 448.802094,304.211060 450.821381,323.390045 
	C452.902710,343.158020 452.497772,363.215973 452.546967,383.148621 
	C452.558380,387.766205 454.338837,389.171448 457.925781,389.750671 
	C459.502808,390.005371 461.206207,389.443817 462.855682,389.289398 
	C467.874756,388.819641 469.810822,390.629608 470.049622,395.656128 
	C470.212891,399.092682 470.661041,402.515717 470.981873,405.944794 
	C471.066132,406.407288 471.150421,406.869812 470.926758,407.961670 
	C469.950256,411.198395 468.799896,412.988586 465.608978,413.042542 
	C455.991669,413.205078 446.378967,413.798126 436.763031,413.833313 
	C430.724548,413.855347 424.683502,413.176300 419.209747,412.845917 
	C418.434235,410.424988 417.883148,408.704590 417.332031,406.984192 
z"/>
<path fill="#FAAF07" opacity="1.000000" stroke="none" 
	d="
M509.725555,351.000122 
	C509.828522,358.662445 509.723816,365.835236 510.084259,372.984558 
	C510.605377,383.320099 514.696411,386.511353 524.931396,384.916412 
	C526.722656,384.637268 528.496338,384.059174 530.195312,383.404236 
	C539.945190,379.645813 540.961487,378.123322 540.954346,367.823486 
	C540.945068,354.508148 540.952087,341.192841 540.952087,327.186523 
	C535.343018,327.186523 529.960022,327.186523 524.211304,327.186523 
	C524.211304,318.092743 524.211304,309.682159 524.211304,300.910522 
	C540.420898,300.910522 556.598022,300.910522 573.049377,300.910522 
	C571.319031,322.560455 569.627563,343.723877 567.873901,365.665497 
	C574.781250,364.100800 580.973999,362.697998 587.774719,361.157440 
	C585.351135,375.833099 583.171143,389.573425 580.788757,403.278564 
	C579.061523,413.215088 578.942017,413.208618 568.820679,413.253693 
	C562.156555,413.283386 555.492188,413.265564 548.827942,413.267181 
	C541.375183,413.269012 541.375183,413.268097 540.593933,405.449524 
	C538.515137,406.402313 536.585327,407.157623 534.777222,408.137543 
	C526.424866,412.664276 517.588257,415.327789 508.022980,415.166809 
	C486.252869,414.800415 474.031616,402.678558 473.764740,380.875763 
	C473.568970,364.884033 473.724731,348.888000 473.723846,332.893890 
	C473.723755,331.107056 473.723816,329.320221 473.723816,327.026550 
	C467.953705,327.026550 462.712799,327.026550 457.045410,327.026550 
	C457.045410,318.101135 457.045410,309.697113 457.045410,300.951721 
	C457.890900,300.803619 458.821777,300.498566 459.752655,300.498657 
	C475.079834,300.499908 490.407715,300.627441 505.733673,300.504425 
	C509.253296,300.476196 509.799438,301.987732 509.776154,305.020081 
	C509.659729,320.179321 509.724609,335.339966 509.725555,351.000122 
z"/>
<path fill="#DDAC22" opacity="1.000000" stroke="none" 
	d="
M884.480225,364.865112 
	C885.465271,364.405212 886.889709,363.761261 888.313354,363.763000 
	C906.796570,363.785370 925.279968,363.977570 943.762817,363.941223 
	C949.069153,363.930786 954.381531,363.412231 959.677185,362.962830 
	C962.786560,362.698975 965.579956,361.382324 964.790771,357.692566 
	C962.958252,349.124054 961.659058,340.268219 958.440735,332.208923 
	C953.274170,319.270569 944.260254,309.020935 931.093323,303.637909 
	C917.486389,298.075012 903.567993,295.550659 889.007385,301.270447 
	C876.331726,306.249786 865.379456,313.051361 857.699463,324.612244 
	C850.725464,335.110352 846.114136,346.526978 847.206665,359.118805 
	C847.869019,366.753510 847.087219,374.911072 852.023987,381.989716 
	C854.926880,386.152130 852.417480,390.069153 847.379333,389.845825 
	C843.973083,389.694794 840.610718,388.556793 837.405884,387.465698 
	C837.969360,387.043640 838.355713,387.016113 838.742004,386.988556 
	C842.660889,387.426849 846.579773,387.865143 851.753479,388.443787 
	C842.785645,367.836853 842.667419,348.622040 852.060181,329.785126 
	C858.296936,317.277527 868.076416,308.192291 880.721680,302.297638 
	C902.074951,292.343750 937.028625,293.038025 958.067383,323.937469 
	C958.067383,316.695587 958.162415,310.496887 958.022766,304.303497 
	C957.963196,301.660400 958.534851,300.341003 961.562683,300.364258 
	C980.393738,300.508911 999.225952,300.503326 1018.057678,300.568024 
	C1018.691895,300.570190 1019.325378,300.789948 1020.627441,301.033112 
	C1020.627441,308.252167 1020.627441,315.448212 1020.627441,322.644257 
	C1021.060974,322.829437 1021.494507,323.014618 1021.928040,323.199799 
	C1025.947266,315.110077 1031.486328,308.498840 1039.306396,304.094055 
	C1047.107666,299.699768 1055.475098,298.248688 1064.767578,299.023956 
	C1064.767578,310.296265 1064.767578,321.368896 1064.767578,332.795929 
	C1059.538818,333.781311 1054.149658,334.645782 1048.831055,335.828583 
	C1034.723145,338.966095 1026.640381,347.298553 1024.604126,361.537170 
	C1023.570251,368.766418 1023.613525,376.146454 1023.076660,383.451477 
	C1022.851562,386.514740 1024.176636,387.598236 1027.144897,387.538757 
	C1033.105835,387.419281 1039.070923,387.503235 1045.426880,387.503235 
	C1045.426880,396.127045 1045.426880,404.348175 1045.426880,412.971863 
	C1019.072693,412.971863 992.854126,412.971863 966.534424,412.971863 
	C966.534424,404.460724 966.534424,396.351685 966.534424,387.531342 
	C971.820679,387.531342 976.746338,387.329865 981.646484,387.596466 
	C985.420715,387.801819 986.515137,386.359314 986.483337,382.704285 
	C986.335388,365.708405 986.409302,348.710510 986.423706,331.713348 
	C986.425659,329.436951 986.489746,327.299500 983.228821,327.326569 
	C975.592041,327.389954 967.954346,327.346863 959.851196,327.346863 
	C961.650330,333.198090 963.571228,338.458740 964.840393,343.872162 
	C965.936157,348.545807 966.610352,353.374542 966.890747,358.168640 
	C967.228638,363.946625 966.162292,364.924835 960.413696,364.938507 
	C935.248962,364.998169 910.084106,364.974548 884.480225,364.865112 
M1043.182617,403.195404 
	C1043.361084,399.983215 1043.910156,396.727631 1043.541748,393.579407 
	C1043.387085,392.257904 1041.364868,390.236877 1040.064087,390.132965 
	C1035.439209,389.763519 1030.753418,389.959259 1026.101807,390.176758 
	C1021.840820,390.376007 1019.965637,388.204102 1020.679626,383.955200 
	C1021.311035,380.197784 1022.553772,376.164062 1021.791199,372.626434 
	C1019.921936,363.954010 1023.283020,356.625183 1026.287476,349.093414 
	C1030.419434,338.734955 1040.166382,335.878143 1049.280518,332.537445 
	C1052.856934,331.226532 1057.091309,331.810028 1060.867310,330.883362 
	C1061.998657,330.605713 1063.319458,328.134460 1063.309814,326.676392 
	C1063.263062,319.583099 1062.325928,312.470673 1062.655884,305.409485 
	C1062.845093,301.360352 1061.458130,300.399231 1058.258423,301.209930 
	C1051.331299,302.965088 1044.356079,302.695679 1037.848389,308.267181 
	C1032.698364,312.676178 1028.835938,317.507935 1024.837280,322.610779 
	C1023.660034,324.113129 1021.765381,325.053375 1020.199463,326.251221 
	C1019.363953,324.319550 1017.939209,322.425629 1017.812561,320.448517 
	C1017.526611,315.986115 1018.077271,311.475159 1017.905762,306.998566 
	C1017.799622,304.227386 1016.875183,301.966675 1013.114197,302.001984 
	C998.527283,302.138855 983.938049,302.023102 969.349670,302.002502 
	C968.183838,302.000854 967.014404,302.067871 965.852905,301.998199 
	C962.899048,301.821045 960.799133,302.952515 960.755188,306.071777 
	C960.676208,311.672882 960.699036,317.296112 961.178650,322.867157 
	C961.275879,323.995850 963.586304,325.807281 964.873840,325.805176 
	C969.786438,325.797089 974.772949,325.578583 979.591125,324.682251 
	C985.570496,323.569916 988.988953,326.737732 988.828613,332.708679 
	C988.368652,349.826599 988.134155,366.962311 988.424011,384.080658 
	C988.498901,388.503601 987.189026,389.974915 983.339966,389.900635 
	C979.553467,389.827576 975.768738,389.248199 971.992126,389.325897 
	C970.791199,389.350586 968.667847,390.685394 968.590393,391.563934 
	C968.139648,396.676025 968.101562,401.830414 968.074463,406.971283 
	C968.062256,409.275940 968.603271,411.095581 971.717712,411.125214 
	C993.512939,411.332458 1015.306152,411.780029 1037.101440,411.908691 
	C1042.974121,411.943390 1044.315063,409.846558 1043.182617,403.195404 
z"/>
<path fill="#ECB414" opacity="1.000000" stroke="none" 
	d="
M366.369202,498.588379 
	C357.140015,500.920105 349.190613,499.463348 343.813232,491.623932 
	C338.685272,484.148102 338.515076,476.032257 343.060425,468.032196 
	C348.458740,458.530914 359.370758,455.463837 368.920013,460.720856 
	C370.188110,461.418915 371.425507,462.172607 373.266968,463.243622 
	C373.266968,458.244781 373.266968,453.879242 373.266968,449.170135 
	C369.991211,448.284485 363.596252,450.039886 366.577118,442.226624 
	C371.206421,442.226624 375.963562,442.226624 381.299835,442.226624 
	C381.299835,446.519836 381.291382,450.793243 381.301514,455.066589 
	C381.325226,465.061646 381.533112,475.060608 381.309967,485.050049 
	C381.204620,489.766510 381.140228,493.741302 387.514740,492.065918 
	C389.510315,498.351685 389.217163,498.778046 383.271973,498.842865 
	C381.606262,498.861023 379.872345,499.157806 378.292145,498.794403 
	C376.423553,498.364655 374.687592,497.358093 372.894104,496.601593 
	C372.959320,496.041290 373.024506,495.480957 373.089722,494.920654 
	C370.972382,496.093658 368.855042,497.266663 366.369202,498.588379 
M373.560425,480.908539 
	C373.388611,478.775604 373.561127,476.542664 372.976410,474.529663 
	C371.565308,469.671661 368.073822,466.743439 363.225281,465.543823 
	C358.724670,464.430298 355.091583,466.088531 352.124237,469.469421 
	C347.802429,474.393433 347.141876,480.142548 350.210846,486.098175 
	C352.480988,490.503632 357.203949,493.360291 362.071075,492.734680 
	C368.485199,491.910187 371.786987,487.598450 373.560425,480.908539 
z"/>
<path fill="#EBB115" opacity="1.000000" stroke="none" 
	d="
M258.358154,463.951599 
	C255.314514,472.900665 250.439362,476.554382 240.557480,477.077576 
	C237.257385,477.252289 233.940262,477.105225 230.302307,477.105225 
	C230.302307,482.170868 230.302307,486.731476 230.302307,491.698792 
	C232.622726,491.698792 234.695648,491.698792 236.647491,491.698792 
	C238.575424,498.250854 238.216797,498.798798 232.168564,498.874756 
	C228.172134,498.924927 224.174805,498.935822 220.178070,498.919861 
	C214.031372,498.895294 213.879837,498.685669 214.966614,491.890045 
	C215.820511,491.819733 216.751160,491.743866 217.681686,491.666168 
	C218.646042,491.585632 219.610275,491.503296 220.718964,491.409515 
	C220.861832,490.262817 221.085037,489.297852 221.086761,488.332458 
	C221.110001,475.365814 221.102341,462.399139 221.102341,449.154724 
	C217.326782,448.524323 212.465881,448.920288 214.959305,441.827362 
	C218.142014,441.827362 221.715393,441.781128 225.287140,441.837708 
	C231.279739,441.932648 237.289001,441.853149 243.258255,442.293915 
	C249.134552,442.727783 254.324936,444.777405 257.363647,451.325531 
	C257.887787,456.000641 258.122986,459.976135 258.358154,463.951599 
M229.960358,457.528839 
	C229.944534,471.693451 230.220963,471.984070 241.678116,469.851471 
	C241.841537,469.821045 242.007782,469.804077 242.169647,469.767395 
	C247.109802,468.646942 249.675583,465.462982 249.908081,460.166809 
	C250.142502,454.826813 247.600876,450.625397 242.760437,449.613617 
	C238.800522,448.785889 234.663193,448.806946 229.962738,448.395538 
	C229.962738,451.656860 229.962738,454.102722 229.960358,457.528839 
z"/>
<path fill="#ECB416" opacity="1.000000" stroke="none" 
	d="
M572.823364,468.226288 
	C577.886963,478.403442 576.936462,486.521484 570.039246,493.815155 
	C563.999573,500.201965 554.484375,502.148743 546.666626,498.597046 
	C538.123169,494.715698 533.262146,486.207916 534.160950,476.709564 
	C534.966431,468.197662 541.023010,461.035889 549.288208,458.821960 
	C558.431030,456.372925 567.096130,459.741821 572.823364,468.226288 
M550.273193,491.392120 
	C558.063538,494.303528 564.637085,491.081421 567.022339,483.182190 
	C569.187500,476.011902 564.894409,467.805176 558.064697,466.058655 
	C551.051270,464.265106 543.667236,469.437286 542.671387,477.252747 
	C541.911804,483.213623 544.333374,487.940948 550.273193,491.392120 
z"/>
<path fill="#ECB416" opacity="1.000000" stroke="none" 
	d="
M303.090149,460.054382 
	C308.296021,459.600708 313.729065,457.971741 318.662781,458.925598 
	C330.840973,461.280029 337.212250,473.599274 333.646729,486.066986 
	C330.716217,496.314209 318.044159,502.711884 307.489075,499.273071 
	C295.835541,495.476410 289.880096,483.060272 294.221130,471.605927 
	C294.456726,470.984253 294.719482,470.372864 295.260742,469.174683 
	C298.064636,465.746552 300.577393,462.900452 303.090149,460.054382 
M303.118958,486.152710 
	C307.398499,492.051239 313.194580,494.182129 318.444153,491.786865 
	C324.116821,489.198517 327.300690,482.860413 326.099915,476.546875 
	C324.952881,470.515961 319.808044,465.866180 314.145233,465.742584 
	C308.469360,465.618683 302.408539,470.275848 301.492767,476.364197 
	C301.056854,479.262238 302.311676,482.414642 303.118958,486.152710 
z"/>
<path fill="#F6B00B" opacity="1.000000" stroke="none" 
	d="
M1069.032959,414.536011 
	C1064.893921,414.538147 1061.246460,414.538147 1057.170898,414.538147 
	C1057.170898,405.559326 1057.170898,396.866943 1057.170898,387.780945 
	C1067.030396,387.780945 1076.892944,387.780945 1087.068237,387.780945 
	C1087.068237,396.552643 1087.068237,405.095306 1087.068237,414.533844 
	C1081.042847,414.533844 1075.283813,414.533844 1069.032959,414.536011 
z"/>
<path fill="#E8B013" opacity="1.000000" stroke="none" 
	d="
M404.723022,484.957306 
	C405.400543,488.561188 404.734985,493.169006 410.622253,492.893768 
	C416.430450,492.622284 421.056732,488.463928 421.093903,483.414734 
	C421.135162,477.813080 421.103363,472.210876 421.103363,466.711884 
	C413.936462,465.544525 413.936462,465.544525 414.365265,459.810791 
	C418.996552,459.810791 423.671600,459.810791 428.807007,459.810791 
	C428.807007,470.530670 428.807007,480.947540 428.807007,491.725952 
	C431.282867,491.935089 433.343445,492.109131 435.767029,492.313843 
	C435.767029,494.336151 435.767029,496.227783 435.767029,498.747284 
	C430.441467,497.895447 424.734100,501.465210 420.129395,495.817688 
	C418.220917,496.704895 416.182617,497.854126 414.010437,498.627563 
	C404.301666,502.084625 397.715363,497.840363 397.215912,487.606079 
	C396.891724,480.963531 397.067169,474.296570 396.876526,466.866821 
	C395.580139,465.101257 394.425934,464.109436 393.183685,463.041962 
	C398.182739,459.446320 400.951508,460.033447 404.683990,465.098389 
	C404.748657,470.778320 404.813324,476.458282 404.659302,482.769470 
	C404.534729,483.919617 404.628876,484.438446 404.723022,484.957306 
z"/>
<path fill="#D3AA28" opacity="1.000000" stroke="none" 
	d="
M471.081604,405.558044 
	C470.661041,402.515717 470.212891,399.092682 470.049622,395.656128 
	C469.810822,390.629608 467.874756,388.819641 462.855682,389.289398 
	C461.206207,389.443817 459.502808,390.005371 457.925781,389.750671 
	C454.338837,389.171448 452.558380,387.766205 452.546967,383.148621 
	C452.497772,363.215973 452.902710,343.158020 450.821381,323.390045 
	C448.802094,304.211060 427.453827,293.354126 409.117096,299.726105 
	C402.454163,302.041473 396.263947,304.663208 390.702667,309.005981 
	C387.800598,311.272186 385.081146,309.470215 385.036743,305.311218 
	C384.940704,296.317291 385.050201,287.321320 385.056854,278.326172 
	C385.062286,270.996704 384.946991,263.665649 385.069305,256.338379 
	C385.132141,252.574661 383.735199,250.856094 379.805603,250.929047 
	C371.979309,251.074341 364.146393,251.043991 356.319702,250.897629 
	C352.892731,250.833557 351.487518,252.258331 351.470551,255.611115 
	C351.381317,273.241425 351.065033,290.871979 351.134491,308.501282 
	C351.202667,325.806793 351.666901,343.110443 351.900787,360.415680 
	C352.008301,368.370056 352.022491,376.326599 351.956390,384.281158 
	C351.948914,385.183868 351.145233,386.079895 350.386230,386.996582 
	C350.056061,342.687469 350.090759,298.360657 349.970490,254.034256 
	C349.960541,250.363190 350.891418,249.056381 354.716156,249.144104 
	C365.027679,249.380646 375.348206,249.224991 386.511353,249.224991 
	C386.511353,268.699738 386.511353,287.898041 386.511353,308.327789 
	C389.597687,306.546875 391.520874,305.401154 393.476807,304.314362 
	C406.011597,297.349792 419.103088,293.838745 433.212494,298.817871 
	C444.425812,302.774933 450.558929,311.427094 452.687286,322.675354 
	C454.071014,329.988220 454.553711,337.536987 454.735931,344.997253 
	C455.045013,357.654480 454.936676,370.327911 454.700806,382.988861 
	C454.629395,386.821472 456.008362,387.759003 459.585175,387.803436 
	C471.362457,387.949738 471.359589,388.070984 471.209595,400.172150 
	C471.188934,401.838379 471.190247,403.504883 471.081604,405.558044 
z"/>
<path fill="#ECB012" opacity="1.000000" stroke="none" 
	d="
M611.390808,497.004089 
	C611.301208,490.643280 611.211670,484.282440 611.302490,477.347717 
	C611.601013,476.465851 611.535583,476.199219 611.286621,475.973938 
	C611.232544,475.236023 611.178406,474.498138 611.322998,473.211578 
	C611.417297,472.119171 611.312927,471.575409 611.208496,471.031647 
	C609.322449,465.257294 607.781738,464.740326 602.111267,466.797760 
	C596.692627,468.763733 594.127563,471.888885 594.888672,477.950775 
	C595.456665,482.474670 595.000671,487.127136 595.000671,491.806519 
	C597.469971,492.029327 599.098633,492.176300 600.686096,492.319519 
	C602.678894,497.997345 602.172546,498.783508 596.451721,498.869629 
	C592.962280,498.922180 589.471619,498.928436 585.981628,498.916168 
	C579.937195,498.894928 579.884888,498.820312 580.723572,492.282867 
	C582.548401,492.147675 584.451050,492.006714 586.989807,491.818604 
	C586.989807,483.607941 586.989807,475.514191 586.702515,466.706146 
	C584.935913,464.982513 583.456543,463.973175 581.977234,462.963837 
	C582.168762,462.239319 582.360352,461.514832 582.551880,460.790314 
	C586.442566,461.255524 590.325317,461.811707 594.226990,462.149109 
	C596.302734,462.328613 598.439697,462.335449 600.498108,462.051483 
	C603.415955,461.648956 606.325500,460.291687 609.167419,460.470856 
	C612.399475,460.674683 615.811523,461.674774 616.177002,466.129242 
	C616.700378,472.509369 617.527405,478.864990 618.028198,485.246490 
	C618.366455,489.556854 616.476624,494.903351 624.458496,495.044525 
	C624.176392,495.697723 623.894287,496.350891 623.612244,497.004089 
	C619.538452,497.004089 615.464600,497.004089 611.390808,497.004089 
z"/>
<path fill="#D3AA28" opacity="1.000000" stroke="none" 
	d="
M618.651611,345.343567 
	C618.977905,346.199860 619.861816,347.728577 619.430908,348.625549 
	C611.898193,364.302338 604.222961,379.910797 596.535461,395.512848 
	C594.063843,400.529053 591.467712,405.483917 588.556091,411.197693 
	C590.688049,411.586151 592.055847,412.049377 593.424622,412.052643 
	C613.246094,412.100006 633.067993,412.131989 652.889282,412.059082 
	C659.171875,412.035980 660.233887,410.436493 659.432861,404.087158 
	C659.083008,401.314301 659.137207,398.430664 659.450806,395.647247 
	C659.991821,390.845642 658.940979,389.331665 654.055725,389.030731 
	C650.946289,388.839203 647.754700,389.146515 644.747864,388.520172 
	C643.501282,388.260529 641.748596,386.152039 641.741760,384.876221 
	C641.667480,371.064301 642.511963,357.219177 641.807312,343.449554 
	C641.389465,335.284302 646.035522,332.587128 651.882446,330.202881 
	C657.520935,327.903687 663.512024,326.595123 669.285217,329.203217 
	C671.319275,330.122162 673.361023,332.815613 673.838501,335.034668 
	C675.017212,340.512207 675.760132,346.177216 675.843201,351.779236 
	C676.092651,368.598846 675.942932,385.424438 675.957520,403.068481 
	C675.389526,405.581360 674.813049,407.273499 674.236633,408.965607 
	C674.169373,388.816956 674.139465,368.668091 674.001709,348.519897 
	C673.975647,344.706116 673.884277,340.826294 673.176880,337.099579 
	C672.182800,331.862518 669.139404,329.030243 664.073181,329.942413 
	C657.830078,331.066467 651.806274,333.530396 645.796143,335.713867 
	C644.704773,336.110413 643.440613,337.934814 643.429016,339.111603 
	C643.272400,354.907104 643.324097,370.704681 643.324097,387.295288 
	C649.485657,387.295288 655.208130,387.295288 661.012878,387.295288 
	C661.012878,396.494659 661.012878,404.891846 661.012878,413.652344 
	C635.891724,413.652344 611.140503,413.652344 585.498108,413.652344 
	C596.669617,390.724762 607.633484,368.223358 618.651611,345.343567 
z"/>
<path fill="#E8B118" opacity="1.000000" stroke="none" 
	d="
M264.003967,459.007324 
	C265.395386,459.091156 266.786835,459.174957 268.954651,459.278046 
	C271.814911,459.525787 273.898773,459.754272 275.982666,459.982758 
	C275.982666,459.982758 275.975586,460.011597 275.979309,460.408875 
	C275.983063,462.517578 275.983063,464.228973 275.983063,465.940399 
	C280.221191,458.932159 286.448059,459.455353 292.756805,460.169830 
	C294.215424,465.574829 291.808655,467.041992 287.048157,467.273712 
	C281.725861,467.532776 278.607697,470.800201 277.967438,476.127350 
	C277.654938,478.727570 277.897522,481.394562 277.888824,484.031311 
	C277.816315,484.465912 277.743805,484.900482 277.646667,485.974152 
	C277.756378,488.360443 277.890717,490.107666 278.027252,491.883667 
	C280.730194,491.883667 282.869843,491.883667 285.009491,491.883667 
	C285.567535,493.849274 286.125580,495.814880 286.973572,498.801636 
	C278.667969,498.801636 271.278198,499.007477 263.928436,498.558502 
	C262.934784,498.497833 262.141998,495.148285 260.832916,492.448639 
	C264.541351,492.199707 266.918732,492.040131 269.616089,491.859070 
	C269.616089,483.422180 269.616089,475.216919 269.616089,467.630127 
	C266.852844,466.244873 264.380646,465.005554 261.892883,463.007935 
	C262.066193,461.223022 262.255127,460.196381 262.444031,459.169769 
	C262.444031,459.169769 262.746399,459.285370 263.128113,459.249878 
	C263.674591,459.145386 263.839294,459.076355 264.003967,459.007324 
z"/>
<path fill="#E8B013" opacity="1.000000" stroke="none" 
	d="
M487.940125,489.206238 
	C487.919128,481.470581 487.919128,474.172668 487.919128,466.571869 
	C482.375580,466.845062 482.261200,463.631927 482.889862,459.589630 
	C484.472046,459.398224 485.901550,459.225311 487.778198,458.998322 
	C486.957764,453.572784 489.769897,450.221741 494.282623,448.058044 
	C494.112885,447.754791 494.055206,447.651764 493.997498,447.548676 
	C493.878510,447.629791 493.645477,447.735382 493.656860,447.788574 
	C494.255249,450.582886 494.558289,453.501251 495.619354,456.110962 
	C496.182098,457.494965 497.916443,458.913574 499.386932,459.295166 
	C501.475861,459.837219 503.740234,459.984100 502.840088,462.721985 
	C502.384216,464.108551 500.549988,465.850464 499.208405,465.970276 
	C496.348267,466.225769 495.485779,467.336090 495.568451,470.009003 
	C495.722687,474.993683 495.910339,479.995331 495.665283,484.969299 
	C495.416840,490.012909 496.602631,493.250977 502.962830,491.955200 
	C503.254608,492.323120 503.546417,492.691040 503.838226,493.058960 
	C502.666290,495.130127 501.989899,498.178223 500.222198,499.074768 
	C496.196259,501.116699 490.314911,498.917480 489.042328,495.494537 
	C488.361572,493.663452 488.301392,491.601624 487.940125,489.206238 
z"/>
<path fill="#DDAC22" opacity="1.000000" stroke="none" 
	d="
M901.371582,416.942444 
	C904.089355,416.552246 907.233154,416.482788 910.308044,415.986664 
	C922.858826,413.961609 935.804138,412.992950 946.553772,405.178253 
	C950.944214,401.986542 954.946777,398.180267 958.676025,394.229095 
	C959.409790,393.451599 958.565430,389.467285 957.621155,389.102051 
	C951.504395,386.736237 945.230896,384.637054 938.838684,383.215027 
	C937.148315,382.838959 934.559387,384.808319 932.898560,386.281799 
	C925.089050,393.210297 916.006836,395.807404 905.755188,394.949371 
	C892.090393,393.805756 881.367371,380.665710 880.139893,367.719543 
	C880.053528,366.809265 880.986267,365.802368 881.711060,364.907898 
	C882.935913,376.143890 887.499207,385.160706 897.927795,390.211945 
	C908.722656,395.440552 919.765198,394.318207 928.258118,386.530731 
	C935.738586,379.671692 942.303894,380.013885 950.443542,383.565125 
	C955.092651,385.593506 960.116394,386.763428 966.065613,388.670624 
	C963.557312,392.062805 961.776123,394.981171 959.509338,397.454407 
	C945.016113,413.267517 926.377930,418.040222 905.745178,417.332336 
	C904.417297,417.286743 903.092346,417.157349 901.371582,416.942444 
z"/>
<path fill="#FAB907" opacity="1.000000" stroke="none" 
	d="
M457.100220,458.402374 
	C457.509216,458.335541 457.918182,458.268707 458.872681,458.529297 
	C463.049591,459.854706 466.649963,461.523834 470.319702,461.693573 
	C475.836121,461.948700 476.360260,461.911346 475.974152,467.678192 
	C475.880371,469.078430 474.819031,470.413879 474.202576,471.779083 
	C473.020844,471.047424 471.852844,470.292358 470.653656,469.590515 
	C469.387909,468.849731 468.092438,468.159790 466.809937,467.447632 
	C466.623444,467.388489 466.436920,467.329346 465.883240,466.762695 
	C462.558746,462.999420 458.796570,463.488037 455.397095,464.753448 
	C447.758514,467.596863 446.544983,474.515076 446.243347,481.399384 
	C446.022736,486.434235 449.944305,489.590973 453.461090,492.423920 
	C454.692841,493.416199 457.063690,492.994385 458.914368,493.218323 
	C460.023163,493.186066 461.131958,493.153809 462.931824,493.358582 
	C465.752136,492.646484 467.891174,491.718506 470.007599,490.741547 
	C471.667114,489.975555 473.298676,489.148956 476.098663,487.787018 
	C472.758118,496.342041 461.806183,500.599060 454.642914,497.765533 
	C452.761841,497.021515 450.603577,496.978363 448.572601,496.613342 
	C448.572601,496.613342 448.434601,496.613129 448.490479,496.190704 
	C448.117737,494.924866 447.868011,493.904053 447.233765,493.264618 
	C437.738251,483.690704 440.264435,467.750641 452.239044,461.621552 
	C453.958252,460.741577 455.484619,459.484802 457.100220,458.402374 
z"/>
<path fill="#D3AA28" opacity="1.000000" stroke="none" 
	d="
M727.505310,320.959534 
	C727.196716,322.997131 726.844482,325.323517 725.953918,327.421417 
	C719.432617,342.783783 718.308289,358.576416 722.135803,374.731262 
	C722.930786,378.086639 724.614136,381.224884 725.512024,384.564301 
	C726.408875,387.900085 725.765564,390.211426 721.318359,389.378174 
	C719.259338,388.992401 717.031616,389.270508 714.909302,389.507141 
	C710.353882,390.015045 708.817444,388.277100 708.791077,383.698639 
	C708.688660,365.915649 708.890381,348.101898 707.842224,330.366791 
	C707.382812,322.594208 704.930847,314.668976 698.602051,308.892700 
	C697.947693,308.295441 697.786865,307.157349 697.469177,305.912903 
	C706.251343,311.862732 709.459961,321.115326 709.934692,331.144073 
	C710.689819,347.095642 710.584412,363.087585 710.867432,379.062012 
	C711.048035,389.258057 710.350952,387.245789 719.540588,387.533936 
	C720.838562,387.574615 722.138916,387.539551 724.612244,387.539551 
	C716.029541,364.651703 715.809814,342.564545 727.505310,320.959534 
z"/>
<path fill="#DDAC22" opacity="1.000000" stroke="none" 
	d="
M801.578369,403.401062 
	C802.638367,404.986725 804.147095,406.928467 804.609192,409.093567 
	C805.203613,411.879395 806.297729,413.065155 809.217468,413.044312 
	C822.376587,412.950256 835.537048,413.048248 848.696289,412.965485 
	C850.463989,412.954376 852.227722,412.308899 854.153076,411.925385 
	C854.507996,407.577820 854.661865,403.487427 855.258789,399.462769 
	C855.498901,397.843658 856.710876,396.368744 857.480591,394.828186 
	C858.915405,395.554779 860.768921,395.929993 861.719727,397.062805 
	C870.329041,407.320343 881.736328,411.871643 894.574280,413.787201 
	C895.741882,413.961395 896.744019,415.244720 897.885254,416.322632 
	C882.274719,414.848022 868.790527,408.524353 857.182739,395.722229 
	C857.182739,402.734222 857.182739,408.263428 857.182739,414.249268 
	C838.487549,414.249268 820.309937,414.249268 801.561951,414.249268 
	C801.561951,410.683502 801.561951,407.269989 801.578369,403.401062 
z"/>
<path fill="#DDAC22" opacity="1.000000" stroke="none" 
	d="
M724.174194,412.132141 
	C724.507446,407.389343 724.644714,402.619995 725.282776,397.918549 
	C725.498718,396.327362 726.678894,394.189911 727.982056,393.641479 
	C728.992310,393.216339 731.366028,394.489563 732.300415,395.668274 
	C740.197144,405.630524 749.897278,412.796356 762.849609,413.661438 
	C775.035095,414.475403 786.404907,411.616730 795.855957,403.093597 
	C796.919128,402.134766 799.063904,402.375336 800.856323,402.349426 
	C793.653992,406.710175 786.698669,411.941376 778.869873,414.614929 
	C761.642456,420.498047 742.377625,412.680298 732.043457,398.570435 
	C731.123230,397.313965 730.154175,396.093231 728.088867,395.225372 
	C728.088867,400.111420 728.260132,405.007385 727.977539,409.877014 
	C727.899536,411.219818 726.468262,412.484070 725.276184,413.480377 
	C724.654297,412.828308 724.414246,412.480225 724.174194,412.132141 
z"/>
<path fill="#D3AA28" opacity="1.000000" stroke="none" 
	d="
M657.496094,302.834045 
	C654.007446,305.641815 650.283325,308.663483 646.246521,311.184357 
	C643.792786,312.716644 641.793518,311.468689 642.110596,308.529327 
	C642.766724,302.446472 639.410095,301.813782 634.534058,301.867584 
	C619.932983,302.028748 619.781189,302.254852 613.968628,315.625092 
	C609.818726,325.170654 604.949890,334.403656 600.234863,344.120148 
	C606.019226,344.120148 611.392883,344.120148 616.913208,344.426392 
	C610.427856,345.968933 603.795837,347.205200 595.994812,348.659393 
	C599.574951,341.290161 602.645752,334.953918 605.730286,328.624329 
	C609.806580,320.259491 613.810547,311.857300 618.058838,303.580566 
	C618.755737,302.222992 620.509766,300.573761 621.839539,300.514984 
	C628.778564,300.208405 635.738342,300.372009 642.936401,300.372009 
	C643.349915,303.826721 643.671387,306.512482 644.039917,309.590942 
	C648.679260,307.196930 652.904053,305.016876 657.496094,302.834045 
z"/>
<path fill="#D3AA28" opacity="1.000000" stroke="none" 
	d="
M402.901855,398.631653 
	C402.236511,397.763092 401.011353,396.316864 401.227020,395.133118 
	C402.177368,389.916718 399.097321,389.717163 395.391174,389.891541 
	C393.733948,389.969482 392.024689,390.029663 390.411102,389.721069 
	C386.990448,389.066833 384.888733,387.477692 384.943451,383.343689 
	C385.141876,368.348297 385.148926,353.346771 384.943146,338.351471 
	C384.866913,332.794861 388.593353,330.782135 392.590149,329.107391 
	C396.255890,327.571381 400.158905,326.516785 404.039459,325.596130 
	C411.558258,323.812286 417.752899,328.639923 417.927948,336.317627 
	C417.988312,338.965454 417.715790,341.620850 417.404053,344.630798 
	C417.091187,342.339203 417.006073,339.687286 416.840790,337.040405 
	C416.440979,330.636993 412.967194,326.593414 406.653259,327.503113 
	C400.426453,328.400238 394.424927,331.121887 388.476379,333.433716 
	C387.476288,333.822388 386.748627,336.188293 386.736938,337.647369 
	C386.614044,352.942108 386.713776,368.238556 386.619873,383.533722 
	C386.601562,386.511871 387.642090,387.795258 390.657196,387.703918 
	C394.614990,387.583954 398.579163,387.674438 403.005219,387.674438 
	C403.005219,391.587555 403.005219,394.881165 402.901855,398.631653 
z"/>
<path fill="#FAB907" opacity="1.000000" stroke="none" 
	d="
M529.757019,494.309082 
	C529.821228,494.901642 529.885437,495.494171 529.654785,496.424194 
	C529.359985,496.761688 528.921875,496.904266 528.460571,496.942657 
	C522.684265,497.024994 517.369202,497.068909 512.009521,497.060547 
	C511.964874,497.008270 511.884827,496.900024 511.897827,496.553497 
	C511.909332,495.513611 511.907898,494.820282 511.941437,494.076721 
	C511.976410,494.026550 512.046631,493.926453 512.340698,494.062195 
	C515.805847,494.579590 518.256836,494.181763 517.197876,489.674347 
	C517.174438,488.953796 517.150513,488.542358 517.308228,487.770813 
	C517.335205,484.260742 517.180603,481.110840 517.035034,477.546478 
	C517.583740,471.459015 519.422729,465.332001 511.335510,462.810181 
	C516.328247,459.899261 521.530273,460.883972 521.922852,464.585449 
	C522.390503,468.995178 522.363892,473.473267 522.307556,477.918610 
	C522.236938,483.480530 521.235352,489.156586 525.202637,494.215088 
	C525.858826,494.318054 526.418152,494.221710 527.325500,494.118469 
	C528.368042,494.177399 529.062561,494.243225 529.757019,494.309082 
z"/>
<path fill="#D3AA28" opacity="1.000000" stroke="none" 
	d="
M611.402832,497.395996 
	C615.464600,497.004089 619.538452,497.004089 623.612244,497.004089 
	C623.894287,496.350891 624.176392,495.697723 624.458496,495.044525 
	C616.476624,494.903351 618.366455,489.556854 618.028198,485.246490 
	C617.527405,478.864990 616.700378,472.509369 616.177002,466.129242 
	C615.811523,461.674774 612.399475,460.674683 609.167419,460.470856 
	C606.325500,460.291687 603.415955,461.648956 600.498108,462.051483 
	C598.439697,462.335449 596.302734,462.328613 594.226990,462.149109 
	C590.325317,461.811707 586.442566,461.255524 582.551880,460.790314 
	C582.360352,461.514832 582.168762,462.239319 581.977234,462.963837 
	C583.456543,463.973175 584.935913,464.982513 586.603882,466.209900 
	C585.630493,466.395721 584.215271,466.767609 583.366394,466.235687 
	C582.125793,465.458313 580.536865,464.058319 580.496216,462.875610 
	C580.455444,461.689331 581.992310,459.564606 583.081970,459.391968 
	C586.164978,458.903473 589.411011,458.916809 592.514282,459.326965 
	C593.863525,459.505310 595.020508,461.138062 596.528625,462.316376 
	C599.171082,461.368805 602.299927,459.753815 605.612366,459.155060 
	C614.189209,457.604767 618.240051,460.755524 618.937561,469.426514 
	C619.390015,475.050995 619.284973,480.719604 619.462219,486.367401 
	C619.518188,488.151947 619.679260,489.933258 619.799500,491.830444 
	C622.032166,491.944366 623.818665,492.035553 625.562683,492.124542 
	C626.815002,498.554626 626.619751,498.923553 620.407654,498.818207 
	C617.405090,498.767303 614.412170,498.149200 611.402832,497.395996 
z"/>
<path fill="#D3AA28" opacity="1.000000" stroke="none" 
	d="
M349.572021,387.354858 
	C348.252106,388.003967 346.560486,389.127533 344.709381,389.546539 
	C343.349304,389.854401 341.780029,389.063721 340.304535,389.066193 
	C333.780701,389.077026 332.802094,390.177673 332.945221,396.600922 
	C333.034058,400.586853 333.297546,404.621460 332.813110,408.551666 
	C332.396301,411.933044 333.648590,413.298523 336.674957,413.365997 
	C346.628815,413.588074 356.585938,413.857758 366.540344,413.809479 
	C375.829346,413.764465 385.115265,413.266296 394.404877,413.099945 
	C401.871521,412.966248 401.856384,413.053741 402.009552,405.635681 
	C402.036743,404.319427 402.267700,403.007446 402.599976,401.338013 
	C402.795380,405.257568 402.795380,409.532562 402.795380,414.705322 
	C396.207184,414.705322 389.783936,414.698883 383.360657,414.706635 
	C367.577759,414.725677 351.793762,414.656494 336.012848,414.844666 
	C332.329437,414.888580 330.984924,413.726227 331.088379,410.019897 
	C331.290863,402.765045 331.147827,395.500519 331.147827,387.527222 
	C337.596924,387.527222 343.364441,387.527222 349.572021,387.354858 
z"/>
<path fill="#E4B940" opacity="1.000000" stroke="none" 
	d="
M838.757568,386.633301 
	C838.355713,387.016113 837.969360,387.043640 837.294678,387.109314 
	C837.006226,387.147430 836.930115,387.065094 836.909302,386.691467 
	C836.853882,385.876892 836.819275,385.435944 836.784607,384.994995 
	C836.549500,379.360718 836.079834,373.724762 836.119385,368.092407 
	C836.307251,341.330231 836.749939,314.569458 836.853455,287.807220 
	C836.894592,277.181854 836.344727,266.551941 835.926697,255.929520 
	C835.865662,254.379028 835.037476,252.858719 834.375183,250.911072 
	C834.446228,250.190613 834.706421,249.883530 834.966614,249.576447 
	C835.956848,250.627838 837.747131,251.637894 837.803894,252.737534 
	C838.111572,258.688721 837.990173,264.662018 837.922180,271.544464 
	C837.862976,307.808044 837.889099,343.154907 837.956299,378.501678 
	C837.960327,380.635468 838.292725,382.768646 838.472290,384.902100 
	C838.572632,385.360779 838.672913,385.819427 838.757568,386.633301 
z"/>
<path fill="#D3AA28" opacity="1.000000" stroke="none" 
	d="
M800.672607,309.793518 
	C799.573120,313.469452 797.598938,310.791748 796.545349,309.800903 
	C790.714417,304.317230 783.911194,300.989380 776.167664,299.076111 
	C763.332703,295.904907 752.172974,299.531860 742.243896,307.346375 
	C737.233643,311.289612 733.018433,316.242981 728.101562,320.779694 
	C740.217224,295.847229 774.129517,288.695496 795.973938,306.427155 
	C797.386108,307.573486 798.849854,308.656281 800.672607,309.793518 
z"/>
<path fill="#D3AA28" opacity="1.000000" stroke="none" 
	d="
M525.105713,494.015747 
	C521.235352,489.156586 522.236938,483.480530 522.307556,477.918610 
	C522.363892,473.473267 522.390503,468.995178 521.922852,464.585449 
	C521.530273,460.883972 516.328247,459.899261 511.335510,462.810181 
	C519.422729,465.332001 517.583740,471.459015 517.025635,478.006592 
	C517.046997,481.964417 517.086792,485.047668 517.126587,488.130951 
	C517.150513,488.542358 517.174438,488.953796 516.972656,489.679138 
	C516.747009,489.993073 516.299438,489.990875 516.299438,489.990875 
	C516.299438,482.367340 516.299438,474.743805 516.299438,466.776337 
	C510.694122,467.075806 508.859192,464.855042 510.454041,459.751099 
	C514.673523,459.751099 519.046875,459.751099 524.165588,459.751099 
	C524.165588,470.461792 524.165588,481.008118 524.165588,490.654205 
	C526.708740,491.965302 528.312256,492.791962 529.836426,493.963867 
	C529.062561,494.243225 528.368042,494.177399 527.015076,494.079102 
	C525.939636,494.036377 525.522644,494.026062 525.105713,494.015747 
z"/>
<path fill="#0C0603" opacity="1.000000" stroke="none" 
	d="
M278.140137,483.746277 
	C277.897522,481.394562 277.654938,478.727570 277.967438,476.127350 
	C278.607697,470.800201 281.725861,467.532776 287.048157,467.273712 
	C291.808655,467.041992 294.215424,465.574829 292.756805,460.169830 
	C286.448059,459.455353 280.221191,458.932159 275.983063,465.940399 
	C275.983063,464.228973 275.983063,462.517578 275.993469,460.413513 
	C277.988373,459.419830 280.105103,459.082306 281.931305,458.165863 
	C286.437531,455.904358 292.054657,456.945251 295.975891,460.024384 
	C297.296967,461.061768 300.178131,460.112457 302.718201,460.062744 
	C300.577393,462.900452 298.064636,465.746552 295.292053,468.801697 
	C292.882690,469.024689 290.720215,468.892029 288.586151,469.080994 
	C282.955658,469.579559 280.523315,472.221710 279.932983,477.795837 
	C279.729523,479.717194 278.922668,481.574646 278.140137,483.746277 
M294.599731,467.073639 
	C294.599731,467.073639 294.465973,466.875153 294.465973,466.875153 
	C294.465973,466.875153 294.478668,467.130188 294.599731,467.073639 
z"/>
<path fill="#D3AA28" opacity="1.000000" stroke="none" 
	d="
M834.515137,249.449707 
	C834.706421,249.883530 834.446228,250.190613 834.064819,250.655228 
	C826.334778,250.858734 818.726013,250.916626 811.117188,250.947144 
	C804.140991,250.975113 802.952271,252.106842 802.937683,258.949280 
	C802.920410,267.056030 802.985291,275.163330 802.900696,283.269196 
	C802.882324,285.024567 802.379639,286.774872 801.792358,288.705658 
	C801.417297,276.903839 801.412231,264.923035 801.241638,252.944565 
	C801.195068,249.677261 802.821106,249.129288 805.588989,249.169250 
	C815.079285,249.306351 824.571899,249.284302 834.515137,249.449707 
z"/>
<path fill="#D3AA28" opacity="1.000000" stroke="none" 
	d="
M448.804321,496.850952 
	C450.603577,496.978363 452.761841,497.021515 454.642914,497.765533 
	C461.806183,500.599060 472.758118,496.342041 476.098663,487.787018 
	C473.298676,489.148956 471.667114,489.975555 470.007599,490.741547 
	C467.891174,491.718506 465.752136,492.646484 463.344910,493.412354 
	C465.696716,491.293274 468.738861,489.720093 470.845978,487.324463 
	C473.180450,484.670288 475.239716,485.754272 476.688568,487.346313 
	C477.513184,488.252533 477.432312,491.033722 476.633514,492.198669 
	C470.732483,500.805054 459.080078,502.754883 448.804321,496.850952 
z"/>
<path fill="#D3AA28" opacity="1.000000" stroke="none" 
	d="
M456.715759,458.328430 
	C455.484619,459.484802 453.958252,460.741577 452.239044,461.621552 
	C440.264435,467.750641 437.738251,483.690704 447.233765,493.264618 
	C447.868011,493.904053 448.117737,494.924866 448.469513,496.124939 
	C440.695709,490.987579 438.643860,483.125854 440.267609,474.467041 
	C441.898041,465.772766 447.212341,459.928223 456.715759,458.328430 
z"/>
<path fill="#DDAC22" opacity="1.000000" stroke="none" 
	d="
M838.574646,384.450989 
	C838.292725,382.768646 837.960327,380.635468 837.956299,378.501678 
	C837.889099,343.154907 837.862976,307.808044 837.845703,272.047791 
	C838.110352,289.439484 838.453186,307.243896 838.577881,325.049835 
	C838.715332,344.699127 838.652588,364.349792 838.574646,384.450989 
z"/>
<path fill="#D3AA28" opacity="1.000000" stroke="none" 
	d="
M417.230865,407.408813 
	C417.883148,408.704590 418.434235,410.424988 419.209747,412.845917 
	C424.683502,413.176300 430.724548,413.855347 436.763031,413.833313 
	C446.378967,413.798126 455.991669,413.205078 465.608978,413.042542 
	C468.799896,412.988586 469.950256,411.198395 470.850159,408.308594 
	C471.348663,409.794617 471.615814,411.563080 471.977020,413.954071 
	C469.895935,414.156372 468.174530,414.457397 466.451019,414.470123 
	C452.198273,414.575348 437.945190,414.632294 423.692139,414.692871 
	C417.106140,414.720886 417.106079,414.709808 417.230865,407.408813 
z"/>
<path fill="#D3AA28" opacity="1.000000" stroke="none" 
	d="
M458.609619,493.048157 
	C457.063690,492.994385 454.692841,493.416199 453.461090,492.423920 
	C449.944305,489.590973 446.022736,486.434235 446.243347,481.399384 
	C446.544983,474.515076 447.758514,467.596863 455.397095,464.753448 
	C458.796570,463.488037 462.558746,462.999420 465.667480,466.563751 
	C457.712280,464.111145 451.647003,466.559204 449.231293,473.567413 
	C446.397095,481.789612 450.153778,489.784607 458.609619,493.048157 
z"/>
<path fill="#D3AA28" opacity="1.000000" stroke="none" 
	d="
M466.975403,467.743134 
	C468.092438,468.159790 469.387909,468.849731 470.653656,469.590515 
	C471.852844,470.292358 473.020844,471.047424 474.202576,471.779083 
	C474.819031,470.413879 475.880371,469.078430 475.974152,467.678192 
	C476.360260,461.911346 475.836121,461.948700 470.319702,461.693573 
	C466.649963,461.523834 463.049591,459.854706 459.178345,458.601440 
	C461.360718,458.656464 463.776581,459.037567 466.207062,459.254852 
	C468.172882,459.430634 470.207764,459.721436 472.120544,459.406189 
	C475.467804,458.854584 477.741516,459.183929 477.531891,463.363281 
	C477.432587,465.343140 477.893860,467.389832 477.548676,469.306763 
	C477.251862,470.955200 476.512268,473.416595 475.362640,473.828735 
	C473.123779,474.631378 470.434174,474.541870 469.458893,471.179688 
	C469.118774,470.007202 467.937836,469.078613 466.975403,467.743134 
z"/>
<path fill="#DDAC22" opacity="1.000000" stroke="none" 
	d="
M674.146118,409.299500 
	C674.813049,407.273499 675.389526,405.581360 675.980042,403.549927 
	C678.900818,411.988464 678.900818,411.991394 688.828003,412.039062 
	C699.925964,412.092316 711.023926,412.139557 722.574768,412.461487 
	C723.005798,413.029297 723.001282,413.325317 723.014038,413.621582 
	C717.300842,413.712372 711.587585,413.803162 705.045410,413.633057 
	C699.154785,413.500244 694.093079,413.628296 689.031372,413.756348 
	C686.634277,413.816589 684.237122,413.876831 681.128052,413.727173 
	C680.023438,413.492188 679.630798,413.467072 679.238159,413.441956 
	C679.238159,413.441956 679.204895,413.762665 679.204895,413.762665 
	C679.204895,413.762665 678.900879,413.869537 678.483887,413.513062 
	C676.786804,412.435547 675.506775,411.714508 674.226685,410.993469 
	C674.169617,410.540131 674.112610,410.086792 674.146118,409.299500 
z"/>
<path fill="#D3AA28" opacity="1.000000" stroke="none" 
	d="
M697.234375,305.181580 
	C692.365356,304.048309 687.297119,302.687744 682.257263,301.229492 
	C676.427368,299.542725 670.771667,300.248016 665.088135,302.032715 
	C663.066833,302.667450 660.848267,302.674042 658.290222,302.899078 
	C671.263184,297.116699 684.380554,296.772461 697.234375,305.181580 
z"/>
<path fill="#E8B118" opacity="1.000000" stroke="none" 
	d="
M523.678223,447.873657 
	C521.526733,448.652527 519.379089,449.755341 517.559998,449.357147 
	C516.471130,449.118835 515.045410,446.360260 515.310730,445.045258 
	C515.626282,443.481537 517.344360,441.617645 518.896423,441.007568 
	C522.176941,439.718170 524.187683,442.562836 523.678223,447.873657 
z"/>
<path fill="#D3AA28" opacity="1.000000" stroke="none" 
	d="
M404.786041,464.677856 
	C400.951508,460.033447 398.182739,459.446320 393.183685,463.041962 
	C394.425934,464.109436 395.580139,465.101257 396.836853,466.378448 
	C395.483490,466.477661 394.027618,466.291504 392.583527,466.106842 
	C390.501373,459.936981 390.962799,459.256378 397.167725,459.279633 
	C399.444244,459.288177 401.720795,459.281006 404.564941,459.281006 
	C404.686981,461.160309 404.787537,462.708832 404.786041,464.677856 
z"/>
<path fill="#DDAC22" opacity="1.000000" stroke="none" 
	d="
M512.054138,497.112823 
	C517.369202,497.068909 522.684265,497.024994 528.506714,497.289337 
	C529.045227,497.827972 529.076477,498.058319 529.107666,498.288635 
	C524.026733,498.491577 518.945740,498.694519 513.291992,498.598907 
	C512.497437,497.904541 512.275818,497.508667 512.054138,497.112823 
z"/>
<path fill="#0C0603" opacity="1.000000" stroke="none" 
	d="
M262.056793,459.062225 
	C262.255127,460.196381 262.066193,461.223022 261.792847,462.634125 
	C260.766205,463.240295 259.824005,463.462006 258.619995,463.817657 
	C258.122986,459.976135 257.887787,456.000641 257.571442,451.570923 
	C258.883392,453.729370 260.276459,456.342010 262.056793,459.062225 
z"/>
<path fill="#0C0603" opacity="1.000000" stroke="none" 
	d="
M284.879333,491.569489 
	C282.869843,491.883667 280.730194,491.883667 278.027252,491.883667 
	C277.890717,490.107666 277.756378,488.360443 277.754456,486.291260 
	C280.174286,487.731293 282.461761,489.493317 284.879333,491.569489 
z"/>
<path fill="#DDAC22" opacity="1.000000" stroke="none" 
	d="
M516.156189,490.455139 
	C516.299438,489.990875 516.747009,489.993073 516.972168,489.988281 
	C518.256836,494.181763 515.805847,494.579590 512.330078,493.788757 
	C512.026001,493.013245 512.026672,492.646912 512.027344,492.280579 
	C512.999390,492.164795 513.971436,492.049011 515.396729,491.850098 
	C515.850037,491.766907 515.801697,491.867859 515.801697,491.867859 
	C515.872070,491.551727 515.942505,491.235565 516.156189,490.455139 
z"/>
<path fill="#D3AA28" opacity="1.000000" stroke="none" 
	d="
M689.487793,413.850250 
	C694.093079,413.628296 699.154785,413.500244 704.581055,413.547211 
	C699.945129,413.796173 694.944702,413.870148 689.487793,413.850250 
z"/>
<path fill="#0C0603" opacity="1.000000" stroke="none" 
	d="
M275.925385,459.654724 
	C273.898773,459.754272 271.814911,459.525787 269.361450,459.172668 
	C271.325348,458.120087 273.720612,455.667297 275.925385,459.654724 
z"/>
<path fill="#D3AA28" opacity="1.000000" stroke="none" 
	d="
M511.643066,492.244049 
	C512.026672,492.646912 512.026001,493.013245 512.036011,493.653015 
	C512.046631,493.926453 511.976410,494.026550 511.763245,494.270691 
	C511.661652,495.309875 511.773254,496.104950 511.884827,496.900024 
	C511.884827,496.900024 511.964874,497.008270 512.009521,497.060547 
	C512.275818,497.508667 512.497437,497.904541 512.832031,498.499420 
	C508.416138,497.565308 509.521942,494.968384 511.643066,492.244049 
z"/>
<path fill="#D3AA28" opacity="1.000000" stroke="none" 
	d="
M801.220886,294.414642 
	C801.436340,296.462280 801.534424,298.942596 801.445435,301.730713 
	C801.206787,299.641479 801.155151,297.244385 801.220886,294.414642 
z"/>
<path fill="#D3AA28" opacity="1.000000" stroke="none" 
	d="
M674.159912,411.366791 
	C675.506775,411.714508 676.786804,412.435547 678.359192,413.414795 
	C677.132080,413.028717 675.612610,412.384430 674.159912,411.366791 
z"/>
<path fill="#D3AA28" opacity="1.000000" stroke="none" 
	d="
M723.338989,413.713318 
	C723.001282,413.325317 723.005798,413.029297 723.044006,412.516907 
	C723.243530,412.258179 723.426636,412.216064 723.891968,412.153046 
	C724.414246,412.480225 724.654297,412.828308 724.938904,413.389618 
	C724.543579,413.670258 724.103760,413.737671 723.338989,413.713318 
z"/>
<path fill="#D3AA28" opacity="1.000000" stroke="none" 
	d="
M404.817871,484.647034 
	C404.628876,484.438446 404.534729,483.919617 404.577606,483.235382 
	C404.780640,483.492249 404.846649,483.914490 404.817871,484.647034 
z"/>
<path fill="#D3AA28" opacity="1.000000" stroke="none" 
	d="
M801.142822,305.256470 
	C801.344421,305.494476 801.445312,306.082336 801.387329,306.853699 
	C801.166443,306.560242 801.104309,306.083282 801.142822,305.256470 
z"/>
<path fill="#D3AA28" opacity="1.000000" stroke="none" 
	d="
M611.125732,471.362061 
	C611.312927,471.575409 611.417297,472.119171 611.384521,472.844910 
	C611.179138,472.582092 611.111023,472.137268 611.125732,471.362061 
z"/>
<path fill="#D3AA28" opacity="1.000000" stroke="none" 
	d="
M515.835693,491.853546 
	C515.801697,491.867859 515.850037,491.766907 515.878662,491.761047 
	C515.907288,491.755188 515.869751,491.839233 515.835693,491.853546 
z"/>
<path fill="#D3AA28" opacity="1.000000" stroke="none" 
	d="
M417.193237,392.229950 
	C417.545135,392.189087 417.620331,392.457123 417.391296,392.886719 
	C417.227661,392.826324 417.170837,392.656464 417.193237,392.229950 
z"/>
<path fill="#0C0603" opacity="1.000000" stroke="none" 
	d="
M263.889984,458.901398 
	C263.839294,459.076355 263.674591,459.145386 263.251160,459.144745 
	C263.186493,458.770172 263.447662,458.676971 263.889984,458.901398 
z"/>
<path fill="#D3AA28" opacity="1.000000" stroke="none" 
	d="
M611.208984,476.229553 
	C611.535583,476.199219 611.601013,476.465851 611.383728,476.885437 
	C611.233459,476.826416 611.182434,476.655792 611.208984,476.229553 
z"/>
<path fill="#D3AA28" opacity="1.000000" stroke="none" 
	d="
M679.473206,413.659241 
	C679.630798,413.467072 680.023438,413.492188 680.686279,413.638641 
	C680.540405,413.798828 680.124329,413.837708 679.473206,413.659241 
z"/>
<path fill="#D3AA28" opacity="1.000000" stroke="none" 
	d="
M529.410278,498.130280 
	C529.076477,498.058319 529.045227,497.827972 528.967957,497.250946 
	C528.921875,496.904266 529.359985,496.761688 529.586609,496.716888 
	C529.779785,497.105377 529.746277,497.538635 529.410278,498.130280 
z"/>
<path fill="#060302" opacity="1.000000" stroke="none" 
	d="
M801.180908,349.006836 
	C801.194885,350.103760 801.208923,351.200714 801.283936,353.134949 
	C800.318848,360.636597 800.200317,367.613373 798.040527,373.887482 
	C795.245422,382.006836 788.633972,386.884613 779.810059,387.121002 
	C771.027710,387.356323 764.465881,382.878876 760.679993,375.067749 
	C754.744019,362.820221 754.536255,350.309601 760.872437,338.135590 
	C764.664551,330.849487 770.862549,326.522125 779.349915,326.700317 
	C788.021606,326.882355 793.999329,331.596008 797.696350,339.165039 
	C799.213867,342.271759 800.040161,345.716095 801.180908,349.006836 
z"/>
<path fill="#0C0603" opacity="1.000000" stroke="none" 
	d="
M900.098145,321.949371 
	C914.053772,318.174255 929.738831,331.915131 928.740906,343.724792 
	C913.690430,343.724792 898.611938,343.724792 883.569946,343.724792 
	C882.285828,334.481262 888.807617,325.840149 900.098145,321.949371 
z"/>
<path fill="#DDAC22" opacity="1.000000" stroke="none" 
	d="
M801.368713,348.678101 
	C800.040161,345.716095 799.213867,342.271759 797.696350,339.165039 
	C793.999329,331.596008 788.021606,326.882355 779.349915,326.700317 
	C770.862549,326.522125 764.664551,330.849487 760.872437,338.135590 
	C754.536255,350.309601 754.744019,362.820221 760.679993,375.067749 
	C764.465881,382.878876 771.027710,387.356323 779.810059,387.121002 
	C788.633972,386.884613 795.245422,382.006836 798.040527,373.887482 
	C800.200317,367.613373 800.318848,360.636597 801.418823,353.524872 
	C802.301208,354.190887 803.938049,355.435303 803.785950,356.396698 
	C802.656982,363.531921 802.581360,371.307709 799.491150,377.554718 
	C793.967041,388.721893 781.127625,391.673737 769.440796,386.611786 
	C763.347839,383.972687 759.865845,378.775238 756.755310,373.741760 
	C754.690857,370.400970 754.797546,365.463013 754.686157,361.220245 
	C754.391785,350.005249 754.371033,338.530823 764.105591,330.575287 
	C777.330566,319.767151 790.301208,322.291687 799.050354,338.113373 
	C800.690918,341.080139 800.761475,344.915070 801.368713,348.678101 
z"/>
<path fill="#DDAC22" opacity="1.000000" stroke="none" 
	d="
M836.570190,385.077484 
	C836.819275,385.435944 836.853882,385.876892 836.872681,386.649109 
	C836.689758,386.373535 836.522766,385.766754 836.570190,385.077484 
z"/>
<path fill="#FEAF03" opacity="1.000000" stroke="none" 
	d="
M1043.252930,403.603760 
	C1044.315063,409.846558 1042.974121,411.943390 1037.101440,411.908691 
	C1015.306152,411.780029 993.512939,411.332458 971.717712,411.125214 
	C968.603271,411.095581 968.062256,409.275940 968.074463,406.971283 
	C968.101562,401.830414 968.139648,396.676025 968.590393,391.563934 
	C968.667847,390.685394 970.791199,389.350586 971.992126,389.325897 
	C975.768738,389.248199 979.553467,389.827576 983.339966,389.900635 
	C987.189026,389.974915 988.498901,388.503601 988.424011,384.080658 
	C988.134155,366.962311 988.368652,349.826599 988.828613,332.708679 
	C988.988953,326.737732 985.570496,323.569916 979.591125,324.682251 
	C974.772949,325.578583 969.786438,325.797089 964.873840,325.805176 
	C963.586304,325.807281 961.275879,323.995850 961.178650,322.867157 
	C960.699036,317.296112 960.676208,311.672882 960.755188,306.071777 
	C960.799133,302.952515 962.899048,301.821045 965.852905,301.998199 
	C967.014404,302.067871 968.183838,302.000854 969.349670,302.002502 
	C983.938049,302.023102 998.527283,302.138855 1013.114197,302.001984 
	C1016.875183,301.966675 1017.799622,304.227386 1017.905762,306.998566 
	C1018.077271,311.475159 1017.526611,315.986115 1017.812561,320.448517 
	C1017.939209,322.425629 1019.363953,324.319550 1020.199463,326.251221 
	C1021.765381,325.053375 1023.660034,324.113129 1024.837280,322.610779 
	C1028.835938,317.507935 1032.698364,312.676178 1037.848389,308.267181 
	C1044.356079,302.695679 1051.331299,302.965088 1058.258423,301.209930 
	C1061.458130,300.399231 1062.845093,301.360352 1062.655884,305.409485 
	C1062.325928,312.470673 1063.263062,319.583099 1063.309814,326.676392 
	C1063.319458,328.134460 1061.998657,330.605713 1060.867310,330.883362 
	C1057.091309,331.810028 1052.856934,331.226532 1049.280518,332.537445 
	C1040.166382,335.878143 1030.419434,338.734955 1026.287476,349.093414 
	C1023.283020,356.625183 1019.921936,363.954010 1021.791199,372.626434 
	C1022.553772,376.164062 1021.311035,380.197784 1020.679626,383.955200 
	C1019.965637,388.204102 1021.840820,390.376007 1026.101807,390.176758 
	C1030.753418,389.959259 1035.439209,389.763519 1040.064087,390.132965 
	C1041.364868,390.236877 1043.387085,392.257904 1043.541748,393.579407 
	C1043.910156,396.727631 1043.361084,399.983215 1043.252930,403.603760 
z"/>
<path fill="#0C0603" opacity="1.000000" stroke="none" 
	d="
M373.466553,481.294250 
	C371.786987,487.598450 368.485199,491.910187 362.071075,492.734680 
	C357.203949,493.360291 352.480988,490.503632 350.210846,486.098175 
	C347.141876,480.142548 347.802429,474.393433 352.124237,469.469421 
	C355.091583,466.088531 358.724670,464.430298 363.225281,465.543823 
	C368.073822,466.743439 371.565308,469.671661 372.976410,474.529663 
	C373.561127,476.542664 373.388611,478.775604 373.466553,481.294250 
z"/>
<path fill="#0C0603" opacity="1.000000" stroke="none" 
	d="
M229.961548,457.038696 
	C229.962738,454.102722 229.962738,451.656860 229.962738,448.395538 
	C234.663193,448.806946 238.800522,448.785889 242.760437,449.613617 
	C247.600876,450.625397 250.142502,454.826813 249.908081,460.166809 
	C249.675583,465.462982 247.109802,468.646942 242.169647,469.767395 
	C242.007782,469.804077 241.841537,469.821045 241.678116,469.851471 
	C230.220963,471.984070 229.944534,471.693451 229.961548,457.038696 
z"/>
<path fill="#0C0603" opacity="1.000000" stroke="none" 
	d="
M549.933594,491.229126 
	C544.333374,487.940948 541.911804,483.213623 542.671387,477.252747 
	C543.667236,469.437286 551.051270,464.265106 558.064697,466.058655 
	C564.894409,467.805176 569.187500,476.011902 567.022339,483.182190 
	C564.637085,491.081421 558.063538,494.303528 549.933594,491.229126 
z"/>
<path fill="#0C0603" opacity="1.000000" stroke="none" 
	d="
M302.959778,485.802246 
	C302.311676,482.414642 301.056854,479.262238 301.492767,476.364197 
	C302.408539,470.275848 308.469360,465.618683 314.145233,465.742584 
	C319.808044,465.866180 324.952881,470.515961 326.099915,476.546875 
	C327.300690,482.860413 324.116821,489.198517 318.444153,491.786865 
	C313.194580,494.182129 307.398499,492.051239 302.959778,485.802246 
z"/>
<path fill="#DDAC22" opacity="1.000000" stroke="none" 
	d="
M517.308228,487.770813 
	C517.086792,485.047668 517.046997,481.964417 517.016602,478.421021 
	C517.180603,481.110840 517.335205,484.260742 517.308228,487.770813 
z"/>
<path fill="#DDAC22" opacity="1.000000" stroke="none" 
	d="
M511.897827,496.553497 
	C511.773254,496.104950 511.661652,495.309875 511.728271,494.320862 
	C511.907898,494.820282 511.909332,495.513611 511.897827,496.553497 
z"/>
<path fill="#DDAC22" opacity="1.000000" stroke="none" 
	d="
M525.202637,494.215088 
	C525.522644,494.026062 525.939636,494.036377 526.666992,494.085999 
	C526.418152,494.221710 525.858826,494.318054 525.202637,494.215088 
z"/>
<path fill="#010000" opacity="1.000000" stroke="none" 
	d="
M294.539185,467.101929 
	C294.478668,467.130188 294.465973,466.875153 294.465973,466.875153 
	C294.465973,466.875153 294.599731,467.073639 294.539185,467.101929 
z"/>
</svg>