<?xml version="1.0" encoding="UTF-8"?>
<svg version="1.1" xmlns="http://www.w3.org/2000/svg" width="4167" height="4167">
<path d="M0 0 C1375.11 0 2750.22 0 4167 0 C4167 1375.11 4167 2750.22 4167 4167 C2791.89 4167 1416.78 4167 0 4167 C0 2791.89 0 1416.78 0 0 Z " fill="#FEFEFE" transform="translate(0,0)"/>
<path d="M0 0 C4.85936425 1.51342301 7.9700052 4.30349367 11.6875 7.625 C12.93640039 8.71870483 14.18640516 9.81114984 15.4375 10.90234375 C16.0459375 11.43456543 16.654375 11.96678711 17.28125 12.51513672 C20.30676156 15.12893804 23.44275864 17.59852154 26.578125 20.078125 C31.09661741 23.66376736 35.54068708 27.34123694 40 31 C41.83310162 32.50028317 43.66643427 34.00028408 45.5 35.5 C46.41523437 36.24894531 47.33046875 36.99789063 48.2734375 37.76953125 C50.02817784 39.20499935 51.78335155 40.63993796 53.5390625 42.07421875 C59.9483885 47.31205163 66.33943196 52.57177219 72.72753906 57.83544922 C78.47455062 62.56986763 84.23355779 67.28926029 90 72 C92.75804664 74.2562244 95.51573997 76.51288017 98.2734375 78.76953125 C100.02817784 80.20499935 101.78335155 81.63993796 103.5390625 83.07421875 C109.9483885 88.31205163 116.33943196 93.57177219 122.72753906 98.83544922 C128.47455062 103.56986763 134.23355779 108.28926029 140 113 C141.83345036 114.49985696 143.66678171 115.9998594 145.5 117.5 C146.86125 118.61375 146.86125 118.61375 148.25 119.75 C156.5 126.5 156.5 126.5 159.2734375 128.76953125 C161.02817784 130.20499935 162.78335155 131.63993796 164.5390625 133.07421875 C170.9483885 138.31205163 177.33943196 143.57177219 183.72753906 148.83544922 C189.47455062 153.56986763 195.23355779 158.28926029 201 163 C203.75804664 165.2562244 206.51573997 167.51288017 209.2734375 169.76953125 C211.02817784 171.20499935 212.78335155 172.63993796 214.5390625 174.07421875 C220.9483885 179.31205163 227.33943196 184.57177219 233.72753906 189.83544922 C239.47455062 194.56986763 245.23355779 199.28926029 251 204 C253.75804664 206.2562244 256.51573997 208.51288017 259.2734375 210.76953125 C261.02817784 212.20499935 262.78335155 213.63993796 264.5390625 215.07421875 C270.9483885 220.31205163 277.33943196 225.57177219 283.72753906 230.83544922 C289.47455062 235.56986763 295.23355779 240.28926029 301 245 C303.75804664 247.2562244 306.51573997 249.51288017 309.2734375 251.76953125 C311.02817784 253.20499935 312.78335155 254.63993796 314.5390625 256.07421875 C320.9483885 261.31205163 327.33943196 266.57177219 333.72753906 271.83544922 C339.47455062 276.56986763 345.23355779 281.28926029 351 286 C353.75804664 288.2562244 356.51573997 290.51288017 359.2734375 292.76953125 C361.02817784 294.20499935 362.78335155 295.63993796 364.5390625 297.07421875 C370.9483885 302.31205163 377.33943196 307.57177219 383.72753906 312.83544922 C389.47455062 317.56986763 395.23355779 322.28926029 401 327 C403.75804664 329.2562244 406.51573997 331.51288017 409.2734375 333.76953125 C411.02817784 335.20499935 412.78335155 336.63993796 414.5390625 338.07421875 C420.9483885 343.31205163 427.33943196 348.57177219 433.72753906 353.83544922 C439.47455062 358.56986763 445.23355779 363.28926029 451 368 C452.83345036 369.49985696 454.66678171 370.9998594 456.5 372.5 C457.4075 373.2425 458.315 373.985 459.25 374.75 C467.5 381.5 467.5 381.5 470.2734375 383.76953125 C472.02817784 385.20499935 473.78335155 386.63993796 475.5390625 388.07421875 C481.9483885 393.31205163 488.33943196 398.57177219 494.72753906 403.83544922 C500.47455062 408.56986763 506.23355779 413.28926029 512 418 C513.83345036 419.49985696 515.66678171 420.9998594 517.5 422.5 C518.41265625 423.24636719 519.3253125 423.99273438 520.265625 424.76171875 C522.04827624 426.22094612 523.82959275 427.68180602 525.609375 429.14453125 C533.35038602 435.4999471 541.1699276 441.7549625 549 448 C548.40092169 451.25329075 547.35820644 453.10664436 545.2265625 455.6171875 C544.65446045 456.29958496 544.0823584 456.98198242 543.49291992 457.68505859 C542.87650635 458.40773926 542.26009277 459.13041992 541.625 459.875 C540.3411357 461.40514995 539.05860023 462.93641575 537.77734375 464.46875 C536.81803955 465.6134375 536.81803955 465.6134375 535.83935547 466.78125 C533.22734153 469.93203082 530.69998595 473.14466092 528.1875 476.375 C524.33383769 481.31545054 520.41742636 486.19528152 516.4375 491.03515625 C509.39446671 499.6019227 502.38220345 508.19147631 495.5625 516.9375 C490.87979411 522.94200683 486.0501267 528.81659477 481.19384766 534.68115234 C477.5465898 539.09520299 473.95875211 543.54737739 470.4375 548.0625 C463.86344934 556.49207102 457.09350292 564.76001108 450.33398438 573.04101562 C444.11371372 580.6646846 437.93844806 588.31595824 431.87792969 596.06738281 C428.45554194 600.4383536 424.96356315 604.7472116 421.4375 609.03515625 C414.39446671 617.6019227 407.38220345 626.19147631 400.5625 634.9375 C395.87979411 640.94200683 391.0501267 646.81659477 386.19384766 652.68115234 C382.5465898 657.09520299 378.95875211 661.54737739 375.4375 666.0625 C368.86344934 674.49207102 362.09350292 682.76001108 355.33398438 691.04101562 C349.11371372 698.6646846 342.93844806 706.31595824 336.87792969 714.06738281 C333.45554194 718.4383536 329.96356315 722.7472116 326.4375 727.03515625 C318.81925032 736.30158494 311.26775684 745.61564328 303.87890625 755.06616211 C300.45616413 759.43751771 296.96389473 763.74680837 293.4375 768.03515625 C286.39446671 776.6019227 279.38220345 785.19147631 272.5625 793.9375 C267.87979411 799.94200683 263.0501267 805.81659477 258.19384766 811.68115234 C254.5465898 816.09520299 250.95875211 820.54737739 247.4375 825.0625 C240.86344934 833.49207102 234.09350292 841.76001108 227.33398438 850.04101562 C221.11371372 857.6646846 214.93844806 865.31595824 208.87792969 873.06738281 C205.45554194 877.4383536 201.96356315 881.7472116 198.4375 886.03515625 C195.49040747 889.61984092 192.55519652 893.21399804 189.625 896.8125 C189.07481201 897.48667969 188.52462402 898.16085937 187.95776367 898.85546875 C185.21568173 902.22687438 182.50794261 905.61790153 179.86328125 909.06640625 C179.36940918 909.70795654 178.87553711 910.34950684 178.36669922 911.01049805 C177.43833908 912.22161633 176.51639015 913.4376859 175.60205078 914.65942383 C173.34773891 917.59787793 171.52917499 919.7122179 168 921 C167.17757812 920.29875 166.35515625 919.5975 165.5078125 918.875 C159.55033342 913.80728594 153.56077215 908.80002878 147.43359375 903.9375 C139.29271014 897.45615446 131.30340954 890.78178554 123.27270508 884.16479492 C117.52566053 879.43023628 111.76653087 874.71081214 106 870 C103.24195336 867.7437756 100.48426003 865.48711983 97.7265625 863.23046875 C95.97182216 861.79500065 94.21664845 860.36006204 92.4609375 858.92578125 C86.0516115 853.68794837 79.66056804 848.42822781 73.27246094 843.16455078 C67.52544938 838.43013237 61.76644221 833.71073971 56 829 C54.16654964 827.50014304 52.33321829 826.0001406 50.5 824.5 C49.5925 823.7575 48.685 823.015 47.75 822.25 C39.5 815.5 39.5 815.5 36.7265625 813.23046875 C34.97182216 811.79500065 33.21664845 810.36006204 31.4609375 808.92578125 C25.0516115 803.68794837 18.66056804 798.42822781 12.27246094 793.16455078 C6.52544938 788.43013237 0.76644221 783.71073971 -5 779 C-7.75804664 776.7437756 -10.51573997 774.48711983 -13.2734375 772.23046875 C-15.02817784 770.79500065 -16.78335155 769.36006204 -18.5390625 767.92578125 C-24.9483885 762.68794837 -31.33943196 757.42822781 -37.72753906 752.16455078 C-43.47455062 747.43013237 -49.23355779 742.71073971 -55 738 C-57.75804664 735.7437756 -60.51573997 733.48711983 -63.2734375 731.23046875 C-65.02817784 729.79500065 -66.78335155 728.36006204 -68.5390625 726.92578125 C-74.9483885 721.68794837 -81.33943196 716.42822781 -87.72753906 711.16455078 C-93.47455062 706.43013237 -99.23355779 701.71073971 -105 697 C-107.75804664 694.7437756 -110.51573997 692.48711983 -113.2734375 690.23046875 C-115.02817784 688.79500065 -116.78335155 687.36006204 -118.5390625 685.92578125 C-124.9483885 680.68794837 -131.33943196 675.42822781 -137.72753906 670.16455078 C-143.47455062 665.43013237 -149.23355779 660.71073971 -155 656 C-157.75804664 653.7437756 -160.51573997 651.48711983 -163.2734375 649.23046875 C-165.02817784 647.79500065 -166.78335155 646.36006204 -168.5390625 644.92578125 C-174.9483885 639.68794837 -181.33943196 634.42822781 -187.72753906 629.16455078 C-193.47455062 624.43013237 -199.23355779 619.71073971 -205 615 C-207.75804664 612.7437756 -210.51573997 610.48711983 -213.2734375 608.23046875 C-215.02817784 606.79500065 -216.78335155 605.36006204 -218.5390625 603.92578125 C-224.9483885 598.68794837 -231.33943196 593.42822781 -237.72753906 588.16455078 C-243.47455062 583.43013237 -249.23355779 578.71073971 -255 574 C-257.75804664 571.7437756 -260.51573997 569.48711983 -263.2734375 567.23046875 C-265.02817784 565.79500065 -266.78335155 564.36006204 -268.5390625 562.92578125 C-274.9483885 557.68794837 -281.33943196 552.42822781 -287.72753906 547.16455078 C-293.47455062 542.43013237 -299.23355779 537.71073971 -305 533 C-306.83345036 531.50014304 -308.66678171 530.0001406 -310.5 528.5 C-311.4075 527.7575 -312.315 527.015 -313.25 526.25 C-321.5 519.5 -321.5 519.5 -324.2734375 517.23046875 C-326.02817784 515.79500065 -327.78335155 514.36006204 -329.5390625 512.92578125 C-335.9483885 507.68794837 -342.33943196 502.42822781 -348.72753906 497.16455078 C-352.77181142 493.8328579 -356.81929915 490.50527247 -360.875 487.1875 C-362.13763672 486.15302734 -362.13763672 486.15302734 -363.42578125 485.09765625 C-365.29195386 483.57696628 -367.16530074 482.0650668 -369.04296875 480.55859375 C-370.03941406 479.75550781 -371.03585937 478.95242188 -372.0625 478.125 C-372.96097656 477.40570312 -373.85945312 476.68640625 -374.78515625 475.9453125 C-377 474 -377 474 -379 471 C-372.45579659 462.57266867 -365.78602553 454.26397032 -358.98608398 446.04150391 C-355.31844571 441.60563387 -351.69009309 437.14322079 -348.109375 432.63671875 C-345.88116554 429.85145693 -343.6301447 427.08574447 -341.3762207 424.32128906 C-336.6159593 418.48262233 -331.8894412 412.62275959 -327.25 406.6875 C-323.37301157 401.72854525 -319.43577134 396.82702729 -315.4375 391.96484375 C-307.81925032 382.69841506 -300.26775684 373.38435672 -292.87890625 363.93383789 C-289.45616413 359.56248229 -285.96389473 355.25319163 -282.4375 350.96484375 C-275.39446671 342.3980773 -268.38220345 333.80852369 -261.5625 325.0625 C-256.87979411 319.05799317 -252.0501267 313.18340523 -247.19384766 307.31884766 C-243.5465898 302.90479701 -239.95875211 298.45262261 -236.4375 293.9375 C-229.86344934 285.50792898 -223.09350292 277.23998892 -216.33398438 268.95898438 C-210.11371372 261.3353154 -203.93844806 253.68404176 -197.87792969 245.93261719 C-194.45554194 241.5616464 -190.96356315 237.2527884 -187.4375 232.96484375 C-180.39446671 224.3980773 -173.38220345 215.80852369 -166.5625 207.0625 C-161.87979411 201.05799317 -157.0501267 195.18340523 -152.19384766 189.31884766 C-148.5465898 184.90479701 -144.95875211 180.45262261 -141.4375 175.9375 C-134.86344934 167.50792898 -128.09350292 159.23998892 -121.33398438 150.95898438 C-115.11371372 143.3353154 -108.93844806 135.68404176 -102.87792969 127.93261719 C-99.45554194 123.5616464 -95.96356315 119.2527884 -92.4375 114.96484375 C-85.39446671 106.3980773 -78.38220345 97.80852369 -71.5625 89.0625 C-66.87979411 83.05799317 -62.0501267 77.18340523 -57.19384766 71.31884766 C-53.5465898 66.90479701 -49.95875211 62.45262261 -46.4375 57.9375 C-39.86344934 49.50792898 -33.09350292 41.23998892 -26.33398438 32.95898438 C-19.59125818 24.69498506 -12.90531674 16.39401844 -6.33984375 7.98828125 C-4.24373944 5.3112866 -2.12933061 2.65059861 0 0 Z " fill="#FEFEFE" transform="translate(1107,1623)"/>
<path d="M0 0 C8.04651438 2.73587584 16.10965916 5.42103018 24.17442322 8.10253906 C27.12209816 9.0829618 30.06915274 10.0652382 33.01605225 11.04798889 C34.39723122 11.5084357 35.77854625 11.9684746 37.16000366 12.42808533 C40.50209886 13.54037312 43.84193576 14.6586775 47.1776886 15.78985596 C54.33463092 18.21065616 61.49524883 20.45568804 68.80366516 22.37310791 C75.19984572 24.08038203 81.57796143 25.82620736 87.93110657 27.68756104 C110.17445133 34.18704686 132.82442951 38.96545641 155.50093079 43.66900635 C158.63065852 44.32137923 161.75678829 44.98763567 164.88179016 45.66217041 C176.63952331 48.16313105 188.44036991 49.74896917 200.37983704 51.11529541 C202.97521811 51.41232437 205.56928092 51.71852684 208.16304016 52.02935791 C208.91746399 52.11927002 209.67188782 52.20918213 210.44917297 52.30181885 C211.86271766 52.47062883 213.27613605 52.64050076 214.68940735 52.81158447 C217.50794557 53.14755985 220.31519924 53.44494972 223.14741516 53.63873291 C225.61616516 53.81060791 225.61616516 53.81060791 229.17866516 54.43560791 C231.21507076 56.9733778 231.1832465 58.38085731 230.9108429 61.6362915 C230.14727261 65.59850584 228.86250607 68.9901533 227.17866516 72.62310791 C226.71705742 73.6486528 226.71705742 73.6486528 226.24612427 74.69491577 C225.23147537 76.94544937 224.20496534 79.19036695 223.17866516 81.43560791 C221.720461 84.66047041 220.26831337 87.88805373 218.81538391 91.11529541 C218.43838852 91.95027557 218.06139313 92.78525574 217.67297363 93.64553833 C214.90454085 99.78692483 212.19240828 105.95121002 209.51069641 112.13092041 C208.9406337 113.4444046 208.9406337 113.4444046 208.35905457 114.78442383 C206.87342762 118.21073677 205.38954725 121.6377928 203.90937805 125.06646729 C200.20932657 133.63410787 196.52230036 142.16781226 192.17866516 150.43560791 C191.37872131 150.41989746 190.57877747 150.40418701 189.7545929 150.38800049 C168.76245958 149.83517863 168.76245958 149.83517863 148.17866516 153.43560791 C146.95147766 153.74111572 145.72429016 154.04662354 144.45991516 154.36138916 C121.49314346 160.31279841 99.89361012 171.1653417 78.7245636 181.67584229 C75.26827109 183.3911381 71.80599916 185.09383195 68.34272766 186.79498291 C57.24148388 192.2722701 46.27086462 197.93170124 35.43476868 203.91656494 C27.51834714 208.28281282 19.50423281 212.4453359 11.47065735 216.59112549 C5.74748327 219.55337358 0.06698045 222.57348963 -5.56791687 225.70025635 C-33.54046066 241.21157749 -62.4223649 254.8659134 -91.82133484 267.43560791 C-92.44419373 267.70224243 -93.06705261 267.96887695 -93.70878601 268.24359131 C-134.62271942 285.72018245 -175.71720767 298.29415025 -219.82133484 304.43560791 C-220.51263489 304.53412048 -221.20393494 304.63263306 -221.91618347 304.73413086 C-232.18704326 306.17333874 -242.29153208 306.75406753 -252.66069031 306.6963501 C-254.95278645 306.68557759 -257.24410501 306.69635776 -259.53617859 306.70904541 C-294.29017172 306.74438105 -324.7113377 294.49203874 -349.82133484 270.43560791 C-350.51742859 269.79107666 -351.21352234 269.14654541 -351.93070984 268.48248291 C-364.30684523 256.68198172 -372.78185182 241.28925082 -378.82133484 225.43560791 C-379.4226825 226.7987915 -379.4226825 226.7987915 -380.03617859 228.18951416 C-394.62098473 260.67583879 -417.31472793 285.31426397 -450.82133484 298.43560791 C-469.89164196 305.1708358 -487.89646911 306.73647399 -507.96342468 306.72613525 C-510.29252842 306.73212828 -512.62163018 306.7389356 -514.95072937 306.74649048 C-521.24883439 306.76408343 -527.54688497 306.76884316 -533.84501219 306.77012205 C-537.79095867 306.77154855 -541.73689154 306.77582768 -545.68283463 306.78111649 C-558.77053265 306.79864615 -571.85819676 306.80795947 -584.94590656 306.80645554 C-586.00113565 306.80633567 -586.00113565 306.80633567 -587.0776825 306.80621338 C-588.13422682 306.80609074 -588.13422682 306.80609074 -589.21211548 306.80596562 C-600.6027607 306.80515437 -611.99327318 306.82425723 -623.38388006 306.85249011 C-635.12863093 306.88136679 -646.87331739 306.8950222 -658.61810458 306.89330256 C-665.1920768 306.89264351 -671.76592696 306.89832025 -678.33987045 306.91965866 C-684.5337821 306.93921577 -690.72740296 306.93904754 -696.92132568 306.9246254 C-699.17571062 306.92255736 -701.43011461 306.92711606 -703.68446732 306.93934631 C-736.29551485 307.10459571 -765.22171262 299.84306706 -792.82133484 282.43560791 C-793.10013489 284.141521 -793.10013489 284.141521 -793.38456726 285.88189697 C-794.09379564 290.20736354 -794.81413218 294.53092565 -795.53739929 298.85406494 C-795.84564768 300.70547084 -796.15110336 302.55734443 -796.45341492 304.409729 C-799.486565 322.97200189 -803.54335358 340.98014602 -809.94633484 358.68560791 C-810.18021912 359.33760162 -810.41410339 359.98959534 -810.65507507 360.66134644 C-819.45775042 385.12188775 -830.6120885 409.25238907 -845.82133484 430.43560791 C-846.51613953 431.40369385 -847.21094421 432.37177979 -847.92680359 433.36920166 C-866.52870269 458.68753866 -889.16437437 482.54000675 -919.82133484 492.43560791 C-920.73656921 492.75400635 -921.65180359 493.07240479 -922.59477234 493.40045166 C-945.94217515 500.49623094 -971.16872055 492.42357004 -992.82133484 483.43560791 C-994.01508728 482.94084961 -994.01508728 482.94084961 -995.23295593 482.43609619 C-1023.86209864 470.39526794 -1050.07495615 453.74833654 -1075.47953796 436.03326416 C-1077.50719016 434.64992847 -1079.55476489 433.33880396 -1081.64945984 432.06060791 C-1082.65492859 431.42123291 -1083.66039734 430.78185791 -1084.69633484 430.12310791 C-1085.51875671 429.6319751 -1086.34117859 429.14084229 -1087.18852234 428.63482666 C-1089.89662507 424.9873103 -1089.13041617 420.82154482 -1088.82133484 416.43560791 C-1087.69727234 416.50779541 -1086.57320984 416.57998291 -1085.41508484 416.65435791 C-1039.82619387 419.29095907 -994.92310962 417.23600553 -950.82133484 404.43560791 C-949.5541864 404.08111572 -948.28703796 403.72662354 -946.98149109 403.36138916 C-928.60357111 397.95611858 -910.68612941 390.50504073 -893.82133484 381.43560791 C-893.1743866 381.09739014 -892.52743835 380.75917236 -891.86088562 380.41070557 C-877.08192687 372.67380366 -863.87236033 362.98045139 -851.82133484 351.43560791 C-850.86871765 350.55775635 -849.91610046 349.67990479 -848.93461609 348.77545166 C-830.74199665 331.67280716 -817.63764675 308.11254648 -816.58305359 282.84185791 C-815.58177112 238.97678563 -847.35987756 205.82442275 -874.41362 174.59771729 C-877.47608849 171.06018186 -880.52726045 167.51392739 -883.54838562 163.940979 C-884.67515366 162.60847964 -885.80832112 161.28139744 -886.94242859 159.95513916 C-887.50059265 159.26806885 -888.05875671 158.58099854 -888.63383484 157.87310791 C-889.09403015 157.31494385 -889.55422546 156.75677979 -890.02836609 156.18170166 C-891.17934872 153.64727192 -890.50637886 152.10573327 -889.82133484 149.43560791 C-889.10099992 147.71697546 -888.32042765 146.02289244 -887.49565125 144.35186768 C-887.01069183 143.36215469 -886.52573242 142.37244171 -886.02607727 141.35273743 C-885.49702789 140.28824875 -884.96797852 139.22376007 -884.42289734 138.12701416 C-883.87330353 137.00987534 -883.32370972 135.89273651 -882.75746155 134.741745 C-881.28959266 131.76099368 -879.8166415 128.78286573 -878.3412323 125.80584717 C-876.88346968 122.86109111 -875.43291527 119.91278884 -873.98149109 116.96490479 C-867.3470306 103.50282766 -860.65733952 90.06857148 -853.93191528 76.6517334 C-852.3303212 73.45580691 -850.73204475 70.25822795 -849.13383484 67.06060791 C-848.36300151 65.51894124 -847.59216817 63.97727458 -846.82133484 62.43560791 C-843.52133484 62.43560791 -840.22133484 62.43560791 -836.82133484 62.43560791 C-836.20427673 63.80604248 -836.20427673 63.80604248 -835.57475281 65.2041626 C-815.69414585 112.54915761 -815.69414585 112.54915761 -786.82133484 154.43560791 C-786.03113953 155.30701416 -785.24094421 156.17842041 -784.42680359 157.07623291 C-778.80090935 162.99449646 -772.92370772 167.43151653 -765.82133484 171.43560791 C-765.05563171 171.88549072 -764.28992859 172.33537354 -763.50102234 172.79888916 C-752.73251678 178.69418966 -740.90978644 181.52889193 -728.76513672 182.56396484 C-727.81461089 182.64680969 -726.86408507 182.72965454 -725.88475543 182.81500983 C-714.75115236 183.70653893 -703.632794 183.71644884 -692.47050476 183.69439697 C-690.12048739 183.69711532 -687.77047087 183.70068094 -685.42045593 183.70501709 C-679.10881338 183.71404058 -672.79723709 183.71063949 -666.48559356 183.70425892 C-660.5192007 183.69966936 -654.55281354 183.70319503 -648.58642081 183.70611331 C-636.05638716 183.71178497 -623.52638301 183.70530766 -610.9963542 183.69451258 C-600.28476077 183.68556951 -589.5732107 183.6871415 -578.86161804 183.6963501 C-566.36208282 183.70709103 -553.86257326 183.71124683 -541.36303407 183.70512557 C-534.76819006 183.70198253 -528.1733701 183.70154849 -521.57852745 183.70819855 C-515.38047464 183.71401372 -509.18250304 183.70989942 -502.98445892 183.69841003 C-500.7227142 183.69578621 -498.46096253 183.6964891 -496.19922066 183.70093536 C-483.5675878 183.72346141 -471.32948706 183.27729516 -458.82133484 181.43560791 C-457.32798058 181.22354482 -455.83456256 181.01193032 -454.34108257 180.80075455 C-431.72112252 177.53874078 -411.91788452 168.72464249 -395.82133484 152.43560791 C-395.15488953 151.7794751 -394.48844421 151.12334229 -393.80180359 150.44732666 C-385.40247627 141.59295678 -380.04122957 129.74146923 -375.82133484 118.43560791 C-375.41270203 117.41338135 -375.00406921 116.39115479 -374.58305359 115.33795166 C-368.72693276 99.54636888 -366.27153012 82.16014266 -364.82133484 65.43560791 C-360.53133484 65.43560791 -356.24133484 65.43560791 -351.82133484 65.43560791 C-351.46536382 79.71276505 -352.58901286 93.78195059 -353.82133484 107.99810791 C-354.10929274 111.3678434 -354.3951573 114.73772776 -354.67729187 118.10795593 C-354.8516716 120.1862811 -355.02951564 122.26431966 -355.21147156 124.34199524 C-356.2637177 136.76616126 -355.51163966 144.81601878 -347.77055359 155.18170166 C-333.84079274 171.43721299 -314.25242118 177.70142103 -293.82133484 181.43560791 C-292.30660583 181.7181543 -292.30660583 181.7181543 -290.76127625 182.00640869 C-278.01846829 184.04721366 -265.1908828 183.74210589 -252.32133484 183.68560791 C-251.09458038 183.68283844 -249.86782593 183.68006897 -248.60389709 183.67721558 C-231.18832924 183.63106488 -213.90664476 183.28070386 -196.55082703 181.76080322 C-192.37447074 181.39664333 -188.19603786 181.06730096 -184.01664734 180.74029541 C-175.64117803 180.07926618 -167.27179136 179.35685194 -158.90293884 178.61730957 C-156.95215414 178.44702703 -155.00077444 178.28359995 -153.04936218 178.1206665 C-117.37194678 175.13082961 -82.01381505 169.06892711 -46.96531677 161.87310791 C-44.06310171 161.2808832 -41.15829024 160.70199587 -38.25338745 160.12312317 C-13.99591218 155.28532842 10.10935581 149.94740257 33.85444641 142.97076416 C40.05730158 141.15820321 46.30689682 139.52640203 52.55366516 137.87310791 C60.76958161 135.68716176 68.85629303 133.35699456 76.88960266 130.56842041 C82.27431577 128.71382801 87.72711236 127.08118624 93.17866516 125.43560791 C91.43439576 123.69133851 88.93488249 123.7412861 86.56538391 123.30670166 C85.35471252 123.08039063 84.14404114 122.85407959 82.89668274 122.62091064 C82.24180878 122.49964813 81.58693481 122.37838562 80.91221619 122.25344849 C51.84592394 116.85031327 22.65520665 110.7740674 -5.66703796 102.24176025 C-11.58404977 100.46861599 -17.54509889 98.96255741 -23.55180359 97.52545166 C-28.40280069 96.32454742 -33.1946194 94.91735244 -37.99638367 93.53497314 C-41.84611116 92.42848671 -45.69981809 91.3367636 -49.55570984 90.25201416 C-50.20574982 90.06906799 -50.85578979 89.88612183 -51.52552795 89.69763184 C-57.73461899 87.95098269 -63.94459581 86.20748119 -70.15483093 84.46490479 C-73.13395341 83.62857636 -76.1125251 82.79033766 -79.09086609 81.95123291 C-82.58415762 80.9694054 -86.08121626 80.00239411 -89.58207703 79.0479126 C-91.19565287 78.60669496 -92.80815729 78.16155237 -94.41996765 77.71392822 C-123.13737764 69.76652854 -154.75932816 61.47602204 -182.82133484 75.74810791 C-197.04130449 84.08395219 -204.70974938 96.3869804 -210.82133484 111.43560791 C-213.75883484 110.68560791 -213.75883484 110.68560791 -216.82133484 109.43560791 C-218.01895793 106.46749802 -217.80436168 104.11049688 -217.25492859 101.00592041 C-217.10249695 100.13958984 -216.95006531 99.27325928 -216.79301453 98.38067627 C-216.52859558 96.98474243 -216.52859558 96.98474243 -216.25883484 95.56060791 C-216.07611023 94.58680176 -215.89338562 93.61299561 -215.7051239 92.60968018 C-208.47671086 55.44906585 -194.25344879 13.94222513 -161.51298523 -8.43353271 C-158.67380576 -10.26388474 -155.77620052 -11.9246783 -152.82133484 -13.56439209 C-151.79781921 -14.1380249 -150.77430359 -14.71165771 -149.71977234 -15.30267334 C-105.10866141 -38.05998689 -43.79683756 -14.89348988 0 0 Z " fill="#000000" transform="translate(3257.821334838867,1685.5643920898438)"/>
<path d="M0 0 C3.56588458 0.58023365 5.21102533 1.8473666 7.72363281 4.39892578 C8.43827698 5.11702423 9.15292114 5.83512268 9.88922119 6.57498169 C11.03460358 7.74829544 11.03460358 7.74829544 12.203125 8.9453125 C12.99974548 9.7485495 13.79636597 10.5517865 14.61712646 11.37936401 C17.16859524 13.95425936 19.70973472 16.53905515 22.25 19.125 C24.77761721 21.68783692 27.30739839 24.24848108 29.84002686 26.80636597 C31.41497903 28.39810162 32.98682274 29.99292121 34.55499268 31.59133911 C37.92539318 35.00696517 41.31494474 38.32906088 44.95410156 41.45849609 C49.69665674 45.53941972 54.06870822 49.96223982 58.46875 54.40625 C59.34849487 55.28978149 60.22823975 56.17331299 61.13464355 57.08361816 C64.39656945 60.3597232 67.65392564 63.6403498 70.91094971 66.92132568 C74.1148726 70.14830538 77.32269116 73.3713808 80.53125 76.59375 C81.77690735 77.85185486 81.77690735 77.85185486 83.04772949 79.13537598 C86.60681441 82.70925958 90.17507533 86.21039853 94 89.5 C98.72770784 93.56603423 103.08348095 97.97716017 107.46875 102.40625 C108.34849487 103.28978149 109.22823975 104.17331299 110.13464355 105.08361816 C113.39656945 108.3597232 116.65392564 111.6403498 119.91094971 114.92132568 C123.1148726 118.14830538 126.32269116 121.3713808 129.53125 124.59375 C130.77690735 125.85185486 130.77690735 125.85185486 132.04772949 127.13537598 C135.60681441 130.70925958 139.17507533 134.21039853 143 137.5 C147.72770784 141.56603423 152.08348095 145.97716017 156.46875 150.40625 C157.34849487 151.28978149 158.22823975 152.17331299 159.13464355 153.08361816 C162.39656945 156.3597232 165.65392564 159.6403498 168.91094971 162.92132568 C172.1148726 166.14830538 175.32269116 169.3713808 178.53125 172.59375 C179.36168823 173.43248657 180.19212646 174.27122314 181.04772949 175.13537598 C184.60681441 178.70925958 188.17507533 182.21039853 192 185.5 C196.72770784 189.56603423 201.08348095 193.97716017 205.46875 198.40625 C206.34849487 199.28978149 207.22823975 200.17331299 208.13464355 201.08361816 C211.39656945 204.3597232 214.65392564 207.6403498 217.91094971 210.92132568 C221.1148726 214.14830538 224.32269116 217.3713808 227.53125 220.59375 C228.36168823 221.43248657 229.19212646 222.27122314 230.04772949 223.13537598 C233.60681441 226.70925958 237.17507533 230.21039853 241 233.5 C245.72770784 237.56603423 250.08348095 241.97716017 254.46875 246.40625 C255.34849487 247.28978149 256.22823975 248.17331299 257.13464355 249.08361816 C260.39656945 252.3597232 263.65392564 255.6403498 266.91094971 258.92132568 C270.1148726 262.14830538 273.32269116 265.3713808 276.53125 268.59375 C277.77690735 269.85185486 277.77690735 269.85185486 279.04772949 271.13537598 C282.60681441 274.70925958 286.17507533 278.21039853 290 281.5 C294.72770784 285.56603423 299.08348095 289.97716017 303.46875 294.40625 C304.34849487 295.28978149 305.22823975 296.17331299 306.13464355 297.08361816 C309.39656945 300.3597232 312.65392564 303.6403498 315.91094971 306.92132568 C319.1148726 310.14830538 322.32269116 313.3713808 325.53125 316.59375 C326.77690735 317.85185486 326.77690735 317.85185486 328.04772949 319.13537598 C331.60230346 322.70472988 335.16544235 326.20183226 338.98632812 329.48632812 C343.79665 333.62349761 348.22504569 338.11909803 352.6875 342.625 C353.58944092 343.53072754 354.49138184 344.43645508 355.4206543 345.36962891 C358.76605444 348.72921306 362.10688392 352.09331262 365.4473877 355.45776367 C368.732918 358.76634351 372.02233791 362.07102481 375.3125 365.375 C376.16481201 366.23561035 377.01712402 367.0962207 377.89526367 367.98291016 C382.1260303 372.23083589 386.42829608 376.29124059 390.97363281 380.19848633 C394.97630654 383.75700794 398.70189817 387.60175706 402.46875 391.40625 C403.34849487 392.28978149 404.22823975 393.17331299 405.13464355 394.08361816 C408.39656945 397.3597232 411.65392564 400.6403498 414.91094971 403.92132568 C418.1148726 407.14830538 421.32269116 410.3713808 424.53125 413.59375 C425.77690735 414.85185486 425.77690735 414.85185486 427.04772949 416.13537598 C430.60681441 419.70925958 434.17507533 423.21039853 438 426.5 C442.72770784 430.56603423 447.08348095 434.97716017 451.46875 439.40625 C452.34849487 440.28978149 453.22823975 441.17331299 454.13464355 442.08361816 C457.39656945 445.3597232 460.65392564 448.6403498 463.91094971 451.92132568 C467.1148726 455.14830538 470.32269116 458.3713808 473.53125 461.59375 C474.77690735 462.85185486 474.77690735 462.85185486 476.04772949 464.13537598 C479.60681441 467.70925958 483.17507533 471.21039853 487 474.5 C491.72770784 478.56603423 496.08348095 482.97716017 500.46875 487.40625 C501.34849487 488.28978149 502.22823975 489.17331299 503.13464355 490.08361816 C506.39656945 493.3597232 509.65392564 496.6403498 512.91094971 499.92132568 C516.1148726 503.14830538 519.32269116 506.3713808 522.53125 509.59375 C523.77690735 510.85185486 523.77690735 510.85185486 525.04772949 512.13537598 C529.86503194 516.97270879 534.81208509 521.56428266 540 526 C541.69130861 527.51659667 543.37942341 529.03677281 545.0625 530.5625 C548.98932963 534.10696445 552.96518552 537.57917903 557 541 C555.46374962 544.64951371 553.27668889 546.95972684 550.4777832 549.73339844 C550.02056381 550.18930359 549.56334442 550.64520874 549.0922699 551.1149292 C547.58298883 552.61773267 546.06685442 554.11342665 544.55078125 555.609375 C543.49372679 556.66015161 542.43719079 557.71145 541.38114929 558.76324463 C538.59822101 561.53287687 535.80979129 564.29689748 533.01971436 567.05932617 C528.57128318 571.46465825 524.12940906 575.87657271 519.69099998 580.29199982 C518.14980334 581.82309235 516.60517189 583.35065291 515.06013489 584.87786865 C514.09636455 585.83479753 513.13271032 586.79184337 512.16918945 587.74902344 C511.3380513 588.57190857 510.50691315 589.3947937 509.65058899 590.24261475 C507.60524506 592.37036869 505.67054718 594.51739953 503.7474823 596.75152588 C499.66313994 601.45580973 495.2885261 605.83682311 490.87109375 610.2265625 C489.54043381 611.55503204 489.54043381 611.55503204 488.18289185 612.91033936 C486.26830796 614.821136 484.35285475 616.73100903 482.43582153 618.63934326 C479.39769493 621.66382676 476.36349417 624.69222887 473.32983398 627.72119141 C466.34311903 634.69591819 459.35137627 641.66559769 452.35957336 648.63522339 C445.94595275 655.02860535 439.53342841 661.42307701 433.12495899 667.82162285 C430.11600842 670.82562495 427.10464534 673.82718009 424.09133911 676.82681274 C421.76852368 679.14034571 419.44899361 681.45716923 417.12890625 683.7734375 C416.30480255 684.59237488 415.48069885 685.41131226 414.63162231 686.25506592 C411.14058202 689.74578809 407.72755758 693.25234157 404.5057373 696.9942627 C400.48662872 701.66116914 396.14606587 705.9786586 391.77929688 710.31835938 C390.40261918 711.69279557 389.02594162 713.06723189 387.6492691 714.44167328 C386.18400643 715.90358715 384.71750233 717.36424494 383.25062561 718.82453918 C380.17889507 721.88262865 377.11108852 724.94463495 374.04382324 728.00720215 C366.97970258 735.05933369 359.91055451 742.10641857 352.84134674 749.15345001 C346.35681318 755.61774599 339.87337516 762.08313102 333.39399195 768.55258989 C330.35158961 771.59004316 327.3067744 774.62504949 324.2600174 777.65813446 C322.81854685 779.09390824 321.37825245 780.53084977 319.9384613 781.9683075 C318.19259156 783.71133462 316.44494763 785.45258746 314.69508362 787.19160461 C310.55831686 791.32799846 306.61209972 795.54601626 302.79598236 799.9781723 C299.32169906 803.8893478 295.5806176 807.54029372 291.87109375 811.2265625 C290.54043381 812.55503204 290.54043381 812.55503204 289.18289185 813.91033936 C287.26830796 815.821136 285.35285475 817.73100903 283.43582153 819.63934326 C280.39769493 822.66382676 277.36349417 825.69222887 274.32983398 828.72119141 C267.34311903 835.69591819 260.35137627 842.66559769 253.35957336 849.63522339 C246.94595275 856.02860535 240.53342841 862.42307701 234.12495899 868.82162285 C231.11600842 871.82562495 228.10464534 874.82718009 225.09133911 877.82681274 C222.76852368 880.14034571 220.44899361 882.45716923 218.12890625 884.7734375 C217.30480255 885.59237488 216.48069885 886.41131226 215.63162231 887.25506592 C212.13868786 890.74768208 208.72394797 894.25637578 205.5 898 C201.51079066 902.63223998 197.20557919 906.91925002 192.87109375 911.2265625 C191.54043381 912.55503204 191.54043381 912.55503204 190.18289185 913.91033936 C188.26830796 915.821136 186.35285475 917.73100903 184.43582153 919.63934326 C181.39769493 922.66382676 178.36349417 925.69222887 175.32983398 928.72119141 C168.34311903 935.69591819 161.35137627 942.66559769 154.35957336 949.63522339 C147.94595275 956.02860535 141.53342841 962.42307701 135.12495899 968.82162285 C132.11600842 971.82562495 129.10464534 974.82718009 126.09133911 977.82681274 C123.76852368 980.14034571 121.44899361 982.45716923 119.12890625 984.7734375 C118.30480255 985.59237488 117.48069885 986.41131226 116.63162231 987.25506592 C112.43027494 991.45603045 108.38271247 995.72882961 104.51625061 1000.2409668 C101.56502814 1003.66474007 98.44958112 1006.94056438 95.36328125 1010.2421875 C92.11681002 1013.73447509 89.0232333 1017.31231982 86 1021 C82.993182 1019.66000502 81.00237391 1018.20154709 78.75 1015.8125 C76.4344904 1013.36516684 74.01454191 1011.14010355 71.45605469 1008.95385742 C66.59583273 1004.71333808 62.06767987 1000.17551116 57.53125 995.59375 C56.65150513 994.71021851 55.77176025 993.82668701 54.86535645 992.91638184 C51.60343055 989.6402768 48.34607436 986.3596502 45.08905029 983.07867432 C41.8851274 979.85169462 38.67730884 976.6286192 35.46875 973.40625 C34.63831177 972.56751343 33.80787354 971.72877686 32.95227051 970.86462402 C28.77072112 966.66568774 24.51242563 962.65883787 20.02062988 958.79577637 C16.09613477 955.30799484 12.44220794 951.54260126 8.75 947.8125 C7.89245117 946.95116455 7.03490234 946.0898291 6.15136719 945.20239258 C2.51505061 941.54986017 -1.11524371 937.89136365 -4.74609375 934.23339844 C-7.41197597 931.54934844 -10.0809181 928.86836759 -12.75 926.1875 C-13.55856445 925.37063721 -14.36712891 924.55377441 -15.20019531 923.7121582 C-18.7040198 920.19338815 -22.22059605 916.75229967 -25.98632812 913.51367188 C-30.71792929 909.4422805 -35.07893416 905.02743206 -39.46875 900.59375 C-40.34849487 899.71021851 -41.22823975 898.82668701 -42.13464355 897.91638184 C-45.39656945 894.6402768 -48.65392564 891.3596502 -51.91094971 888.07867432 C-55.1148726 884.85169462 -58.32269116 881.6286192 -61.53125 878.40625 C-62.36168823 877.56751343 -63.19212646 876.72877686 -64.04772949 875.86462402 C-67.60681441 872.29074042 -71.17507533 868.78960147 -75 865.5 C-79.72770784 861.43396577 -84.08348095 857.02283983 -88.46875 852.59375 C-89.34849487 851.71021851 -90.22823975 850.82668701 -91.13464355 849.91638184 C-94.39656945 846.6402768 -97.65392564 843.3596502 -100.91094971 840.07867432 C-104.1148726 836.85169462 -107.32269116 833.6286192 -110.53125 830.40625 C-111.36168823 829.56751343 -112.19212646 828.72877686 -113.04772949 827.86462402 C-116.60681441 824.29074042 -120.17507533 820.78960147 -124 817.5 C-128.72770784 813.43396577 -133.08348095 809.02283983 -137.46875 804.59375 C-138.34849487 803.71021851 -139.22823975 802.82668701 -140.13464355 801.91638184 C-143.39656945 798.6402768 -146.65392564 795.3596502 -149.91094971 792.07867432 C-153.1148726 788.85169462 -156.32269116 785.6286192 -159.53125 782.40625 C-160.36168823 781.56751343 -161.19212646 780.72877686 -162.04772949 779.86462402 C-165.60681441 776.29074042 -169.17507533 772.78960147 -173 769.5 C-177.72770784 765.43396577 -182.08348095 761.02283983 -186.46875 756.59375 C-187.34849487 755.71021851 -188.22823975 754.82668701 -189.13464355 753.91638184 C-192.39656945 750.6402768 -195.65392564 747.3596502 -198.91094971 744.07867432 C-202.1148726 740.85169462 -205.32269116 737.6286192 -208.53125 734.40625 C-209.36168823 733.56751343 -210.19212646 732.72877686 -211.04772949 731.86462402 C-214.60681441 728.29074042 -218.17507533 724.78960147 -222 721.5 C-226.72770784 717.43396577 -231.08348095 713.02283983 -235.46875 708.59375 C-236.34849487 707.71021851 -237.22823975 706.82668701 -238.13464355 705.91638184 C-241.39656945 702.6402768 -244.65392564 699.3596502 -247.91094971 696.07867432 C-251.1148726 692.85169462 -254.32269116 689.6286192 -257.53125 686.40625 C-258.36168823 685.56751343 -259.19212646 684.72877686 -260.04772949 683.86462402 C-263.60681441 680.29074042 -267.17507533 676.78960147 -271 673.5 C-275.72770784 669.43396577 -280.08348095 665.02283983 -284.46875 660.59375 C-285.34849487 659.71021851 -286.22823975 658.82668701 -287.13464355 657.91638184 C-290.39656945 654.6402768 -293.65392564 651.3596502 -296.91094971 648.07867432 C-300.1148726 644.85169462 -303.32269116 641.6286192 -306.53125 638.40625 C-307.36168823 637.56751343 -308.19212646 636.72877686 -309.04772949 635.86462402 C-312.60681441 632.29074042 -316.17507533 628.78960147 -320 625.5 C-324.72770784 621.43396577 -329.08348095 617.02283983 -333.46875 612.59375 C-334.34849487 611.71021851 -335.22823975 610.82668701 -336.13464355 609.91638184 C-339.39656945 606.6402768 -342.65392564 603.3596502 -345.91094971 600.07867432 C-349.1148726 596.85169462 -352.32269116 593.6286192 -355.53125 590.40625 C-356.36168823 589.56751343 -357.19212646 588.72877686 -358.04772949 587.86462402 C-361.60681441 584.29074042 -365.17507533 580.78960147 -369 577.5 C-373.72770784 573.43396577 -378.08348095 569.02283983 -382.46875 564.59375 C-383.34849487 563.71021851 -384.22823975 562.82668701 -385.13464355 561.91638184 C-388.39656945 558.6402768 -391.65392564 555.3596502 -394.91094971 552.07867432 C-398.1148726 548.85169462 -401.32269116 545.6286192 -404.53125 542.40625 C-405.36168823 541.56751343 -406.19212646 540.72877686 -407.04772949 539.86462402 C-411.28566044 535.60907174 -415.6004012 531.53633915 -420.15393066 527.62121582 C-423.03355921 525.09232958 -425.71877895 522.38626458 -428.40625 519.65625 C-428.97525024 519.08346313 -429.54425049 518.51067627 -430.13049316 517.92053223 C-432.52432686 515.51060718 -434.91204243 513.09465522 -437.30029297 510.67919922 C-443.68924301 504.22400631 -450.05682925 497.86606789 -457 492 C-459.57568969 489.68045625 -462.14057882 487.34966387 -464.703125 485.015625 C-466.73812959 483.22980465 -468.80900749 481.58796705 -471 480 C-469.61146958 476.87121066 -468.0007069 474.75457419 -465.57966614 472.34588623 C-464.87182983 471.63674576 -464.16399353 470.92760529 -463.43470764 470.19697571 C-462.65808273 469.4291124 -461.88145782 468.66124908 -461.08129883 467.87011719 C-460.26319733 467.05332993 -459.44509583 466.23654266 -458.60220337 465.39500427 C-455.8917073 462.69100808 -453.17430921 459.99405442 -450.45703125 457.296875 C-448.57042798 455.41654339 -446.68427237 453.53577406 -444.79875183 451.65435791 C-440.33435951 447.20134495 -435.86532387 442.75302579 -431.39423436 438.30673814 C-423.40577269 430.36253209 -415.42273963 422.41288122 -407.44507998 414.45782781 C-404.20052321 411.22296444 -400.95146309 407.99266655 -397.70137024 404.7633667 C-395.98935329 403.05818339 -394.27744863 401.35288733 -392.56567383 399.64746094 C-391.79917007 398.88769455 -391.03266632 398.12792816 -390.24293518 397.34513855 C-386.89316069 394.00239669 -383.63448864 390.63492525 -380.54667664 387.04766846 C-376.48425133 382.3353639 -372.09855629 377.97386066 -367.6875 373.58984375 C-366.29585089 372.20043614 -364.90420191 370.8110284 -363.51255798 369.4216156 C-362.03113357 367.94354034 -360.54846776 366.46672097 -359.06542969 364.99026489 C-355.96009519 361.89856949 -352.85868286 358.80295899 -349.7578125 355.70678711 C-342.61628615 348.57725079 -335.46973276 341.45276054 -328.32312012 334.32832336 C-321.76767359 327.79311338 -315.21332191 321.25681497 -308.6630249 314.71644306 C-305.5871708 311.64553862 -302.50890347 308.57708109 -299.42869568 305.51054382 C-297.97145039 304.05899471 -296.51538071 302.6062783 -295.05981445 301.15304565 C-293.29464721 299.39072153 -291.52770524 297.63017221 -289.75854492 295.87185669 C-285.60131313 291.71499567 -281.6329164 287.4786439 -277.7983551 283.02420044 C-274.2944051 279.080209 -270.52005247 275.39920846 -266.77929688 271.68164062 C-265.40261918 270.30720443 -264.02594162 268.93276811 -262.6492691 267.55832672 C-261.18400643 266.09641285 -259.71750233 264.63575506 -258.25062561 263.17546082 C-255.17889507 260.11737135 -252.11108852 257.05536505 -249.04382324 253.99279785 C-241.97970258 246.94066631 -234.91055451 239.89358143 -227.84134674 232.84654999 C-221.35681318 226.38225401 -214.87337516 219.91686898 -208.39399195 213.44741011 C-205.35158961 210.40995684 -202.3067744 207.37495051 -199.2600174 204.34186554 C-197.81854685 202.90609176 -196.37825245 201.46915023 -194.9384613 200.0316925 C-193.19259156 198.28866538 -191.44494763 196.54741254 -189.69508362 194.80839539 C-186.18104202 191.29467056 -182.74308291 187.76657388 -179.5 184 C-175.48312713 179.33473278 -171.14414563 175.01943306 -166.77929688 170.68164062 C-165.40261918 169.30720443 -164.02594162 167.93276811 -162.6492691 166.55832672 C-161.18400643 165.09641285 -159.71750233 163.63575506 -158.25062561 162.17546082 C-155.17889507 159.11737135 -152.11108852 156.05536505 -149.04382324 152.99279785 C-141.97970258 145.94066631 -134.91055451 138.89358143 -127.84134674 131.84654999 C-121.35681318 125.38225401 -114.87337516 118.91686898 -108.39399195 112.44741011 C-105.35158961 109.40995684 -102.3067744 106.37495051 -99.2600174 103.34186554 C-97.81854685 101.90609176 -96.37825245 100.46915023 -94.9384613 99.0316925 C-93.19259156 97.28866538 -91.44494763 95.54741254 -89.69508362 93.80839539 C-85.49666007 89.61035031 -81.47831358 85.33106026 -77.60558319 80.83142853 C-75.18273887 78.06778088 -72.60334069 75.47903366 -69.9921875 72.89453125 C-69.43670227 72.34050629 -68.88121704 71.78648132 -68.30889893 71.21566772 C-67.1178852 70.0284216 -65.92571926 68.84233038 -64.73248291 67.65731812 C-62.83728107 65.77503824 -60.94535947 63.88951382 -59.05419922 62.00317383 C-54.35946322 57.32171095 -49.65926516 52.64574455 -44.95922852 47.96960449 C-40.9765437 44.00674472 -36.9959784 40.04177822 -33.01812744 36.07406616 C-31.16632966 34.22868641 -29.31151551 32.38637706 -27.45654297 30.54418945 C-21.7523271 24.86465726 -16.2047483 19.14778533 -11 13 C-8.37305503 10.08245464 -5.70024639 7.20661164 -3.0390625 4.3203125 C-0.98422672 2.18053118 -0.98422672 2.18053118 0 0 Z M-42 50 C-43.42541537 51.3803119 -43.42541537 51.3803119 -44.87109375 53.2265625 C-45.43957031 53.92136719 -46.00804687 54.61617187 -46.59375 55.33203125 C-47.2021875 56.08871094 -47.810625 56.84539062 -48.4375 57.625 C-49.06785156 58.39972656 -49.69820312 59.17445312 -50.34765625 59.97265625 C-54.56060136 65.16634769 -58.70595575 70.41129074 -62.81420898 75.68798828 C-66.46268938 80.35926444 -70.21933269 84.9353304 -74 89.5 C-78.25428323 94.6374538 -82.46041321 99.80260261 -86.5625 105.0625 C-93.13655066 113.49207102 -99.90649708 121.76001108 -106.66601562 130.04101562 C-112.31367385 136.96288111 -117.94346202 143.89277434 -123.4375 150.9375 C-128.12026027 156.94196549 -132.94987188 162.81659305 -137.80615234 168.68115234 C-141.4534102 173.09520299 -145.04124789 177.54737739 -148.5625 182.0625 C-155.13655066 190.49207102 -161.90649708 198.76001108 -168.66601562 207.04101562 C-174.88628628 214.6646846 -181.06155194 222.31595824 -187.12207031 230.06738281 C-190.54445806 234.4383536 -194.03643685 238.7472116 -197.5625 243.03515625 C-204.60553329 251.6019227 -211.61779655 260.19147631 -218.4375 268.9375 C-223.12020589 274.94200683 -227.9498733 280.81659477 -232.80615234 286.68115234 C-236.4534102 291.09520299 -240.04124789 295.54737739 -243.5625 300.0625 C-250.13655066 308.49207102 -256.90649708 316.76001108 -263.66601562 325.04101562 C-269.88628628 332.6646846 -276.06155194 340.31595824 -282.12207031 348.06738281 C-285.54445806 352.4383536 -289.03643685 356.7472116 -292.5625 361.03515625 C-299.60553329 369.6019227 -306.61779655 378.19147631 -313.4375 386.9375 C-318.12020589 392.94200683 -322.9498733 398.81659477 -327.80615234 404.68115234 C-331.4534102 409.09520299 -335.04124789 413.54737739 -338.5625 418.0625 C-345.13655066 426.49207102 -351.90649708 434.76001108 -358.66601562 443.04101562 C-364.88628628 450.6646846 -371.06155194 458.31595824 -377.12207031 466.06738281 C-380.54445806 470.4383536 -384.03643685 474.7472116 -387.5625 479.03515625 C-396.51008235 489.91851363 -405.33860964 500.88753255 -414 512 C-414.73863281 512.94746094 -415.47726562 513.89492187 -416.23828125 514.87109375 C-417.82749215 516.91254503 -419.41504411 518.95524463 -421 521 C-416.74152142 526.67797145 -411.57428366 530.65826123 -406 535 C-404.18294682 536.47356982 -402.37049152 537.95282599 -400.5625 539.4375 C-399.63824219 540.19546875 -398.71398437 540.9534375 -397.76171875 541.734375 C-396.85035156 542.48203125 -395.93898438 543.2296875 -395 544 C-393.29177642 545.39596765 -391.58344143 546.79179898 -389.875 548.1875 C-384.32995118 552.72363593 -378.80140427 557.27970657 -373.27246094 561.83544922 C-367.52544938 566.56986763 -361.76644221 571.28926029 -356 576 C-354.16654964 577.49985696 -352.33321829 578.9998594 -350.5 580.5 C-349.5925 581.2425 -348.685 581.985 -347.75 582.75 C-339.5 589.5 -339.5 589.5 -336.7265625 591.76953125 C-334.97182216 593.20499935 -333.21664845 594.63993796 -331.4609375 596.07421875 C-325.0516115 601.31205163 -318.66056804 606.57177219 -312.27246094 611.83544922 C-306.52544938 616.56986763 -300.76644221 621.28926029 -295 626 C-292.24195336 628.2562244 -289.48426003 630.51288017 -286.7265625 632.76953125 C-284.97182216 634.20499935 -283.21664845 635.63993796 -281.4609375 637.07421875 C-275.0516115 642.31205163 -268.66056804 647.57177219 -262.27246094 652.83544922 C-256.52544938 657.56986763 -250.76644221 662.28926029 -245 667 C-242.24195336 669.2562244 -239.48426003 671.51288017 -236.7265625 673.76953125 C-234.97182216 675.20499935 -233.21664845 676.63993796 -231.4609375 678.07421875 C-225.0516115 683.31205163 -218.66056804 688.57177219 -212.27246094 693.83544922 C-206.52544938 698.56986763 -200.76644221 703.28926029 -195 708 C-192.24195336 710.2562244 -189.48426003 712.51288017 -186.7265625 714.76953125 C-184.97182216 716.20499935 -183.21664845 717.63993796 -181.4609375 719.07421875 C-175.0516115 724.31205163 -168.66056804 729.57177219 -162.27246094 734.83544922 C-156.52544938 739.56986763 -150.76644221 744.28926029 -145 749 C-142.24195336 751.2562244 -139.48426003 753.51288017 -136.7265625 755.76953125 C-134.97182216 757.20499935 -133.21664845 758.63993796 -131.4609375 760.07421875 C-125.0516115 765.31205163 -118.66056804 770.57177219 -112.27246094 775.83544922 C-106.52544938 780.56986763 -100.76644221 785.28926029 -95 790 C-92.24195336 792.2562244 -89.48426003 794.51288017 -86.7265625 796.76953125 C-84.97182216 798.20499935 -83.21664845 799.63993796 -81.4609375 801.07421875 C-75.0516115 806.31205163 -68.66056804 811.57177219 -62.27246094 816.83544922 C-56.52544938 821.56986763 -50.76644221 826.28926029 -45 831 C-42.24195336 833.2562244 -39.48426003 835.51288017 -36.7265625 837.76953125 C-34.97182216 839.20499935 -33.21664845 840.63993796 -31.4609375 842.07421875 C-25.0516115 847.31205163 -18.66056804 852.57177219 -12.27246094 857.83544922 C-6.52544938 862.56986763 -0.76644221 867.28926029 5 872 C6.83345036 873.49985696 8.66678171 874.9998594 10.5 876.5 C11.4075 877.2425 12.315 877.985 13.25 878.75 C21.5 885.5 21.5 885.5 24.2734375 887.76953125 C26.02817784 889.20499935 27.78335155 890.63993796 29.5390625 892.07421875 C35.9483885 897.31205163 42.33943196 902.57177219 48.72753906 907.83544922 C54.47455062 912.56986763 60.23355779 917.28926029 66 922 C68.75804664 924.2562244 71.51573997 926.51288017 74.2734375 928.76953125 C76.02817784 930.20499935 77.78335155 931.63993796 79.5390625 933.07421875 C85.20340825 937.70323846 90.85435188 942.34820378 96.5 947 C106.28515449 955.0610779 116.08098245 963.10351531 126 971 C129.12215428 969.64272489 130.93163119 968.21718037 133.06640625 965.578125 C133.90945313 964.54558594 133.90945313 964.54558594 134.76953125 963.4921875 C135.36121094 962.75226562 135.95289063 962.01234375 136.5625 961.25 C137.18382812 960.48429687 137.80515625 959.71859375 138.4453125 958.9296875 C142.62248233 953.76612233 146.73442308 948.55185329 150.81469727 943.31152344 C154.46285539 938.64028767 158.21943781 934.0644556 162 929.5 C166.8104999 923.69185874 171.5329416 917.82778059 176.17236328 911.88232422 C179.57515461 907.52559655 183.05120943 903.23482388 186.5625 898.96484375 C194.18074968 889.69841506 201.73224316 880.38435672 209.12109375 870.93383789 C212.54383587 866.56248229 216.03610527 862.25319163 219.5625 857.96484375 C226.60553329 849.3980773 233.61779655 840.80852369 240.4375 832.0625 C245.12020589 826.05799317 249.9498733 820.18340523 254.80615234 814.31884766 C258.4534102 809.90479701 262.04124789 805.45262261 265.5625 800.9375 C272.13655066 792.50792898 278.90649708 784.23998892 285.66601562 775.95898438 C291.88628628 768.3353154 298.06155194 760.68404176 304.12207031 752.93261719 C307.54445806 748.5616464 311.03643685 744.2527884 314.5625 739.96484375 C322.18074968 730.69841506 329.73224316 721.38435672 337.12109375 711.93383789 C340.54383587 707.56248229 344.03610527 703.25319163 347.5625 698.96484375 C354.60553329 690.3980773 361.61779655 681.80852369 368.4375 673.0625 C373.12020589 667.05799317 377.9498733 661.18340523 382.80615234 655.31884766 C386.4534102 650.90479701 390.04124789 646.45262261 393.5625 641.9375 C400.13655066 633.50792898 406.90649708 625.23998892 413.66601562 616.95898438 C419.88628628 609.3353154 426.06155194 601.68404176 432.12207031 593.93261719 C435.54445806 589.5616464 439.03643685 585.2527884 442.5625 580.96484375 C449.60553329 572.3980773 456.61779655 563.80852369 463.4375 555.0625 C468.12020589 549.05799317 472.9498733 543.18340523 477.80615234 537.31884766 C481.9039849 532.35949432 485.92332821 527.34816783 489.86035156 522.26025391 C492.37702388 519.01959457 494.95477205 515.84723144 497.60546875 512.71484375 C498.21124756 511.99240479 498.81702637 511.26996582 499.44116211 510.52563477 C500.62550416 509.11750018 501.82001087 507.71783774 503.02563477 506.32788086 C503.55858154 505.69116455 504.09152832 505.05444824 504.640625 504.3984375 C505.12047852 503.83817871 505.60033203 503.27791992 506.09472656 502.70068359 C507.20367594 501.00646538 507.20367594 501.00646538 506.75292969 498.890625 C505.71017484 496.27224188 504.25521676 495.3087936 502 493.625 C501.10152344 492.93535156 500.20304687 492.24570313 499.27734375 491.53515625 C498.76413574 491.14215332 498.25092773 490.74915039 497.72216797 490.34423828 C494.27754043 487.65553411 490.92827896 484.84875316 487.5625 482.0625 C486.08223363 480.84090056 484.60176785 479.61954271 483.12109375 478.3984375 C482.41452637 477.81545898 481.70795898 477.23248047 480.97998047 476.63183594 C476.66404821 473.074784 472.33128615 469.53832761 468 466 C465.24195336 463.7437756 462.48426003 461.48711983 459.7265625 459.23046875 C457.97182216 457.79500065 456.21664845 456.36006204 454.4609375 454.92578125 C448.0516115 449.68794837 441.66056804 444.42822781 435.27246094 439.16455078 C429.52544938 434.43013237 423.76644221 429.71073971 418 425 C416.16654964 423.50014304 414.33321829 422.0001406 412.5 420.5 C411.5925 419.7575 410.685 419.015 409.75 418.25 C401.5 411.5 401.5 411.5 398.7265625 409.23046875 C396.97182216 407.79500065 395.21664845 406.36006204 393.4609375 404.92578125 C387.0516115 399.68794837 380.66056804 394.42822781 374.27246094 389.16455078 C368.52544938 384.43013237 362.76644221 379.71073971 357 375 C354.24195336 372.7437756 351.48426003 370.48711983 348.7265625 368.23046875 C346.97182216 366.79500065 345.21664845 365.36006204 343.4609375 363.92578125 C337.0516115 358.68794837 330.66056804 353.42822781 324.27246094 348.16455078 C318.52544938 343.43013237 312.76644221 338.71073971 307 334 C304.24195336 331.7437756 301.48426003 329.48711983 298.7265625 327.23046875 C296.97182216 325.79500065 295.21664845 324.36006204 293.4609375 322.92578125 C287.0516115 317.68794837 280.66056804 312.42822781 274.27246094 307.16455078 C268.52544938 302.43013237 262.76644221 297.71073971 257 293 C254.24195336 290.7437756 251.48426003 288.48711983 248.7265625 286.23046875 C246.97182216 284.79500065 245.21664845 283.36006204 243.4609375 281.92578125 C237.0516115 276.68794837 230.66056804 271.42822781 224.27246094 266.16455078 C218.52544938 261.43013237 212.76644221 256.71073971 207 252 C204.24195336 249.7437756 201.48426003 247.48711983 198.7265625 245.23046875 C196.97182216 243.79500065 195.21664845 242.36006204 193.4609375 240.92578125 C187.0516115 235.68794837 180.66056804 230.42822781 174.27246094 225.16455078 C168.52544938 220.43013237 162.76644221 215.71073971 157 211 C154.24195336 208.7437756 151.48426003 206.48711983 148.7265625 204.23046875 C146.97182216 202.79500065 145.21664845 201.36006204 143.4609375 199.92578125 C137.0516115 194.68794837 130.66056804 189.42822781 124.27246094 184.16455078 C118.52544938 179.43013237 112.76644221 174.71073971 107 170 C105.16654964 168.50014304 103.33321829 167.0001406 101.5 165.5 C100.13875 164.38625 100.13875 164.38625 98.75 163.25 C90.5 156.5 90.5 156.5 87.7265625 154.23046875 C85.97182216 152.79500065 84.21664845 151.36006204 82.4609375 149.92578125 C76.0516115 144.68794837 69.66056804 139.42822781 63.27246094 134.16455078 C57.52544938 129.43013237 51.76644221 124.71073971 46 120 C43.24195336 117.7437756 40.48426003 115.48711983 37.7265625 113.23046875 C35.97182216 111.79500065 34.21664845 110.36006204 32.4609375 108.92578125 C26.0516115 103.68794837 19.66056804 98.42822781 13.27246094 93.16455078 C7.52544938 88.43013237 1.76644221 83.71073971 -4 79 C-5.83345036 77.50014304 -7.66678171 76.0001406 -9.5 74.5 C-10.86705078 73.38238281 -10.86705078 73.38238281 -12.26171875 72.2421875 C-14.05832268 70.77107387 -15.85267457 69.29720472 -17.64453125 67.8203125 C-22.91588122 63.48283273 -28.22140851 59.1887266 -33.5625 54.9375 C-34.1706958 54.44781738 -34.7788916 53.95813477 -35.40551758 53.45361328 C-38.34499753 50.85146692 -38.34499753 50.85146692 -42 50 Z " fill="#010101" transform="translate(1149,1573)"/>
<path d="M0 0 C51.15 0 102.3 0 155 0 C155 2.97 155 5.94 155 9 C153.74445313 9.15855469 152.48890625 9.31710938 151.1953125 9.48046875 C135.94273595 11.53796127 135.94273595 11.53796127 123.125 19.625 C117.71035184 28.22473532 116.40888957 36.52625975 116.45410156 46.53979492 C116.44370724 47.76031964 116.43331291 48.98084436 116.42260361 50.23835468 C116.393678 54.15253707 116.39153877 58.0661905 116.390625 61.98046875 C116.37661552 64.41167268 116.36083502 66.84286707 116.34326172 69.27404785 C116.29075073 78.24509875 116.2724105 87.21632341 116.25 96.1875 C116.1675 116.255625 116.085 136.32375 116 157 C165.17 157 214.34 157 265 157 C264.9175 137.1175 264.835 117.235 264.75 96.75 C264.73420898 90.48999023 264.71841797 84.22998047 264.70214844 77.78027344 C264.6688969 72.1308727 264.6688969 72.1308727 264.63043213 66.48150635 C264.61589203 63.98039856 264.60904945 61.47923836 264.60845947 58.97808838 C264.60602685 55.17221997 264.57857106 51.36723717 264.54589844 47.56152344 C264.55343454 45.91187906 264.55343454 45.91187906 264.56112289 44.22890854 C264.44663162 35.65920493 262.999782 26.55837921 257.75 19.5 C251.57600662 13.88727875 244.55562004 12.17846751 236.5 10.75 C235.5821875 10.57726563 234.664375 10.40453125 233.71875 10.2265625 C231.48114584 9.80701172 229.24082729 9.40198047 227 9 C227 6.03 227 3.06 227 0 C277.82 0 328.64 0 381 0 C381 2.97 381 5.94 381 9 C379.58847656 9.21914062 378.17695313 9.43828125 376.72265625 9.6640625 C360.26797598 12.14701874 360.26797598 12.14701874 348.0625 22.6875 C343.60086534 31.04117302 343.70648077 40.77614832 343.73930359 50.02378845 C343.73547804 51.18444921 343.73165249 52.34510996 343.72771102 53.54094225 C343.71923547 56.73101743 343.71959247 59.92094355 343.72389162 63.11102235 C343.72637325 66.56372726 343.71732702 70.01640588 343.70985413 73.46910095 C343.69714539 80.22076433 343.69530859 86.97238786 343.69765439 93.72406118 C343.69944179 99.21473773 343.69767889 104.70540224 343.69342995 110.19607735 C343.69253716 111.37094864 343.69253716 111.37094864 343.69162634 112.56955471 C343.69041452 114.16101706 343.68920039 115.75247941 343.68798397 117.34394176 C343.67712344 132.24726747 343.67926403 147.15057053 343.68536881 162.05389751 C343.6905382 175.6700912 343.67927931 189.28621337 343.66027059 202.90239292 C343.64087195 216.90591954 343.63263965 230.90941235 343.63639385 244.91295248 C343.63830262 252.76593066 343.63584988 260.61884794 343.62167931 268.47181511 C343.60973876 275.15619218 343.60839058 281.84047086 343.62046947 288.52484935 C343.6263391 291.93094957 343.62751109 295.33687005 343.61546707 298.74295807 C343.60497861 302.4452131 343.61311778 306.14698973 343.6257782 309.84922791 C343.61840391 310.91179981 343.61102963 311.97437171 343.60343188 313.06914276 C343.66854856 322.16268312 344.58360837 332.32875117 350.57421875 339.609375 C358.36729408 347.21029231 370.62589066 348.33440449 381 349 C381 351.64 381 354.28 381 357 C330.18 357 279.36 357 227 357 C227 354.36 227 351.72 227 349 C228.80984375 348.72736328 228.80984375 348.72736328 230.65625 348.44921875 C232.27090298 348.19575578 233.88548249 347.94182447 235.5 347.6875 C236.29148437 347.56955078 237.08296875 347.45160156 237.8984375 347.33007812 C245.72431754 346.07922025 252.8816782 344.50165202 258 338 C264.34865679 327.56877921 264.15432157 317.69814797 264.20532227 305.78125 C264.21505149 304.32848844 264.22519769 302.87572963 264.23572445 301.42297363 C264.26263903 297.55114449 264.2838863 293.67930415 264.30391693 289.80743408 C264.32362037 286.16717204 264.34849188 282.52695225 264.3729248 278.88671875 C264.44127997 268.25784445 264.50139194 257.62891843 264.5625 247 C264.706875 223.24 264.85125 199.48 265 175 C215.83 175 166.66 175 116 175 C116.12375 199.069375 116.2475 223.13875 116.375 247.9375 C116.40899902 255.52999756 116.44299805 263.12249512 116.47802734 270.94506836 C116.51794809 277.76673921 116.51794809 277.76673921 116.56045532 284.58839417 C116.57927982 287.6204945 116.59265739 290.6525657 116.60269165 293.68470764 C116.61569516 297.55953898 116.63813468 301.43421068 116.66723371 305.3089534 C116.67630451 306.72652135 116.68213778 308.14411485 116.68425441 309.56171024 C116.70385444 320.81121178 116.96566528 332.61070442 125.125 341.25 C134.42588468 346.91140807 144.409938 348.37831997 155 350 C155 352.31 155 354.62 155 357 C103.85 357 52.7 357 0 357 C0 354.36 0 351.72 0 349 C1.80984375 348.72736328 1.80984375 348.72736328 3.65625 348.44921875 C5.27090298 348.19575578 6.88548249 347.94182447 8.5 347.6875 C9.29148437 347.56955078 10.08296875 347.45160156 10.8984375 347.33007812 C16.27045435 346.47143609 20.96254457 345.05926749 26 343 C26.78375 342.690625 27.5675 342.38125 28.375 342.0625 C33.47687859 338.72665631 35.13783254 329.32654367 36.51226997 323.65754604 C38.32654703 313.77190329 37.66869939 303.40127461 37.61523438 293.39550781 C37.61597345 290.62446098 37.62420954 287.85344734 37.63204956 285.08241272 C37.64648665 278.37210743 37.63443448 271.66210741 37.61293632 264.95183119 C37.58878502 257.12282488 37.59064921 249.29388641 37.59324223 241.46485111 C37.59692239 227.49033909 37.57619105 213.51596988 37.54199219 199.54150391 C37.50888185 186.0066365 37.49473938 172.47191881 37.50097656 158.93701172 C37.50775141 144.16287155 37.50525125 129.38879385 37.48561716 114.61466289 C37.48457768 113.83240202 37.48353819 113.05014116 37.4824672 112.24417542 C37.48037646 110.67345151 37.47826549 109.10272763 37.47613403 107.53200378 C37.46926098 102.0847181 37.46856532 96.63745176 37.47001648 91.19016266 C37.47146101 84.54797271 37.46167719 77.90590421 37.43807012 71.26375446 C37.42626907 67.8798714 37.42066277 64.4962979 37.42490768 61.11237526 C37.42864052 57.43444653 37.41381166 53.75703199 37.39440918 50.0791626 C37.39973711 49.02389224 37.40506503 47.96862189 37.41055441 46.88137364 C37.31861864 36.73193588 35.51909483 27.55186452 29.98828125 18.9375 C24.35765581 13.45068228 16.99850454 12.07967668 9.5 10.75 C8.5821875 10.57726563 7.664375 10.40453125 6.71875 10.2265625 C4.48114584 9.80701172 2.24082729 9.40198047 0 9 C0 6.03 0 3.06 0 0 Z " fill="#020202" transform="translate(1778,2101)"/>
<path d="M0 0 C16.13941878 15.33762073 23.14910924 34.74239341 23.84667587 56.73553276 C23.89086641 60.20149797 23.90474967 63.66632203 23.90771484 67.13256836 C23.91551382 69.14386107 23.92331685 71.15515376 23.93127275 73.16644585 C23.93894001 75.30937198 23.94434874 77.45229402 23.94923019 79.5952282 C23.96000244 84.08114807 23.98026915 88.56699501 24.00234985 93.0528717 C24.06397205 105.80238508 24.1182622 118.55189181 24.15136719 131.30151367 C24.1697688 138.35799738 24.19876619 145.41435621 24.2393719 152.47074801 C24.26033431 156.19502231 24.27588391 159.9191401 24.27817917 163.64347649 C24.28074454 167.80017089 24.30629704 171.9564308 24.33349609 176.11303711 C24.33048996 177.32947906 24.32748383 178.54592102 24.3243866 179.79922485 C24.40440566 188.05862302 24.82332595 197.23491726 29.9375 204.125 C37.04773343 210.60321268 45.7138227 212.09961075 54.80126953 214.21191406 C57.81183556 214.94664002 60.77705538 215.81378676 63.75 216.6875 C63.75 218.0075 63.75 219.3275 63.75 220.6875 C54.51820282 223.89239426 45.23400378 226.73883977 35.82495117 229.37426758 C28.84547358 231.34082574 21.93510044 233.48492246 15.05371094 235.77124023 C2.32585942 239.91555286 -10.97470921 240.51333988 -23.25 234.6875 C-34.14386506 228.37076935 -40.77223393 219.79725981 -44.25 207.6875 C-44.66520904 205.02381261 -44.96332272 202.36977753 -45.25 199.6875 C-46.26707031 200.83025391 -46.26707031 200.83025391 -47.3046875 201.99609375 C-65.581112 222.35917056 -88.20126616 237.428169 -116.11914062 239.94628906 C-139.02545578 241.16113366 -161.3418728 237.66235402 -179.171875 222.14453125 C-191.09359063 210.97416746 -197.7818119 197.67336195 -198.48828125 181.26953125 C-198.90460285 163.34716659 -193.90788187 150.13559885 -181.5078125 136.86328125 C-174.41836238 130.03140631 -166.50391 125.0567031 -157.875 120.4375 C-156.76257935 119.83723999 -156.76257935 119.83723999 -155.62768555 119.22485352 C-144.15053601 113.28500084 -131.74319791 109.73623707 -119.25 106.625 C-118.22702316 106.36878372 -118.22702316 106.36878372 -117.18338013 106.10739136 C-94.8258273 100.56620075 -72.25455159 98.23037972 -49.25 97.6875 C-49.31975943 91.44730691 -49.40813048 85.20772877 -49.51245117 78.96801758 C-49.5453426 76.85317921 -49.57348085 74.73826058 -49.59643555 72.62329102 C-49.85973918 48.98758865 -51.74375351 24.59161573 -69.25 6.6875 C-83.38115152 -4.63234849 -99.23111723 -8.90065862 -117.2421875 -6.99609375 C-132.52560568 -4.74614757 -145.56154152 0.82790034 -159.25 7.6875 C-158.52876953 7.77902344 -157.80753906 7.87054687 -157.06445312 7.96484375 C-146.66045017 9.37528741 -137.24428106 13.19509543 -130.64453125 21.609375 C-128.47891926 24.8365615 -126.75305051 28.10736963 -125.25 31.6875 C-124.8375 32.595 -124.425 33.5025 -124 34.4375 C-121.50431404 45.25213916 -123.63537885 55.19156098 -128.8125 64.8125 C-134.01390575 73.02865087 -142.13070821 79.0508812 -151.62890625 81.234375 C-161.48938 82.93901726 -170.20120124 81.4501386 -178.73046875 76.14453125 C-186.78031451 70.25209809 -192.97449453 62.53954881 -195.25 52.6875 C-197.12739065 37.94302316 -193.3433004 26.907982 -184.265625 15.140625 C-166.76575772 -6.15766308 -138.79344229 -16.98329433 -112.25 -21.3125 C-111.01636719 -21.51875 -109.78273438 -21.725 -108.51171875 -21.9375 C-73.23005599 -26.96278134 -28.23170618 -24.43874413 0 0 Z " fill="#010101" transform="translate(2397.25,2223.3125)"/>
<path d="M0 0 C49.17 0 98.34 0 149 0 C149 1.65 149 3.3 149 5 C147.85402344 5.24234375 146.70804688 5.4846875 145.52734375 5.734375 C143.99726113 6.07230736 142.46732059 6.41088344 140.9375 6.75 C139.80924805 6.98589844 139.80924805 6.98589844 138.65820312 7.2265625 C132.27489086 8.66349859 127.37970248 10.67464636 122.60546875 15.33984375 C119.34382346 20.74417573 120.12667351 26.93952876 121 33 C121.77713796 36.01101596 122.81430721 38.89818131 123.89453125 41.8125 C124.20190216 42.66526016 124.50927307 43.51802032 124.82595825 44.3966217 C125.86895734 47.27018182 126.93150341 50.1358262 128 53 C128.38261993 54.02648651 128.76523987 55.05297302 129.15945435 56.11056519 C132.19723948 64.23255012 135.28434983 72.33551991 138.375 80.4375 C139.34834851 82.99390835 140.32084797 85.55063927 141.29321289 88.10742188 C141.78504673 89.40060528 142.27688328 90.69378765 142.76872253 91.98696899 C143.01250326 92.62795155 143.25628399 93.2689341 143.50745201 93.92934036 C144.24500323 95.86822698 144.98290878 97.80697841 145.72090149 99.74569702 C148.81662173 107.87940401 151.90070496 116.01743809 154.97265625 124.16015625 C155.35663574 125.17790634 155.74061523 126.19565643 156.13623047 127.24424744 C157.57923781 131.07006958 159.02176503 134.89607134 160.46282959 138.72262573 C164.90251372 150.51065383 169.41064688 162.26939028 174 174 C177.23578973 166.36636062 180.3013633 158.6963345 183.16015625 150.9140625 C183.54295242 149.87842667 183.9257486 148.84279083 184.32014465 147.77577209 C185.56991694 144.39303295 186.81623747 141.0090336 188.0625 137.625 C188.94067142 135.24575859 189.81909376 132.86660979 190.69775391 130.48754883 C192.2986751 126.15259746 193.89894568 121.81740744 195.4984436 117.48193073 C198.50656345 109.32953469 201.52669084 101.18164166 204.55078125 93.03515625 C205.45240656 90.60531118 206.35401806 88.17546098 207.25561523 85.74560547 C208.55012247 82.25696298 209.84492978 78.76843391 211.14089966 75.28033447 C216.89171425 59.79954784 216.89171425 59.79954784 222.5078125 44.26953125 C222.75071014 43.59508469 222.99360779 42.92063812 223.24386597 42.22575378 C225.97444282 34.49961725 227.89263407 26.42520912 224.3125 18.6875 C220.40424513 11.85819652 214.26027939 9.29561028 207 7 C204.30415199 6.47472205 201.74588803 6.20339911 199 6 C199 4.02 199 2.04 199 0 C230.68 0 262.36 0 295 0 C295 1.98 295 3.96 295 6 C293.54980469 6.65355469 293.54980469 6.65355469 292.0703125 7.3203125 C277.89754368 13.76994404 266.41100376 19.07410424 259.66308594 33.88085938 C259.35955578 34.53987495 259.05602562 35.19889053 258.74329758 35.87787628 C255.64986594 42.65798347 252.83829771 49.54734871 250.078125 56.46875 C249.53536117 57.82049988 248.99220848 59.17209368 248.44869995 60.52354431 C247.30343211 63.37345643 246.16068429 66.22435939 245.02008057 69.07614136 C243.21924548 73.5785726 241.41259742 78.07865712 239.60498047 82.57836914 C237.77753766 87.12814599 235.95040463 91.67804533 234.12533569 96.22877502 C229.51973406 107.71259265 224.89311453 119.18778432 220.25061035 130.65673828 C218.36658834 135.31111649 216.48417905 139.96614692 214.6015625 144.62109375 C214.23019165 145.53921844 213.8588208 146.45734314 213.47619629 147.40328979 C209.25920677 157.82958216 205.04849993 168.25841083 200.837677 178.68719482 C199.50708952 181.98244254 198.17631048 185.27761281 196.84545898 188.57275391 C195.96598182 190.75032502 195.08650591 192.92789663 194.20703125 195.10546875 C193.77319626 196.1796405 193.33936127 197.25381226 192.89237976 198.36053467 C190.34089244 204.6784239 187.79068007 210.99682594 185.24137878 217.31559753 C180.17143607 229.88133232 175.0919089 242.44314989 170 255 C169.64228516 255.8825647 169.28457031 256.76512939 168.91601562 257.67443848 C120.25714257 377.69261633 120.25714257 377.69261633 87.41015625 392.6328125 C69.94660832 398.95980016 50.62157374 392.59135798 34.7097168 385.26708984 C20.31429712 378.51509126 20.31429712 378.51509126 16 375 C16 373.68 16 372.36 16 371 C16.93005859 370.76216797 16.93005859 370.76216797 17.87890625 370.51953125 C50.3378795 361.96774936 78.18900937 345.93383836 99 319 C99.99650301 317.75319214 100.99395757 316.50714442 101.9921875 315.26171875 C110.04053664 305.10593433 116.96630932 294.44943742 123.59765625 283.32470703 C124.83434389 281.27461306 126.10583327 279.25608088 127.40625 277.24609375 C128.38078125 275.70115234 128.38078125 275.70115234 129.375 274.125 C129.91898438 273.28195312 130.46296875 272.43890625 131.0234375 271.5703125 C133.08282687 266.14999967 130.74616393 260.88667777 128.52526855 255.84936523 C128.18435181 255.09985596 127.84343506 254.35034668 127.4921875 253.578125 C127.13499634 252.7735083 126.77780518 251.9688916 126.40979004 251.13989258 C125.64049041 249.40932008 124.86727198 247.6804853 124.09051514 245.95324707 C122.43467424 242.27073674 120.79809123 238.57977618 119.16055298 234.88909912 C118.32178388 232.99891466 117.48207665 231.10914622 116.64144897 229.2197876 C112.80764817 220.59623791 109.07577113 211.93129134 105.375 203.25 C104.14898484 200.37867232 102.92220032 197.50767365 101.6953125 194.63671875 C101.39219147 193.92714523 101.08907043 193.21757172 100.77676392 192.48649597 C97.29218404 184.33464507 93.77196302 176.19825301 90.25 168.0625 C89.58487551 166.52579928 88.91975509 164.98909679 88.25463867 163.45239258 C87.23343487 161.0930352 86.21221226 158.73368599 85.19090271 156.37437439 C81.01708327 146.73134924 76.85244801 137.08435926 72.6875 127.4375 C71.88884056 125.58780669 71.09017518 123.73811594 70.29150391 121.88842773 C67.03239041 114.34030932 63.77354622 106.79207469 60.51513672 99.24365234 C60.10427826 98.29187103 59.6934198 97.34008972 59.27011108 96.35946655 C58.44360694 94.44478505 57.61712975 92.53009191 56.79067993 90.61538696 C54.77237514 85.93972346 52.75328156 81.26440364 50.73242188 76.58984375 C49.95570181 74.79298057 49.1790087 72.99610575 48.40234375 71.19921875 C48.02661224 70.32993744 47.65088074 69.46065613 47.26376343 68.56503296 C45.18506905 63.75287508 43.11413222 58.93751196 41.05316162 54.11773682 C39.87183243 51.35604925 38.68673864 48.59598596 37.50115967 45.83612061 C36.72431584 44.0234073 35.95308139 42.20829315 35.18212891 40.39306641 C27.83615711 23.3097047 21.78418721 14.70056265 4.375 7.6875 C2.9183933 7.12054385 1.46070538 6.5563112 0 6 C0 4.02 0 2.04 0 0 Z " fill="#010101" transform="translate(2456,2200)"/>
<path d="M0 0 C70.95 0 141.9 0 215 0 C213.61089926 4.16730223 212.6531952 6.90759523 210.48828125 10.484375 C209.98578857 11.32315186 209.4832959 12.16192871 208.96557617 13.02612305 C208.42006104 13.92500244 207.8745459 14.82388184 207.3125 15.75 C206.12628836 17.72968092 204.94144757 19.71018374 203.7578125 21.69140625 C203.13938477 22.72539551 202.52095703 23.75938477 201.88378906 24.82470703 C198.76504141 30.08163185 195.72891615 35.38558812 192.6875 40.6875 C187.52707056 49.66668728 182.29494817 58.59950238 177 67.5 C171.08984581 77.43645122 165.26706326 87.41904761 159.50390625 97.44140625 C154.79103301 105.63684477 150.03611366 113.80682753 145.26464844 121.96826172 C141.02146824 129.23259574 136.81868866 136.51950908 132.625 143.8125 C127.48345255 152.74874463 122.27020464 161.63905737 117 170.5 C109.86012319 182.50667821 102.85586595 194.58707753 95.8984375 206.70019531 C93.91689737 210.1444464 91.92830001 213.58453489 89.9375 217.0234375 C89.26112005 218.19261015 88.58476886 219.36179945 87.90844727 220.53100586 C86.63900526 222.72505073 85.36872562 224.91861128 84.09741211 227.11157227 C80.29648998 233.68755297 76.60433474 240.31423491 73 247 C79.11596037 246.90525653 85.23157957 246.798923 91.34716797 246.68261719 C93.42035656 246.6447302 95.49360194 246.6098136 97.56689453 246.578125 C120.80350339 246.43894173 120.80350339 246.43894173 143.3125 241.25 C144.44075195 240.85421753 144.44075195 240.85421753 145.59179688 240.45043945 C156.48059752 236.5122608 164.78962698 231.19666622 173 223 C173.69996094 222.31164063 174.39992188 221.62328125 175.12109375 220.9140625 C188.97503797 206.3849748 195.88590547 185.99658026 201 167 C201.32097656 165.83984375 201.64195312 164.6796875 201.97265625 163.484375 C202.65955895 160.99235589 203.33631028 158.49827919 204 156 C206.64 156 209.28 156 212 156 C212 189.66 212 223.32 212 258 C139.07 258 66.14 258 -9 258 C-7.87566489 251.25398936 -7.87566489 251.25398936 -5.5859375 247.515625 C-5.08022217 246.67684814 -4.57450684 245.83807129 -4.0534668 244.97387695 C-3.49957275 244.07499756 -2.94567871 243.17611816 -2.375 242.25 C-1.17952933 240.27041236 0.0144202 238.28990549 1.20703125 236.30859375 C2.14409912 234.75760986 2.14409912 234.75760986 3.10009766 233.17529297 C6.24007121 227.92747801 9.27233006 222.61854032 12.3125 217.3125 C17.47242523 208.33302857 22.70505684 199.40048919 28 190.5 C33.91015419 180.56354878 39.73293674 170.58095239 45.49609375 160.55859375 C50.20896699 152.36315523 54.96388634 144.19317247 59.73535156 136.03173828 C63.97853176 128.76740426 68.18131134 121.48049092 72.375 114.1875 C77.51654745 105.25125537 82.72979536 96.36094263 88 87.5 C95.7884849 74.40259868 103.41072577 61.21355547 111 48 C113.04544267 44.44005829 115.09182201 40.8806593 117.14038086 37.32250977 C118.42514434 35.0907291 119.7085967 32.85819293 120.99047852 30.62475586 C123.89693432 25.57589803 126.8306582 20.57983668 130.05029297 15.72314453 C131.08967294 13.83729779 131.51365632 12.08855962 132 10 C125.25945189 10.09317794 118.51923259 10.20058685 111.77905273 10.31738281 C109.49134316 10.35540658 107.2035792 10.39030315 104.91577148 10.421875 C87.35150082 10.55720643 87.35150082 10.55720643 70 13 C69.2783667 13.14550293 68.5567334 13.29100586 67.81323242 13.44091797 C50.66603011 17.13548802 34.66786839 25.63572292 24.92578125 40.65625 C17.28015237 52.97275795 12.0054259 65.97793468 8.54296875 80.05859375 C8 82 8 82 7 83 C4.69 83 2.38 83 0 83 C0 55.61 0 28.22 0 0 Z " fill="#010101" transform="translate(2777,2200)"/>
<path d="M0 0 C2.81351786 1.28895717 4.9325707 2.66268505 7.171875 4.79296875 C7.74953613 5.33711426 8.32719727 5.88125977 8.92236328 6.44189453 C9.5254834 7.01794434 10.12860352 7.59399414 10.75 8.1875 C12.01223105 9.37714061 13.27524532 10.5659508 14.5390625 11.75390625 C15.14137695 12.32125488 15.74369141 12.88860352 16.36425781 13.47314453 C18.83549106 15.77987479 21.38608663 17.98756829 23.9453125 20.1953125 C26.66924703 22.58781774 29.33343269 25.04405942 32 27.5 C35.90509907 31.09587996 39.84583834 34.63938238 43.86328125 38.109375 C45.59289909 39.6397864 47.29123266 41.19133536 48.98046875 42.765625 C49.77420898 43.50329102 49.77420898 43.50329102 50.58398438 44.25585938 C51.62658087 45.22734088 52.66584182 46.20241878 53.70117188 47.18164062 C56.61599716 49.89464046 59.50805696 52.08485757 63 54 C71.76075699 44.57420938 71.76075699 44.57420938 80.30078125 34.94921875 C84.5746796 30.04651697 88.96919471 25.24887834 93.328125 20.421875 C97.92991257 15.31921259 102.49373754 10.18727319 107 5 C113.77642605 9.74349824 119.66697316 15.24390231 125.6796875 20.89453125 C128.7058015 23.7373212 131.80162285 26.48337422 134.9453125 29.1953125 C137.66924703 31.58781774 140.33343269 34.04405942 143 36.5 C146.90165716 40.0927106 150.84016617 43.6317893 154.8515625 47.1015625 C158.27632373 50.12780606 161.62232091 53.24074517 164.96484375 56.35742188 C167.76290569 58.98217364 167.76290569 58.98217364 171 61 C170.4165913 64.1705127 169.53089908 65.85649897 167.3046875 68.171875 C166.75723877 68.7496167 166.20979004 69.3273584 165.64575195 69.92260742 C164.76922974 70.82716675 164.76922974 70.82716675 163.875 71.75 C162.67757547 73.0109501 161.4809533 74.27266266 160.28515625 75.53515625 C159.71168457 76.13730957 159.13821289 76.73946289 158.54736328 77.35986328 C156.75321151 79.2615849 155.02035028 81.2080398 153.3125 83.1875 C150.59243789 86.33953227 147.80631328 89.42441528 145 92.5 C141.57669079 96.25326672 138.20248419 100.04030597 134.87109375 103.875 C130.9727408 108.302357 126.97875949 112.64497955 123 117 C120.06768431 115.65951283 117.83242887 114.15181514 115.4375 112 C114.74527344 111.38125 114.05304687 110.7625 113.33984375 110.125 C109.77459684 106.88711299 106.21045031 103.64807881 102.65234375 100.40234375 C100.47539004 98.43058156 98.28161326 96.48634663 96.0625 94.5625 C92.6531142 91.6011649 89.3220569 88.55847514 86 85.5 C82.05428632 81.86773945 78.07542817 78.2829662 74.0234375 74.76953125 C69.97315928 71.22749258 65.99194962 67.60747906 62 64 C58.10747188 65.55701125 55.93857023 68.01434106 53.1875 71.125 C52.74664063 71.62 52.30578125 72.115 51.8515625 72.625 C50.56097668 74.07737938 49.28028081 75.53852859 48 77 C47.38769531 77.69867187 46.77539062 78.39734375 46.14453125 79.1171875 C45.04261493 80.37876391 43.94236928 81.64180139 42.84375 82.90625 C40.59123543 85.46419027 38.29682908 87.9817898 36 90.5 C32.53541609 94.29952858 29.11162705 98.12725718 25.73828125 102.0078125 C22.51987371 105.69632451 19.25690811 109.34549531 16 113 C11.07431183 108.82387307 6.25579047 104.54470688 1.46484375 100.21484375 C-0.63181373 98.3308425 -2.7452769 96.47135038 -4.875 94.625 C-8.84252724 91.17148439 -12.7084764 87.6099606 -16.57763672 84.04736328 C-19.96309634 80.93538983 -23.39597083 77.88971212 -26.87109375 74.87890625 C-29.63748596 72.43737477 -32.3491418 69.9375465 -35.0625 67.4375 C-39.3009999 63.53274547 -43.58897577 59.70927037 -48 56 C-46.33922934 51.85310599 -43.34019803 48.93282254 -40.3125 45.75 C-39.2166794 44.58144938 -38.12162288 43.41218174 -37.02734375 42.2421875 C-36.2381958 41.40059082 -36.2381958 41.40059082 -35.43310547 40.54199219 C-33.15230229 38.08789459 -30.96488895 35.55696917 -28.7734375 33.0234375 C-26.54861908 30.48498829 -24.27496681 27.99358224 -22 25.5 C-18.55413886 21.72150672 -15.15166929 17.91349944 -11.80078125 14.05078125 C-8.85274719 10.69347565 -5.8333189 7.40054917 -2.8203125 4.1015625 C-0.96323333 2.13276579 -0.96323333 2.13276579 0 0 Z " fill="#010101" transform="translate(2820,2033)"/>
<path d="M0 0 C3.81562395 1.29823475 6.07090879 2.74966858 8.8125 5.6875 C12.03373213 9.03517302 15.3566705 12.1297201 18.875 15.16015625 C22.97379628 18.70893024 26.97577623 22.36719009 31 26 C32.66640851 27.50028679 34.33307353 29.00028872 36 30.5 C39.33333333 33.5 42.66666667 36.5 46 39.5 C46.82242188 40.23992187 47.64484375 40.97984375 48.4921875 41.7421875 C50.18592894 43.26708244 51.87861169 44.79315402 53.5703125 46.3203125 C54.41335937 47.08085938 55.25640625 47.84140625 56.125 48.625 C56.94226562 49.36363281 57.75953125 50.10226562 58.6015625 50.86328125 C61.48666743 53.43356203 64.4329619 55.92694584 67.40625 58.39453125 C69.13211623 60.13308768 70.0300407 61.76424381 71 64 C70.21496094 64.845625 69.42992188 65.69125 68.62109375 66.5625 C63.58005555 72.00200114 58.55413762 77.44352629 53.69921875 83.05078125 C49.4253204 87.95348303 45.03080529 92.75112166 40.671875 97.578125 C36.69223086 101.99092769 32.74240088 106.42519616 28.83984375 110.90625 C25.26630337 114.97295412 21.6297047 118.98345603 18 123 C14.26077871 121.4186938 11.70350263 119.06769602 8.75 116.3125 C5.55516282 113.35459165 2.35785975 110.40880654 -0.9375 107.5625 C-4.3468858 104.6011649 -7.6779431 101.55847514 -11 98.5 C-14.95862186 94.85585671 -18.9517676 91.26086283 -23.015625 87.734375 C-27.9253472 83.44320048 -32.73874818 79.04197892 -37.578125 74.671875 C-42.68078741 70.07008743 -47.81272681 65.50626246 -53 61 C-51.33922701 56.85310018 -48.34019055 53.93283833 -45.3125 50.75 C-44.21798673 49.58274649 -43.12423255 48.41478071 -42.03125 47.24609375 C-41.5053125 46.68519043 -40.979375 46.12428711 -40.4375 45.54638672 C-38.1312939 43.06549177 -35.91608342 40.50961693 -33.69921875 37.94921875 C-29.4253204 33.04651697 -25.03080529 28.24887834 -20.671875 23.421875 C-16.06992997 18.319038 -11.51166024 13.18273098 -7 8 C-5.68786505 6.49968066 -4.37537249 4.99967399 -3.0625 3.5 C-2.47597656 2.8296875 -1.88945312 2.159375 -1.28515625 1.46875 C-0.86105469 0.9840625 -0.43695312 0.499375 0 0 Z " fill="#010101" transform="translate(2407,1573)"/>
<path d="M0 0 C0.25589267 10.6140333 0.45082969 21.22732248 0.56993389 31.84382248 C0.62712688 36.77476387 0.70457256 41.7035816 0.82983398 46.63330078 C0.95016231 51.3991984 1.01528895 56.16306617 1.04364967 60.93036652 C1.06383418 62.74056181 1.10325272 64.55065713 1.16303062 66.35997772 C1.65844938 81.98962951 1.65844938 81.98962951 -3.78792858 88.40532303 C-6.06392236 90.7706333 -8.47545558 92.90420966 -11 95 C-11.82498489 95.73103943 -12.64996979 96.46207886 -13.49995422 97.215271 C-22.19105388 104.73571385 -30.99434933 106.79110964 -42.2890625 106.31640625 C-52.12189036 105.4780283 -59.35638608 100.37259586 -65.6875 93 C-75.39358151 79.53169882 -75.49825868 64.29102474 -73.55859375 48.37890625 C-70.51928589 33.985203 -61.24178766 20.65117005 -49.1796875 12.296875 C-35.19870771 3.97844258 -16.16300661 -0.11022138 0 0 Z " fill="#FCFCFC" transform="translate(2348,2331)"/>
<path d="M0 0 C2.64584324 4.77007738 3.97397072 9.29078588 5.125 14.5625 C5.37830078 15.6752832 5.37830078 15.6752832 5.63671875 16.81054688 C5.96176743 18.24767155 6.28029355 19.68629065 6.59155273 21.12646484 C6.90680628 22.57252324 7.2502858 24.01244642 7.60546875 25.44921875 C10.24094358 42.48847684 9.21203403 66.31690004 -0.89453125 80.6953125 C-5.36452155 86.01143863 -9.4282554 89.48804994 -16.515625 90.50390625 C-25.24556284 90.64088226 -31.31179484 89.85846542 -38 84 C-43.61771556 78.40714159 -46.24653316 71.31008897 -49 64 C-49.33 64 -49.66 64 -50 64 C-50.08636719 64.58265625 -50.17273437 65.1653125 -50.26171875 65.765625 C-51.88871099 75.25890081 -54.79760963 85.27776899 -62 92 C-71.09224074 98.26387269 -77.92722954 99.91609252 -89 99 C-95.70785984 97.27355083 -100.13736334 92.55315448 -104 87 C-109.49849053 77.18493746 -110.36002051 67.6258681 -110.3125 56.5625 C-110.31056641 54.70963379 -110.31056641 54.70963379 -110.30859375 52.81933594 C-110.20887314 43.27856689 -109.22420834 34.26753477 -107 25 C-105.35 24.67 -103.7 24.34 -102 24 C-102.165 24.99 -102.33 25.98 -102.5 27 C-104.31564418 41.20619522 -104.31564418 41.20619522 -100.26171875 54.45703125 C-96.29581417 59.30697647 -92.27677769 61.90405469 -86 63 C-77.20340511 63.85202621 -70.32524363 63.20693624 -63 58 C-58.44974074 53.99705966 -56.21593241 49.36094231 -55.82666016 43.30200195 C-55.7666965 40.07395835 -55.77675459 36.85337522 -55.8125 33.625 C-55.81314453 32.52671875 -55.81378906 31.4284375 -55.81445312 30.296875 C-55.84604192 24.44241749 -56.11970419 18.78882523 -57 13 C-53.535 12.505 -53.535 12.505 -50 12 C-49.54037019 14.27057127 -49.08237523 16.5414735 -48.625 18.8125 C-48.41593018 19.83657959 -48.41593018 19.83657959 -48.20263672 20.88134766 C-47.39607645 24.86928815 -46.72056619 28.84920163 -46.125 32.875 C-44.94139385 39.43863413 -42.28240493 44.71759507 -37.5625 49.4375 C-29.64633883 54.26442754 -20.0869743 54.07318555 -11.1640625 52.5 C-6.38186817 51.10188339 -3.64121553 49.40202589 -1 45 C3.13063565 32.60809306 -1.05783844 18.87204124 -5 7 C-5.38414062 5.83855469 -5.76828125 4.67710938 -6.1640625 3.48046875 C-6.43992187 2.66191406 -6.71578125 1.84335938 -7 1 C-4.53721199 -0.231394 -2.7204945 -0.07159196 0 0 Z " fill="#030303" transform="translate(2884,1612)"/>
</svg>
