<svg version="1.1" id="Layer_1" xmlns="http://www.w3.org/2000/svg" xmlns:xlink="http://www.w3.org/1999/xlink" x="0px" y="0px"
	 width="100%" viewBox="0 0 1600 1373" enable-background="new 0 0 1600 1373" xml:space="preserve">
<path fill="#141414" opacity="1.000000" stroke="none" 
	d="
M982.000000,1374.000000 
	C973.970642,1374.000000 965.941223,1374.000000 957.293579,1373.553711 
	C956.633972,1371.776123 956.556396,1370.444580 956.556519,1369.113159 
	C956.573975,1189.315308 956.597717,1009.517395 956.613770,829.719543 
	C956.613953,827.721680 956.728088,825.685242 956.370483,823.743896 
	C956.216248,822.906128 955.037964,821.759277 954.244019,821.690857 
	C953.582642,821.633850 952.237549,822.901672 952.175964,823.662170 
	C951.935913,826.627136 952.090454,829.623596 952.090271,832.608398 
	C952.085144,928.756042 952.086426,1024.903687 952.070862,1121.051392 
	C952.057129,1205.367554 952.024353,1289.683838 952.000000,1374.000000 
	C635.022278,1374.000000 318.044525,1374.000000 1.033387,1374.000000 
	C1.033387,916.387756 1.033387,458.775452 1.033387,1.081589 
	C534.241455,1.081589 1067.483032,1.081589 1600.862305,1.081589 
	C1600.862305,458.542633 1600.862305,916.085327 1600.862305,1374.000000 
	C1405.637451,1374.000000 1210.274658,1374.000000 1014.449341,1373.531372 
	C1013.985352,1195.102539 1013.984192,1017.142273 1013.980530,839.182007 
	C1013.980469,834.516479 1014.079529,829.844727 1013.851929,825.189575 
	C1013.792786,823.978638 1012.674316,822.819519 1012.042358,821.636658 
	C1011.205017,822.808655 1009.686951,823.958984 1009.648987,825.156372 
	C1009.491089,830.137329 1009.887329,835.132507 1009.887878,840.122437 
	C1009.906616,1015.749817 1009.903076,1191.377197 1009.907471,1367.004517 
	C1009.907532,1369.336304 1009.967834,1371.668213 1010.000000,1374.000000 
	C1002.637268,1374.000000 995.274597,1374.000000 987.400146,1373.533936 
	C986.877075,1372.568115 986.855591,1372.068359 986.855652,1371.568481 
	C986.869019,1190.767090 986.884216,1009.965759 986.894958,829.164368 
	C986.895081,827.332214 987.050476,825.459167 986.711975,823.685730 
	C986.551025,822.842285 985.326477,821.540161 984.709839,821.607178 
	C983.873108,821.697876 982.645447,822.809204 982.492554,823.648132 
	C982.138977,825.587524 982.305908,827.626404 982.305908,829.624939 
	C982.305542,1008.760071 982.310425,1187.895142 982.299744,1367.030273 
	C982.299622,1369.353516 982.104248,1371.676758 982.000000,1374.000000 
M644.722168,523.312805 
	C644.299805,523.384949 643.877380,523.457092 643.447937,524.060547 
	C643.282104,524.356445 643.116272,524.652283 642.269470,525.049011 
	C629.828430,535.758728 614.632324,543.651550 606.707520,559.418701 
	C606.707520,538.398254 606.707520,517.377747 606.707520,496.697937 
	C593.949158,505.648743 581.291809,514.465881 568.713135,523.393921 
	C565.190735,525.894043 561.499084,528.358948 558.644043,531.524475 
	C556.739563,533.636047 555.167969,536.957031 555.162354,539.740112 
	C554.984558,627.715393 555.015808,715.691162 555.033691,803.666809 
	C555.033936,804.856750 555.268677,806.046692 555.389709,807.195618 
	C560.350830,803.458069 564.937927,799.889771 569.641113,796.481934 
	C580.286133,788.768799 590.997559,781.147339 601.662476,773.461670 
	C605.435913,770.742432 606.921814,767.225098 606.909058,762.364624 
	C606.752625,702.714844 606.807983,643.064575 606.808472,583.414429 
	C606.808472,581.080078 606.808411,578.745667 606.808411,575.122864 
	C618.249573,596.192017 635.591248,599.845947 653.364929,586.178711 
	C657.401184,583.075073 661.573120,580.147888 665.688599,577.135071 
	C678.231567,595.454346 695.049866,599.593567 711.624756,587.843445 
	C721.649536,580.736816 730.862488,572.460022 740.239563,564.473450 
	C746.864136,558.831238 749.893127,551.259277 749.392334,542.678223 
	C748.960754,535.283813 747.811157,527.992920 756.802368,524.250427 
	C749.092773,514.035217 741.920349,504.531708 734.757324,495.040619 
	C725.545227,502.086456 716.770935,508.974213 707.788818,515.579407 
	C704.258728,518.175293 703.362305,520.374207 705.739868,524.546814 
	C708.934204,530.153076 711.446228,536.208313 713.700928,542.275330 
	C716.805298,550.628723 719.256470,559.198120 718.877014,568.845398 
	C699.277222,563.932617 694.285522,548.954163 691.973511,532.113220 
	C682.888245,538.838745 674.223694,545.303406 665.497925,551.684387 
	C662.492920,553.881897 660.595703,556.324402 661.093994,560.420044 
	C661.416992,563.074463 660.783936,565.845215 660.575806,568.610168 
	C639.771179,564.768799 631.918762,544.041504 643.949707,524.836609 
	C643.780518,524.402588 643.611389,523.968567 644.149353,523.618225 
	C644.523315,523.314087 644.897217,523.010010 645.239990,522.988831 
	C645.239990,522.988831 645.057007,522.898499 645.057007,522.898499 
	C645.057007,522.898499 645.257874,522.922363 644.722168,523.312805 
M315.471924,931.058167 
	C314.929810,931.625549 314.387695,932.192871 313.845581,932.760254 
	C314.107941,932.939026 314.370331,933.117798 314.632721,933.296570 
	C315.067261,932.502869 315.501831,931.709167 316.542664,931.209778 
	C317.028992,930.807068 317.515320,930.404358 318.678436,929.877563 
	C321.212891,927.846130 323.747314,925.814697 326.281769,923.783264 
	C325.952118,923.427185 325.622498,923.071106 325.292847,922.715027 
	C322.852295,925.128540 320.411743,927.542114 317.370728,929.681946 
	C316.917877,930.128845 316.465057,930.575745 315.471924,931.058167 
M448.769470,824.938599 
	C445.766144,827.290283 442.744049,829.618469 439.762482,831.997498 
	C419.784607,847.938354 399.815338,863.890015 379.202881,880.062378 
	C363.965942,892.179871 348.729004,904.297302 333.492065,916.414795 
	C333.815247,916.813965 334.138428,917.213196 334.461578,917.612427 
	C349.843719,905.307800 365.225861,893.003174 381.184601,880.344482 
	C394.458649,869.842102 407.749817,859.361328 421.000977,848.830139 
	C430.708160,841.115540 440.362701,833.334717 450.641327,825.257446 
	C451.318451,824.667847 451.995575,824.078186 453.269196,823.210693 
	C469.764984,809.488342 486.927155,796.481812 502.608521,781.884521 
	C529.619568,756.740845 541.001038,725.314209 535.976135,688.482910 
	C533.055237,667.073547 524.123291,648.166321 510.797546,630.719666 
	C493.436829,644.648621 476.351532,658.356689 459.450073,671.917236 
	C464.059692,679.614990 468.842407,686.468872 472.486938,693.882263 
	C489.130310,727.736816 491.464966,762.002197 472.695435,795.743042 
	C467.205872,805.611267 458.968292,813.950806 451.336792,823.129944 
	C450.696075,823.740723 450.055389,824.351562 448.769470,824.938599 
M897.719849,777.027466 
	C898.001648,776.671143 898.283386,776.314758 899.252563,775.680481 
	C900.575867,776.317261 902.360718,776.602295 903.153931,777.643066 
	C917.147522,796.005371 936.310669,805.118164 958.599304,807.946899 
	C998.443542,813.003662 1034.937744,802.813354 1067.329956,780.015076 
	C1089.877075,764.145874 1111.084717,746.275146 1132.146362,728.420349 
	C1154.735474,709.270447 1169.569458,684.849365 1176.532349,655.938782 
	C1179.946289,641.764526 1180.599365,627.454468 1174.818115,613.703369 
	C1166.098877,592.964050 1148.672241,583.043274 1128.066406,577.542542 
	C1126.668701,577.169434 1124.470337,578.205627 1123.182861,579.250122 
	C1107.022339,592.359375 1090.671387,605.255798 1074.930786,618.856689 
	C1034.225952,654.028015 993.802551,689.525330 953.257996,724.882385 
	C952.204224,725.801270 951.048401,726.603027 949.789062,727.576111 
	C943.688171,716.815552 939.972168,705.708008 939.146912,694.034607 
	C938.325012,682.408691 938.966797,670.679382 938.966797,658.133484 
	C922.795654,670.529907 907.974365,682.072449 892.923767,693.307739 
	C888.920837,696.295898 886.709778,699.598389 885.935608,704.630310 
	C883.220886,722.273682 878.741150,739.448975 872.053528,756.089539 
	C869.347168,762.823669 865.468689,765.822937 858.208923,766.213440 
	C830.548401,767.701477 802.898071,768.119568 775.383301,764.711426 
	C763.125366,763.193176 751.073608,760.010620 738.820251,757.561829 
	C739.249878,756.067505 739.245178,755.670959 739.441101,755.470154 
	C740.602112,754.280273 741.796021,753.121460 743.003479,751.978210 
	C758.614319,737.197510 774.264893,722.441162 786.761353,704.788269 
	C794.356262,694.059631 800.480896,682.587769 800.882385,669.083252 
	C801.915405,634.335205 767.318237,604.109192 731.900513,608.460693 
	C718.877258,610.060791 707.675293,615.802429 697.649719,623.697449 
	C679.999512,637.596741 662.471558,651.678040 645.386047,666.261414 
	C618.856384,688.905823 612.850342,725.634888 630.234680,755.936707 
	C641.869385,776.216492 660.340393,787.857788 681.469482,796.058105 
	C682.900085,796.613342 684.351685,797.114624 686.419983,797.869629 
	C664.788208,817.370422 643.901489,836.199585 622.369507,855.214966 
	C599.845154,874.679626 577.320862,894.144287 554.796570,913.608948 
	C559.393616,911.168457 563.396973,908.014099 567.273010,904.710266 
	C586.257080,888.529663 605.207092,872.309265 624.780273,855.838989 
	C644.352905,839.015442 664.138123,822.429199 683.359070,805.213013 
	C688.612122,800.507812 693.143982,798.913818 699.648254,801.561096 
	C703.137573,802.981201 707.086853,803.276550 710.832458,804.060974 
	C736.639038,809.465515 762.804688,809.209167 788.967224,809.021667 
	C803.146301,808.919983 816.712769,806.064453 829.674744,800.263062 
	C848.782532,791.711060 864.637268,778.506226 880.336304,765.061707 
	C884.028503,761.899597 887.762329,758.786072 891.536011,755.600403 
	C893.930786,760.726501 896.215454,765.166931 898.025330,769.793152 
	C898.505554,771.020752 897.526001,772.819336 896.743408,774.522949 
	C896.407104,774.883179 896.070801,775.243469 895.077148,775.814697 
	C879.075684,789.796265 863.074280,803.777893 847.072876,817.759460 
	C847.369385,818.115356 847.665894,818.471252 847.962402,818.827148 
	C864.841309,805.480164 881.842163,792.282410 897.719849,777.027466 
M423.941620,576.516724 
	C425.240875,576.234680 426.565826,576.038269 427.835419,575.657288 
	C442.418579,571.281433 450.321167,555.161377 444.923187,540.848022 
	C439.544586,526.586121 422.927704,519.730042 409.126984,526.078674 
	C397.845917,531.268250 391.105652,544.045959 393.814819,555.106628 
	C397.342773,569.510193 408.260345,577.558655 423.941620,576.516724 
M328.258270,922.358398 
	C328.613739,921.798035 328.969208,921.237610 329.955292,919.683105 
	C328.384766,920.786194 327.772308,921.092529 327.365845,921.573059 
	C327.234406,921.728394 327.643799,922.341248 328.258270,922.358398 
M552.474915,917.494141 
	C552.474915,917.494141 552.510864,917.501953 552.474915,917.494141 
z"/>
<path fill="#17838C" opacity="1.000000" stroke="none" 
	d="
M952.416626,1374.000000 
	C952.024353,1289.683838 952.057129,1205.367554 952.070862,1121.051392 
	C952.086426,1024.903687 952.085144,928.756042 952.090271,832.608398 
	C952.090454,829.623596 951.935913,826.627136 952.175964,823.662170 
	C952.237549,822.901672 953.582642,821.633850 954.244019,821.690857 
	C955.037964,821.759277 956.216248,822.906128 956.370483,823.743896 
	C956.728088,825.685242 956.613953,827.721680 956.613770,829.719543 
	C956.597717,1009.517395 956.573975,1189.315308 956.556519,1369.113159 
	C956.556396,1370.444580 956.633972,1371.776123 956.837646,1373.553711 
	C955.611084,1374.000000 954.222229,1374.000000 952.416626,1374.000000 
z"/>
<path fill="#12858C" opacity="1.000000" stroke="none" 
	d="
M982.416626,1374.000000 
	C982.104248,1371.676758 982.299622,1369.353516 982.299744,1367.030273 
	C982.310425,1187.895142 982.305542,1008.760071 982.305908,829.624939 
	C982.305908,827.626404 982.138977,825.587524 982.492554,823.648132 
	C982.645447,822.809204 983.873108,821.697876 984.709839,821.607178 
	C985.326477,821.540161 986.551025,822.842285 986.711975,823.685730 
	C987.050476,825.459167 986.895081,827.332214 986.894958,829.164368 
	C986.884216,1009.965759 986.869019,1190.767090 986.855652,1371.568481 
	C986.855591,1372.068359 986.877075,1372.568115 986.944214,1373.533936 
	C985.611084,1374.000000 984.222229,1374.000000 982.416626,1374.000000 
z"/>
<path fill="#18858D" opacity="1.000000" stroke="none" 
	d="
M1010.399963,1374.000000 
	C1009.967834,1371.668213 1009.907532,1369.336304 1009.907471,1367.004517 
	C1009.903076,1191.377197 1009.906616,1015.749817 1009.887878,840.122437 
	C1009.887329,835.132507 1009.491089,830.137329 1009.648987,825.156372 
	C1009.686951,823.958984 1011.205017,822.808655 1012.042358,821.636658 
	C1012.674316,822.819519 1013.792786,823.978638 1013.851929,825.189575 
	C1014.079529,829.844727 1013.980469,834.516479 1013.980530,839.182007 
	C1013.984192,1017.142273 1013.985352,1195.102539 1013.993408,1373.531372 
	C1012.933289,1374.000000 1011.866638,1374.000000 1010.399963,1374.000000 
z"/>
<path fill="#FCFCFC" opacity="1.000000" stroke="none" 
	d="
M897.216675,774.355774 
	C897.526001,772.819336 898.505554,771.020752 898.025330,769.793152 
	C896.215454,765.166931 893.930786,760.726501 891.536011,755.600403 
	C887.762329,758.786072 884.028503,761.899597 880.336304,765.061707 
	C864.637268,778.506226 848.782532,791.711060 829.674744,800.263062 
	C816.712769,806.064453 803.146301,808.919983 788.967224,809.021667 
	C762.804688,809.209167 736.639038,809.465515 710.832458,804.060974 
	C707.086853,803.276550 703.137573,802.981201 699.648254,801.561096 
	C693.143982,798.913818 688.612122,800.507812 683.359070,805.213013 
	C664.138123,822.429199 644.352905,839.015442 624.249084,855.827454 
	C623.483521,855.553467 623.249146,855.291016 623.014771,855.028687 
	C643.901489,836.199585 664.788208,817.370422 686.419983,797.869629 
	C684.351685,797.114624 682.900085,796.613342 681.469482,796.058105 
	C660.340393,787.857788 641.869385,776.216492 630.234680,755.936707 
	C612.850342,725.634888 618.856384,688.905823 645.386047,666.261414 
	C662.471558,651.678040 679.999512,637.596741 697.649719,623.697449 
	C707.675293,615.802429 718.877258,610.060791 731.900513,608.460693 
	C767.318237,604.109192 801.915405,634.335205 800.882385,669.083252 
	C800.480896,682.587769 794.356262,694.059631 786.761353,704.788269 
	C774.264893,722.441162 758.614319,737.197510 743.003479,751.978210 
	C741.796021,753.121460 740.602112,754.280273 739.441101,755.470154 
	C739.245178,755.670959 739.249878,756.067505 738.820251,757.561829 
	C751.073608,760.010620 763.125366,763.193176 775.383301,764.711426 
	C802.898071,768.119568 830.548401,767.701477 858.208923,766.213440 
	C865.468689,765.822937 869.347168,762.823669 872.053528,756.089539 
	C878.741150,739.448975 883.220886,722.273682 885.935608,704.630310 
	C886.709778,699.598389 888.920837,696.295898 892.923767,693.307739 
	C907.974365,682.072449 922.795654,670.529907 938.966797,658.133484 
	C938.966797,670.679382 938.325012,682.408691 939.146912,694.034607 
	C939.972168,705.708008 943.688171,716.815552 949.789062,727.576111 
	C951.048401,726.603027 952.204224,725.801270 953.257996,724.882385 
	C993.802551,689.525330 1034.225952,654.028015 1074.930786,618.856689 
	C1090.671387,605.255798 1107.022339,592.359375 1123.182861,579.250122 
	C1124.470337,578.205627 1126.668701,577.169434 1128.066406,577.542542 
	C1148.672241,583.043274 1166.098877,592.964050 1174.818115,613.703369 
	C1180.599365,627.454468 1179.946289,641.764526 1176.532349,655.938782 
	C1169.569458,684.849365 1154.735474,709.270447 1132.146362,728.420349 
	C1111.084717,746.275146 1089.877075,764.145874 1067.329956,780.015076 
	C1034.937744,802.813354 998.443542,813.003662 958.599304,807.946899 
	C936.310669,805.118164 917.147522,796.005371 903.153931,777.643066 
	C902.360718,776.602295 900.575867,776.317261 898.587646,775.405396 
	C897.687439,774.872131 897.452087,774.613953 897.216675,774.355774 
M976.523132,708.017151 
	C968.156372,715.345703 959.789673,722.674255 951.347778,730.068604 
	C952.039795,731.272522 952.474854,732.152283 953.022705,732.955139 
	C953.960510,734.329224 954.919556,735.694458 955.954834,736.995605 
	C969.436218,753.939697 987.570740,762.628723 1008.470459,765.982971 
	C1039.467773,770.957825 1068.716309,764.365662 1096.895752,751.691467 
	C1098.887817,750.795532 1100.754028,749.055115 1102.043701,747.252808 
	C1111.017578,734.710571 1118.041138,721.136536 1122.514526,706.349976 
	C1126.913940,691.807495 1129.237793,676.848206 1125.346436,661.989746 
	C1119.491699,639.634827 1102.675659,628.093079 1082.040039,620.860229 
	C1079.015503,619.800110 1076.994263,620.215088 1074.500977,622.404541 
	C1042.089478,650.866150 1009.553650,679.186401 976.523132,708.017151 
M746.726685,726.042175 
	C750.214478,716.375854 750.812439,706.546448 748.122192,696.613403 
	C740.507874,668.500488 714.768433,650.260193 683.792236,650.944702 
	C675.803284,651.121277 675.663208,651.223755 673.586670,658.815430 
	C673.324158,659.775146 673.099060,660.750977 672.943726,661.733154 
	C668.854370,687.582092 675.525452,710.167786 693.595947,729.210449 
	C703.792114,739.955139 715.941711,747.768982 730.556519,753.551514 
	C735.959778,744.424561 741.188354,735.592712 746.726685,726.042175 
z"/>
<path fill="#FCFCFC" opacity="1.000000" stroke="none" 
	d="
M643.608276,525.461914 
	C631.918762,544.041504 639.771179,564.768799 660.575806,568.610168 
	C660.783936,565.845215 661.416992,563.074463 661.093994,560.420044 
	C660.595703,556.324402 662.492920,553.881897 665.497925,551.684387 
	C674.223694,545.303406 682.888245,538.838745 691.973511,532.113220 
	C694.285522,548.954163 699.277222,563.932617 718.877014,568.845398 
	C719.256470,559.198120 716.805298,550.628723 713.700928,542.275330 
	C711.446228,536.208313 708.934204,530.153076 705.739868,524.546814 
	C703.362305,520.374207 704.258728,518.175293 707.788818,515.579407 
	C716.770935,508.974213 725.545227,502.086456 734.757324,495.040619 
	C741.920349,504.531708 749.092773,514.035217 756.802368,524.250427 
	C747.811157,527.992920 748.960754,535.283813 749.392334,542.678223 
	C749.893127,551.259277 746.864136,558.831238 740.239563,564.473450 
	C730.862488,572.460022 721.649536,580.736816 711.624756,587.843445 
	C695.049866,599.593567 678.231567,595.454346 665.688599,577.135071 
	C661.573120,580.147888 657.401184,583.075073 653.364929,586.178711 
	C635.591248,599.845947 618.249573,596.192017 606.808411,575.122864 
	C606.808411,578.745667 606.808472,581.080078 606.808472,583.414429 
	C606.807983,643.064575 606.752625,702.714844 606.909058,762.364624 
	C606.921814,767.225098 605.435913,770.742432 601.662476,773.461670 
	C590.997559,781.147339 580.286133,788.768799 569.641113,796.481934 
	C564.937927,799.889771 560.350830,803.458069 555.389709,807.195618 
	C555.268677,806.046692 555.033936,804.856750 555.033691,803.666809 
	C555.015808,715.691162 554.984558,627.715393 555.162354,539.740112 
	C555.167969,536.957031 556.739563,533.636047 558.644043,531.524475 
	C561.499084,528.358948 565.190735,525.894043 568.713135,523.393921 
	C581.291809,514.465881 593.949158,505.648743 606.707520,496.697937 
	C606.707520,517.377747 606.707520,538.398254 606.707520,559.418701 
	C614.632324,543.651550 629.828430,535.758728 642.767700,525.135620 
	C643.265869,525.222168 643.608276,525.461914 643.608276,525.461914 
z"/>
<path fill="#FDFDFD" opacity="1.000000" stroke="none" 
	d="
M451.990234,822.990967 
	C458.968292,813.950806 467.205872,805.611267 472.695435,795.743042 
	C491.464966,762.002197 489.130310,727.736816 472.486938,693.882263 
	C468.842407,686.468872 464.059692,679.614990 459.450073,671.917236 
	C476.351532,658.356689 493.436829,644.648621 510.797546,630.719666 
	C524.123291,648.166321 533.055237,667.073547 535.976135,688.482910 
	C541.001038,725.314209 529.619568,756.740845 502.608521,781.884521 
	C486.927155,796.481812 469.764984,809.488342 452.803284,823.219910 
	C452.337341,823.229126 451.990204,822.990967 451.990234,822.990967 
z"/>
<path fill="#D6D6D6" opacity="1.000000" stroke="none" 
	d="
M423.511414,576.599304 
	C408.260345,577.558655 397.342773,569.510193 393.814819,555.106628 
	C391.105652,544.045959 397.845917,531.268250 409.126984,526.078674 
	C422.927704,519.730042 439.544586,526.586121 444.923187,540.848022 
	C450.321167,555.161377 442.418579,571.281433 427.835419,575.657288 
	C426.565826,576.038269 425.240875,576.234680 423.511414,576.599304 
M413.936035,527.057739 
	C403.711823,530.211121 397.564606,537.013672 396.240387,547.661255 
	C394.951477,558.024780 400.634064,567.769836 409.952850,572.015991 
	C419.371826,576.307800 430.708038,574.159912 437.461182,566.803894 
	C444.766998,558.845825 446.146271,547.891235 441.009003,538.625366 
	C435.774506,529.184082 426.021210,524.840820 413.936035,527.057739 
z"/>
<path fill="#D6D6D6" opacity="1.000000" stroke="none" 
	d="
M622.692139,855.121826 
	C623.249146,855.291016 623.483521,855.553467 623.943542,855.959412 
	C605.207092,872.309265 586.257080,888.529663 567.273010,904.710266 
	C563.396973,908.014099 559.393616,911.168457 554.796570,913.608948 
	C577.320862,894.144287 599.845154,874.679626 622.692139,855.121826 
z"/>
<path fill="#D6D6D6" opacity="1.000000" stroke="none" 
	d="
M897.282104,777.174561 
	C881.842163,792.282410 864.841309,805.480164 847.962402,818.827148 
	C847.665894,818.471252 847.369385,818.115356 847.072876,817.759460 
	C863.074280,803.777893 879.075684,789.796265 895.598328,776.030396 
	C896.507019,776.555603 896.894531,776.865112 897.282104,777.174561 
z"/>
<path fill="#A2A2A2" opacity="1.000000" stroke="none" 
	d="
M379.843323,879.838196 
	C399.815338,863.890015 419.784607,847.938354 439.762482,831.997498 
	C442.744049,829.618469 445.766144,827.290283 449.346680,825.006836 
	C449.962830,825.244568 450.001770,825.414001 450.040680,825.583435 
	C440.362701,833.334717 430.708160,841.115540 421.000977,848.830139 
	C407.749817,859.361328 394.458649,869.842102 380.713135,880.299316 
	C380.108917,880.115540 379.976135,879.976868 379.843323,879.838196 
z"/>
<path fill="#A2A2A2" opacity="1.000000" stroke="none" 
	d="
M380.424835,880.476379 
	C365.225861,893.003174 349.843719,905.307800 334.461578,917.612427 
	C334.138428,917.213196 333.815247,916.813965 333.492065,916.414795 
	C348.729004,904.297302 363.965942,892.179871 379.523102,879.950317 
	C379.976135,879.976868 380.108917,880.115540 380.424835,880.476379 
z"/>
<path fill="#A2A2A2" opacity="1.000000" stroke="none" 
	d="
M317.971161,929.955627 
	C320.411743,927.542114 322.852295,925.128540 325.292847,922.715027 
	C325.622498,923.071106 325.952118,923.427185 326.281769,923.783264 
	C323.747314,925.814697 321.212891,927.846130 318.334167,929.931396 
	C317.989929,929.985291 317.971161,929.955627 317.971161,929.955627 
z"/>
<path fill="#A2A2A2" opacity="1.000000" stroke="none" 
	d="
M328.032013,922.551575 
	C327.643799,922.341248 327.234406,921.728394 327.365845,921.573059 
	C327.772308,921.092529 328.384766,920.786194 329.955292,919.683105 
	C328.969208,921.237610 328.613739,921.798035 328.032013,922.551575 
z"/>
<path fill="#A2A2A2" opacity="1.000000" stroke="none" 
	d="
M315.936371,930.915466 
	C315.501831,931.709167 315.067261,932.502869 314.632721,933.296570 
	C314.370331,933.117798 314.107941,932.939026 313.845581,932.760254 
	C314.387695,932.192871 314.929810,931.625549 315.723328,931.013672 
	C315.974731,930.969177 315.936371,930.915466 315.936371,930.915466 
z"/>
<path fill="#FDFDFD" opacity="1.000000" stroke="none" 
	d="
M449.669312,825.018799 
	C450.055389,824.351562 450.696075,823.740723 451.663513,823.060425 
	C451.990204,822.990967 452.337341,823.229126 452.505005,823.358826 
	C451.995575,824.078186 451.318451,824.667847 450.341003,825.420410 
	C450.001770,825.414001 449.962830,825.244568 449.669312,825.018799 
z"/>
<path fill="#FCFCFC" opacity="1.000000" stroke="none" 
	d="
M897.500977,777.101074 
	C896.894531,776.865112 896.507019,776.555603 895.927002,775.924927 
	C896.070801,775.243469 896.407104,774.883179 896.980042,774.439331 
	C897.452087,774.613953 897.687439,774.872131 898.244019,775.544373 
	C898.283386,776.314758 898.001648,776.671143 897.500977,777.101074 
z"/>
<path fill="#A2A2A2" opacity="1.000000" stroke="none" 
	d="
M317.995789,929.993469 
	C317.515320,930.404358 317.028992,930.807068 316.239502,931.062622 
	C315.936371,930.915466 315.974731,930.969177 315.993469,930.995911 
	C316.465057,930.575745 316.917877,930.128845 317.670959,929.818787 
	C317.971161,929.955627 317.989929,929.985291 317.995789,929.993469 
z"/>
<path fill="#D6D6D6" opacity="1.000000" stroke="none" 
	d="
M552.492920,917.498047 
	C552.510864,917.501953 552.474915,917.494141 552.492920,917.498047 
z"/>
<path fill="#FCFCFC" opacity="1.000000" stroke="none" 
	d="
M643.108154,525.085144 
	C643.116272,524.652283 643.282104,524.356445 643.474365,523.819397 
	C643.500793,523.578247 643.442200,523.534546 643.442200,523.534546 
	C643.611389,523.968567 643.780518,524.402588 643.778992,525.149292 
	C643.608276,525.461914 643.265869,525.222168 643.108154,525.085144 
z"/>
<path fill="#FCFCFC" opacity="1.000000" stroke="none" 
	d="
M645.271179,522.705872 
	C644.897217,523.010010 644.523315,523.314087 643.795776,523.576416 
	C643.442200,523.534546 643.500793,523.578247 643.477905,523.553772 
	C643.877380,523.457092 644.299805,523.384949 644.978149,523.062500 
	C645.234070,522.812195 645.271179,522.705872 645.271179,522.705872 
z"/>
<path fill="#FCFCFC" opacity="1.000000" stroke="none" 
	d="
M645.245972,522.867310 
	C645.257874,522.922363 645.057007,522.898499 645.057007,522.898499 
	C645.057007,522.898499 645.239990,522.988831 645.255615,522.847351 
	C645.271179,522.705872 645.234070,522.812195 645.245972,522.867310 
z"/>
<path fill="#151515" opacity="1.000000" stroke="none" 
	d="
M976.786133,707.779724 
	C1009.553650,679.186401 1042.089478,650.866150 1074.500977,622.404541 
	C1076.994263,620.215088 1079.015503,619.800110 1082.040039,620.860229 
	C1102.675659,628.093079 1119.491699,639.634827 1125.346436,661.989746 
	C1129.237793,676.848206 1126.913940,691.807495 1122.514526,706.349976 
	C1118.041138,721.136536 1111.017578,734.710571 1102.043701,747.252808 
	C1100.754028,749.055115 1098.887817,750.795532 1096.895752,751.691467 
	C1068.716309,764.365662 1039.467773,770.957825 1008.470459,765.982971 
	C987.570740,762.628723 969.436218,753.939697 955.954834,736.995605 
	C954.919556,735.694458 953.960510,734.329224 953.022705,732.955139 
	C952.474854,732.152283 952.039795,731.272522 951.347778,730.068604 
	C959.789673,722.674255 968.156372,715.345703 976.786133,707.779724 
z"/>
<path fill="#151515" opacity="1.000000" stroke="none" 
	d="
M746.571777,726.401489 
	C741.188354,735.592712 735.959778,744.424561 730.556519,753.551514 
	C715.941711,747.768982 703.792114,739.955139 693.595947,729.210449 
	C675.525452,710.167786 668.854370,687.582092 672.943726,661.733154 
	C673.099060,660.750977 673.324158,659.775146 673.586670,658.815430 
	C675.663208,651.223755 675.803284,651.121277 683.792236,650.944702 
	C714.768433,650.260193 740.507874,668.500488 748.122192,696.613403 
	C750.812439,706.546448 750.214478,716.375854 746.571777,726.401489 
z"/>
<path fill="#191919" opacity="1.000000" stroke="none" 
	d="
M414.336548,526.991943 
	C426.021210,524.840820 435.774506,529.184082 441.009003,538.625366 
	C446.146271,547.891235 444.766998,558.845825 437.461182,566.803894 
	C430.708038,574.159912 419.371826,576.307800 409.952850,572.015991 
	C400.634064,567.769836 394.951477,558.024780 396.240387,547.661255 
	C397.564606,537.013672 403.711823,530.211121 414.336548,526.991943 
M412.345764,551.439331 
	C412.535248,554.522400 412.724731,557.605469 412.914185,560.688538 
	C413.559570,560.642883 414.204926,560.597290 414.850281,560.551636 
	C415.063660,558.021667 415.277039,555.491699 415.489136,552.977051 
	C422.995789,550.089661 421.131470,560.760986 427.650146,560.656128 
	C426.040466,557.568359 424.716705,555.028992 423.360443,552.427307 
	C426.558594,549.886414 428.676941,546.699158 426.179443,542.944641 
	C422.707947,537.725891 417.360748,540.379028 412.344299,539.916077 
	C412.344299,543.876587 412.344299,547.175964 412.345764,551.439331 
z"/>
<path fill="#D6D6D6" opacity="1.000000" stroke="none" 
	d="
M412.345032,550.957397 
	C412.344299,547.175964 412.344299,543.876587 412.344299,539.916077 
	C417.360748,540.379028 422.707947,537.725891 426.179443,542.944641 
	C428.676941,546.699158 426.558594,549.886414 423.360443,552.427307 
	C424.716705,555.028992 426.040466,557.568359 427.650146,560.656128 
	C421.131470,560.760986 422.995789,550.089661 415.489136,552.977051 
	C415.277039,555.491699 415.063660,558.021667 414.850281,560.551636 
	C414.204926,560.597290 413.559570,560.642883 412.914185,560.688538 
	C412.724731,557.605469 412.535248,554.522400 412.345032,550.957397 
M415.156830,544.812012 
	C415.236786,546.415771 415.316742,548.019531 415.475800,551.209839 
	C418.849396,549.691589 421.491333,548.674072 423.860474,547.213928 
	C424.148285,547.036560 423.072937,543.286377 422.447937,543.230774 
	C420.072510,543.019348 417.622650,543.645081 415.156830,544.812012 
z"/>
<path fill="#191919" opacity="1.000000" stroke="none" 
	d="
M415.178711,544.384949 
	C417.622650,543.645081 420.072510,543.019348 422.447937,543.230774 
	C423.072937,543.286377 424.148285,547.036560 423.860474,547.213928 
	C421.491333,548.674072 418.849396,549.691589 415.475800,551.209839 
	C415.316742,548.019531 415.236786,546.415771 415.178711,544.384949 
z"/>
</svg>