<svg width="700" height="170" viewBox="0 0 700 170" fill="none" xmlns="http://www.w3.org/2000/svg">
<path d="M268.675 61.14L236.405 86.53H202.575L193.515 120.38H151.195L182.935 1.89001H284.505L268.675 61.14ZM228.555 52.67L233.125 35.74H216.195L211.625 52.67H228.555Z" fill="white"/>
<path d="M340.875 44.21L352.215 1.89001H394.535L362.795 120.38H320.475L331.815 78.06H314.885L303.545 120.38H261.225L292.965 1.89001H335.285L323.945 44.21H340.875Z" fill="white"/>
<path d="M387.175 61.14L462.245 1.89001H504.565L472.825 120.38H430.505L446.405 61.14L414.155 86.53H431.105L422.045 120.38H371.255L387.175 61.14Z" fill="white"/>
<path d="M513.035 1.89001H606.135L597.085 35.74H546.295L544.015 44.21H594.795L574.405 120.38H481.305L490.355 86.53H541.145L543.425 78.06H492.635L513.035 1.89001Z" fill="white"/>
<path d="M699.245 1.89001L690.185 35.74H647.865L645.585 44.21H687.905L678.845 78.06H636.525L634.235 86.53H676.555L667.555 120.38H616.715L591.915 86.53L614.605 1.89001H699.245Z" fill="white"/>
<path d="M115.465 119.29L151.095 0.940002H125.725L90.0847 119.29H115.465Z" fill="#0000C4"/>
<path d="M70.5048 119.29L106.145 0.940002H80.7647L45.1248 119.29H70.5048Z" fill="#FEEA4D"/>
<path d="M25.5348 119.29L61.1748 0.940002H35.8048L0.164795 119.29H25.5348Z" fill="#FF220F"/>
<path d="M151.255 147.19H165.855L165.235 150.72H155.235L154.165 156.86H162.865L162.245 160.34H153.545L151.985 169.22H147.405L151.255 147.19Z" fill="white"/>
<path d="M172.055 147.19H176.715L172.835 169.19H168.175L172.055 147.19Z" fill="white"/>
<path d="M184.405 147.19H189.035L185.785 165.7H195.435L194.815 169.22H180.515L184.405 147.19Z" fill="white"/>
<path d="M204.765 147.19H210.695L213.455 161.46C213.523 161.79 213.573 162.124 213.605 162.46C213.605 162.76 213.605 163.1 213.605 163.46H213.715C213.825 163.118 213.959 162.784 214.115 162.46C214.265 162.16 214.425 161.84 214.605 161.51L222.405 147.19H228.405L224.515 169.19H219.915L222.395 155.14C222.445 154.79 222.525 154.42 222.615 154.01C222.705 153.6 222.795 153.23 222.885 152.9H222.765C222.655 153.23 222.515 153.6 222.335 154.01C222.155 154.42 221.995 154.79 221.825 155.14L214.155 169.19H210.405L207.745 155.14C207.671 154.767 207.621 154.389 207.595 154.01C207.595 153.6 207.595 153.23 207.595 152.9H207.475C207.475 153.23 207.395 153.6 207.335 154.01C207.275 154.42 207.225 154.79 207.175 155.14L204.695 169.19H200.875L204.765 147.19Z" fill="white"/>
<path d="M246.925 147.19H261.775L261.135 150.72H250.905L249.955 156.15H258.805L258.185 159.63H249.335L248.275 165.71H258.655L258.035 169.22H243.035L246.925 147.19Z" fill="white"/>
<path d="M268.405 147.19H273.035L269.775 165.7H279.405L278.785 169.22H264.485L268.405 147.19Z" fill="white"/>
<path d="M288.665 147.19H303.515L302.875 150.72H292.645L291.695 156.15H300.545L299.925 159.63H291.075L290.015 165.71H300.405L299.785 169.22H284.785L288.665 147.19Z" fill="white"/>
<path d="M307.405 157.53C307.803 154.458 309.272 151.625 311.555 149.53C313.671 147.717 316.379 146.742 319.165 146.79C321.932 146.79 324.002 147.517 325.375 148.97C326.054 149.713 326.54 150.611 326.792 151.586C327.043 152.56 327.051 153.582 326.815 154.56L326.755 154.92H322.065L322.145 154.5C322.285 153.98 322.307 153.436 322.21 152.907C322.114 152.377 321.9 151.876 321.585 151.44C321.178 151.043 320.688 150.741 320.15 150.556C319.612 150.371 319.04 150.308 318.475 150.37C317.018 150.35 315.613 150.908 314.565 151.92C313.274 153.342 312.471 155.139 312.275 157.05L311.855 159.44C311.465 161.65 311.635 163.32 312.335 164.44C312.702 165.007 313.216 165.464 313.821 165.763C314.427 166.063 315.102 166.193 315.775 166.14C317.001 166.202 318.204 165.791 319.135 164.99C319.993 164.187 320.583 163.14 320.825 161.99L320.905 161.59H325.595L325.515 161.99C325.046 164.19 323.809 166.15 322.025 167.52C320.048 169.025 317.608 169.796 315.125 169.7C312.172 169.7 309.955 168.78 308.475 166.94C306.995 165.1 306.558 162.433 307.165 158.94L307.405 157.53Z" fill="white"/>
<path d="M332.245 147.19H350.005L349.385 150.72H342.815L339.565 169.22H334.915L338.175 150.72H331.615L332.245 147.19Z" fill="white"/>
<path d="M355.785 147.19H363.785C366.358 147.19 368.255 147.8 369.475 149.02C370.695 150.24 371.108 151.95 370.715 154.15C370.419 156.226 369.311 158.1 367.635 159.36C365.782 160.666 363.55 161.323 361.285 161.23H357.915L356.505 169.23H351.865L355.785 147.19ZM361.785 157.8C362.877 157.87 363.953 157.511 364.785 156.8C365.489 156.083 365.941 155.156 366.075 154.16C366.19 153.727 366.217 153.276 366.154 152.832C366.09 152.389 365.937 151.963 365.705 151.58C365.362 151.22 364.938 150.947 364.468 150.784C363.999 150.62 363.497 150.571 363.005 150.64H359.805L358.545 157.78L361.785 157.8ZM360.645 159.07L365.505 158.84L369.155 169.22H364.035L360.645 159.07Z" fill="white"/>
<path d="M378.645 147.19H383.305L379.415 169.19H374.755L378.645 147.19Z" fill="white"/>
<path d="M388.405 157.53C388.802 154.458 390.272 151.625 392.555 149.53C394.668 147.718 397.371 146.743 400.155 146.79C402.935 146.79 405.005 147.517 406.365 148.97C407.046 149.712 407.534 150.61 407.787 151.584C408.039 152.559 408.049 153.581 407.815 154.56L407.755 154.92H403.065L403.135 154.5C403.278 153.981 403.303 153.437 403.208 152.907C403.113 152.378 402.9 151.876 402.585 151.44C402.177 151.043 401.687 150.741 401.15 150.556C400.612 150.371 400.04 150.308 399.475 150.37C398.018 150.35 396.612 150.908 395.565 151.92C394.273 153.342 393.471 155.139 393.275 157.05L392.855 159.44C392.468 161.653 392.628 163.32 393.335 164.44C393.701 165.005 394.213 165.462 394.816 165.761C395.42 166.06 396.093 166.191 396.765 166.14C397.991 166.207 399.196 165.794 400.125 164.99C400.99 164.191 401.584 163.142 401.825 161.99L401.895 161.59H406.585L406.515 161.99C406.042 164.188 404.805 166.147 403.025 167.52C401.044 169.027 398.601 169.797 396.115 169.7C393.175 169.7 390.958 168.78 389.465 166.94C387.971 165.1 387.535 162.433 388.155 158.94L388.405 157.53Z" fill="white"/>
<path d="M415.265 147.19H419.925L416.035 169.19H411.405L415.265 147.19Z" fill="white"/>
<path d="M425.405 147.19H443.165L442.545 150.72H436.005L432.755 169.22H428.105L431.365 150.72H424.815L425.405 147.19Z" fill="white"/>
<path d="M451.615 161.43L446.475 147.19H451.315L454.315 155.56C454.412 155.831 454.492 156.109 454.555 156.39C454.625 156.66 454.675 156.94 454.725 157.21H454.835C454.975 156.94 455.125 156.67 455.275 156.4C455.425 156.13 455.615 155.85 455.815 155.56L461.615 147.19H466.285L456.345 161.19L454.925 169.24H450.265L451.615 161.43Z" fill="white"/>
<path d="M478.165 162.57H482.905L482.845 162.91C482.722 163.333 482.713 163.781 482.82 164.208C482.928 164.635 483.146 165.026 483.455 165.34C484.251 165.942 485.24 166.23 486.235 166.15C487.287 166.203 488.331 165.942 489.235 165.4C489.586 165.178 489.887 164.886 490.12 164.542C490.352 164.197 490.51 163.809 490.585 163.4C490.679 163.044 490.672 162.668 490.566 162.315C490.461 161.963 490.259 161.646 489.985 161.4C488.79 160.66 487.473 160.138 486.095 159.86C484.298 159.475 482.629 158.639 481.245 157.43C480.718 156.87 480.342 156.185 480.154 155.44C479.965 154.694 479.968 153.913 480.165 153.17C480.317 152.229 480.662 151.329 481.179 150.527C481.695 149.725 482.371 149.039 483.165 148.51C485.041 147.299 487.243 146.692 489.475 146.77C491.537 146.626 493.578 147.269 495.185 148.57C495.822 149.175 496.289 149.937 496.539 150.779C496.788 151.622 496.811 152.516 496.605 153.37L496.525 153.75H491.905L491.965 153.43C492.064 153.039 492.071 152.63 491.984 152.236C491.897 151.842 491.719 151.473 491.465 151.16C491.121 150.844 490.714 150.604 490.272 150.456C489.829 150.308 489.36 150.255 488.895 150.3C487.927 150.241 486.964 150.478 486.135 150.98C485.825 151.193 485.561 151.467 485.36 151.785C485.159 152.103 485.024 152.459 484.965 152.83C484.88 153.143 484.893 153.475 485.002 153.781C485.111 154.086 485.311 154.351 485.575 154.54C486.796 155.198 488.101 155.686 489.455 155.99C491.251 156.399 492.913 157.26 494.285 158.49C495.358 159.537 495.721 161.063 495.375 163.07C495.213 164.063 494.843 165.011 494.288 165.851C493.733 166.69 493.006 167.402 492.155 167.94C490.197 169.151 487.925 169.757 485.625 169.68C483.488 169.814 481.37 169.21 479.625 167.97C478.205 166.83 477.685 165.17 478.085 162.97L478.165 162.57Z" fill="white"/>
<path d="M501.905 157.53C502.309 154.453 503.79 151.619 506.085 149.53C508.201 147.716 510.908 146.738 513.695 146.78C514.938 146.703 516.182 146.91 517.333 147.387C518.484 147.863 519.511 148.596 520.335 149.53C521.865 151.36 522.335 154.04 521.695 157.53L521.455 158.89C521.059 161.972 519.573 164.81 517.265 166.89C515.145 168.696 512.44 169.67 509.655 169.63C508.412 169.712 507.167 169.508 506.016 169.033C504.865 168.558 503.838 167.825 503.015 166.89C501.495 165.063 501.045 162.397 501.665 158.89L501.905 157.53ZM506.905 164.43C507.277 164.989 507.79 165.438 508.393 165.734C508.995 166.029 509.666 166.159 510.335 166.11C511.08 166.112 511.818 165.965 512.506 165.676C513.193 165.388 513.815 164.964 514.335 164.43C515.606 163.007 516.406 161.226 516.625 159.33L517.015 157.1C517.415 154.81 517.255 153.1 516.505 152C516.129 151.444 515.613 150.997 515.009 150.704C514.405 150.41 513.734 150.282 513.065 150.33C512.32 150.322 511.581 150.466 510.893 150.753C510.205 151.04 509.583 151.464 509.065 152C507.798 153.426 506.999 155.206 506.775 157.1L506.385 159.33C505.965 161.61 506.125 163.31 506.855 164.43H506.905Z" fill="white"/>
<path d="M530.465 147.19H535.095L531.845 165.7H541.495L540.875 169.22H526.585L530.465 147.19Z" fill="white"/>
<path d="M549.725 147.19H554.405L551.905 161.39C551.595 163.13 551.745 164.39 552.365 165.05C552.718 165.419 553.149 165.705 553.626 165.889C554.103 166.072 554.615 166.147 555.125 166.11C556.255 166.14 557.358 165.764 558.235 165.05C559.24 164.078 559.867 162.781 560.005 161.39L562.495 147.19H567.035L564.575 161.14C564.429 162.405 564.034 163.629 563.411 164.74C562.787 165.851 561.949 166.827 560.945 167.61C559.048 168.957 556.77 169.658 554.445 169.61C552.329 169.735 550.25 169.016 548.665 167.61C547.231 166.277 546.775 164.12 547.295 161.14L549.725 147.19Z" fill="white"/>
<path d="M572.525 147.19H590.295L589.675 150.72H583.105L579.855 169.22H575.205L578.455 150.72H571.905L572.525 147.19Z" fill="white"/>
<path d="M596.005 147.19H600.665L596.775 169.19H592.115L596.005 147.19Z" fill="white"/>
<path d="M605.715 157.53C606.118 154.451 607.604 151.615 609.905 149.53C612.018 147.717 614.721 146.739 617.505 146.78C618.748 146.701 619.993 146.908 621.144 147.385C622.295 147.861 623.322 148.595 624.145 149.53C625.685 151.363 626.138 154.03 625.505 157.53L625.265 158.89C624.874 161.973 623.387 164.813 621.075 166.89C618.955 168.696 616.25 169.67 613.465 169.63C612.224 169.713 610.98 169.509 609.83 169.034C608.68 168.559 607.655 167.825 606.835 166.89C605.315 165.063 604.862 162.397 605.475 158.89L605.715 157.53ZM610.715 164.43C611.088 164.989 611.604 165.44 612.208 165.735C612.812 166.03 613.484 166.159 614.155 166.11C614.9 166.112 615.638 165.965 616.326 165.676C617.013 165.388 617.635 164.964 618.155 164.43C619.43 163.009 620.23 161.227 620.445 159.33L620.835 157.1C621.248 154.807 621.082 153.107 620.335 152C619.957 151.444 619.439 150.997 618.833 150.704C618.228 150.411 617.556 150.282 616.885 150.33C616.14 150.322 615.401 150.466 614.713 150.753C614.025 151.04 613.403 151.464 612.885 152C611.618 153.426 610.819 155.206 610.595 157.1L610.205 159.33C609.775 161.61 609.935 163.31 610.665 164.43H610.715Z" fill="white"/>
<path d="M634.285 147.19H639.105L644.725 160.86C644.845 161.167 644.945 161.457 645.025 161.73C645.111 162.016 645.181 162.306 645.235 162.6H645.405C645.405 162.25 645.495 161.93 645.545 161.6C645.595 161.27 645.645 160.97 645.705 160.6L648.085 147.13H652.085L648.195 169.13H643.195L637.665 155.59C637.545 155.297 637.445 154.996 637.365 154.69C637.295 154.4 637.225 154.11 637.165 153.81H637.055C637.055 154.14 636.965 154.48 636.915 154.81C636.865 155.14 636.805 155.5 636.735 155.81L634.405 169.22H630.405L634.285 147.19Z" fill="white"/>
<path d="M655.915 162.57H660.655L660.595 162.91C660.472 163.333 660.463 163.781 660.57 164.208C660.678 164.635 660.896 165.026 661.205 165.34C661.998 165.948 662.989 166.237 663.985 166.15C665.037 166.203 666.081 165.942 666.985 165.4C667.336 165.178 667.637 164.886 667.87 164.542C668.102 164.197 668.26 163.809 668.335 163.4C668.429 163.044 668.422 162.668 668.316 162.315C668.211 161.963 668.009 161.646 667.735 161.4C666.537 160.658 665.216 160.137 663.835 159.86C662.042 159.473 660.376 158.637 658.995 157.43C658.469 156.869 658.093 156.185 657.902 155.44C657.712 154.695 657.713 153.914 657.905 153.17C658.068 152.225 658.424 151.324 658.951 150.522C659.477 149.721 660.163 149.036 660.965 148.51C662.84 147.298 665.043 146.691 667.275 146.77C669.335 146.623 671.373 147.267 672.975 148.57C673.619 149.17 674.092 149.931 674.343 150.775C674.595 151.619 674.616 152.515 674.405 153.37L674.325 153.75H669.665L669.725 153.43C669.825 153.038 669.831 152.628 669.743 152.234C669.654 151.839 669.473 151.471 669.215 151.16C668.873 150.844 668.468 150.603 668.027 150.455C667.586 150.307 667.118 150.254 666.655 150.3C665.687 150.241 664.724 150.478 663.895 150.98C663.585 151.194 663.321 151.468 663.118 151.786C662.916 152.104 662.778 152.459 662.715 152.83C662.632 153.144 662.647 153.476 662.758 153.782C662.869 154.087 663.07 154.352 663.335 154.54C664.552 155.201 665.854 155.692 667.205 156C669.001 156.409 670.663 157.27 672.035 158.5C673.108 159.547 673.468 161.073 673.115 163.08C672.958 164.074 672.59 165.022 672.036 165.862C671.483 166.702 670.756 167.414 669.905 167.95C667.947 169.161 665.675 169.767 663.375 169.69C661.238 169.824 659.12 169.22 657.375 167.98C655.955 166.84 655.435 165.18 655.835 162.98L655.915 162.57Z" fill="white"/>
</svg>
